<svg id="svg" version="1.1" xmlns="http://www.w3.org/2000/svg" xmlns:xlink="http://www.w3.org/1999/xlink" width="400" height="564.5714285714286" viewBox="0, 0, 400,564.5714285714286"><g id="svgg"><path id="path0" d="M74.678 196.412 C 74.763 197.415,75.039 200.459,75.291 203.176 C 75.734 207.955,76.182 212.881,77.188 224.000 C 77.451 226.912,77.875 231.571,78.130 234.353 C 78.385 237.135,78.649 240.100,78.717 240.941 C 78.784 241.782,78.895 242.921,78.964 243.471 L 79.088 244.471 174.720 244.471 L 270.353 244.471 270.353 245.088 C 270.353 245.427,270.198 247.359,270.009 249.382 C 269.819 251.404,269.446 255.547,269.179 258.588 C 268.912 261.629,268.541 265.812,268.354 267.882 C 268.168 269.953,267.905 272.918,267.771 274.471 C 266.867 284.883,265.865 295.622,265.789 295.699 C 265.761 295.728,224.738 295.825,174.627 295.915 L 83.515 296.078 83.643 297.392 C 83.809 299.098,84.556 307.347,85.179 314.353 C 85.450 317.394,85.878 322.159,86.130 324.941 C 86.383 327.724,86.640 330.582,86.702 331.294 C 87.033 335.141,87.794 343.579,87.905 344.647 L 88.034 345.882 174.758 345.882 L 261.482 345.882 261.337 347.824 C 261.181 349.917,260.728 355.025,259.055 373.529 C 258.338 381.468,257.721 388.380,257.050 396.000 C 256.714 399.818,256.261 404.735,256.043 406.926 L 255.647 410.912 254.588 411.195 C 254.006 411.352,250.724 412.241,247.294 413.171 C 243.865 414.101,240.529 415.006,239.882 415.181 C 239.235 415.357,235.900 416.257,232.471 417.181 C 229.041 418.106,225.706 419.006,225.059 419.181 C 224.050 419.455,213.774 422.226,210.235 423.179 C 209.588 423.353,207.052 424.041,204.600 424.707 C 199.407 426.118,199.895 426.066,197.647 425.456 C 196.676 425.193,193.871 424.432,191.412 423.765 C 184.427 421.869,183.491 421.617,182.235 421.292 C 181.588 421.125,179.047 420.438,176.588 419.765 C 174.129 419.092,171.588 418.406,170.941 418.240 C 170.294 418.074,166.959 417.172,163.529 416.235 C 160.100 415.299,156.765 414.397,156.118 414.231 C 155.471 414.065,152.929 413.377,150.471 412.703 C 148.012 412.028,145.558 411.375,145.018 411.252 C 143.878 410.992,143.923 411.141,143.532 406.353 C 143.271 403.162,142.549 395.058,141.991 389.059 C 141.799 386.988,141.488 383.494,141.302 381.294 C 141.115 379.094,140.833 375.891,140.676 374.176 L 140.390 371.059 115.371 371.059 L 90.353 371.059 90.356 371.588 C 90.359 372.154,90.815 377.581,91.408 384.118 C 91.608 386.318,91.984 390.500,92.244 393.412 C 92.505 396.324,92.875 400.400,93.067 402.471 C 93.260 404.541,93.571 408.035,93.759 410.235 C 94.188 415.248,94.925 423.593,95.402 428.824 C 95.949 434.836,96.657 442.778,96.967 446.400 L 97.243 449.623 98.209 449.844 C 98.741 449.966,100.129 450.331,101.294 450.655 C 115.980 454.749,119.431 455.710,122.353 456.518 C 124.229 457.036,126.453 457.648,127.294 457.878 C 128.135 458.108,130.782 458.849,133.176 459.524 C 135.571 460.200,138.059 460.893,138.706 461.064 C 139.353 461.235,141.841 461.926,144.235 462.598 C 146.629 463.271,148.906 463.900,149.294 463.997 C 149.682 464.094,150.582 464.339,151.294 464.541 C 153.767 465.245,160.141 467.021,164.118 468.114 C 166.318 468.719,168.647 469.365,169.294 469.550 C 170.376 469.859,175.737 471.341,180.000 472.510 C 180.971 472.776,182.241 473.133,182.824 473.302 C 183.780 473.580,186.012 474.201,196.588 477.132 C 199.161 477.845,200.037 477.999,200.588 477.835 C 200.976 477.720,203.729 476.951,206.706 476.126 C 209.682 475.302,215.612 473.656,219.882 472.468 C 226.996 470.489,232.018 469.097,236.000 468.001 C 236.841 467.769,239.329 467.080,241.529 466.469 C 243.729 465.858,246.218 465.171,247.059 464.942 C 247.900 464.713,255.153 462.703,263.176 460.474 C 271.200 458.246,279.035 456.074,280.588 455.649 C 282.141 455.223,285.529 454.284,288.118 453.563 C 290.706 452.841,294.933 451.667,297.512 450.954 C 300.091 450.241,302.270 449.576,302.354 449.476 C 302.438 449.376,302.692 447.124,302.918 444.471 C 303.145 441.818,303.582 436.841,303.890 433.412 C 304.198 429.982,304.721 424.106,305.052 420.353 C 305.383 416.600,305.758 412.471,305.885 411.176 C 306.013 409.882,306.273 406.971,306.464 404.706 C 306.654 402.441,306.973 398.788,307.173 396.588 C 307.372 394.388,307.742 390.312,307.994 387.529 C 308.247 384.747,308.674 379.982,308.943 376.941 C 309.211 373.900,309.636 369.135,309.886 366.353 C 310.136 363.571,310.611 358.224,310.942 354.471 C 311.655 346.395,312.295 339.230,312.940 332.118 C 313.790 322.740,314.124 318.991,314.468 314.941 C 314.656 312.741,314.970 309.194,315.167 307.059 C 316.001 298.025,316.482 292.734,316.943 287.529 C 317.211 284.488,317.636 279.724,317.886 276.941 C 318.136 274.159,318.611 268.812,318.942 265.059 C 319.273 261.306,319.748 255.959,319.998 253.176 C 320.247 250.394,320.671 245.629,320.940 242.588 C 321.209 239.547,321.635 234.782,321.888 232.000 C 322.949 220.314,323.088 218.763,323.404 215.059 C 323.947 208.699,324.466 202.928,324.833 199.176 C 325.022 197.235,325.177 195.409,325.177 195.118 L 325.176 194.588 199.850 194.588 L 74.523 194.588 74.678 196.412 " stroke="none" fill="#f4f4f4" fill-rule="evenodd"></path><path id="path1" d="M0.000 112.550 C 0.000 113.500,0.203 116.173,0.451 118.491 C 0.699 120.809,0.952 123.553,1.012 124.588 C 1.073 125.624,1.350 128.800,1.627 131.647 C 2.111 136.618,2.478 140.684,3.529 152.706 C 3.795 155.747,4.221 160.459,4.476 163.176 C 4.731 165.894,4.987 168.859,5.046 169.765 C 5.104 170.671,5.373 173.741,5.643 176.588 C 6.116 181.579,6.499 185.836,7.536 197.647 C 7.803 200.688,8.228 205.400,8.481 208.118 C 8.734 210.835,8.991 213.800,9.054 214.706 C 9.116 215.612,9.379 218.576,9.638 221.294 C 9.896 224.012,10.324 228.724,10.587 231.765 C 11.306 240.054,11.955 247.308,12.471 252.824 C 12.726 255.541,12.984 258.559,13.046 259.529 C 13.108 260.500,13.373 263.518,13.634 266.235 C 14.081 270.899,14.365 274.064,15.522 287.294 C 15.787 290.335,16.216 295.047,16.473 297.765 C 16.731 300.482,16.990 303.500,17.048 304.471 C 17.150 306.147,17.538 310.326,18.597 321.176 C 18.856 323.829,19.064 326.371,19.058 326.824 C 19.052 327.276,19.259 329.818,19.517 332.471 C 20.042 337.875,20.909 347.436,21.054 349.412 C 21.106 350.124,21.370 353.088,21.641 356.000 C 21.912 358.912,22.345 363.676,22.603 366.588 C 22.860 369.500,23.277 374.212,23.529 377.059 C 23.781 379.906,24.201 384.565,24.463 387.412 C 24.724 390.259,24.998 393.488,25.071 394.588 C 25.144 395.688,25.409 398.414,25.661 400.646 C 25.912 402.878,26.115 405.155,26.111 405.705 C 26.108 406.256,26.316 408.876,26.573 411.529 C 26.831 414.182,27.258 418.841,27.523 421.882 C 27.788 424.924,28.213 429.635,28.467 432.353 C 28.720 435.071,28.981 438.141,29.046 439.176 C 29.111 440.212,29.376 443.229,29.637 445.882 C 30.118 450.787,30.668 456.881,31.528 466.824 C 31.791 469.865,32.214 474.576,32.468 477.294 C 32.722 480.012,32.981 483.029,33.044 484.000 C 33.108 484.971,33.370 487.935,33.628 490.588 C 33.886 493.241,34.314 497.900,34.579 500.941 C 34.845 503.982,35.276 508.641,35.536 511.294 C 35.797 513.947,36.007 516.733,36.005 517.486 C 35.999 519.005,36.289 519.765,36.874 519.765 C 37.087 519.765,37.956 519.969,38.807 520.219 C 40.240 520.640,41.431 520.972,45.765 522.161 C 46.671 522.409,48.126 522.825,49.000 523.084 C 49.873 523.344,50.823 523.602,51.110 523.657 C 51.398 523.712,52.378 523.974,53.287 524.239 C 54.197 524.504,55.735 524.936,56.706 525.200 C 60.398 526.202,65.313 527.585,67.536 528.248 C 68.381 528.500,69.208 528.706,69.374 528.706 C 69.541 528.706,70.332 528.912,71.132 529.165 C 71.933 529.417,73.435 529.852,74.471 530.132 C 75.506 530.411,77.200 530.882,78.235 531.177 C 81.620 532.144,84.334 532.901,88.882 534.147 C 89.885 534.421,91.553 534.886,92.588 535.180 C 93.624 535.473,95.291 535.937,96.294 536.210 C 102.367 537.862,103.744 538.242,107.059 539.183 C 108.288 539.532,109.982 540.006,110.824 540.237 C 111.665 540.468,113.200 540.890,114.235 541.175 C 115.271 541.460,116.806 541.881,117.647 542.112 C 118.488 542.342,120.182 542.818,121.412 543.168 C 124.004 543.907,126.243 544.531,128.647 545.184 C 131.606 545.987,133.698 546.566,135.882 547.187 C 137.047 547.517,138.794 548.004,139.765 548.269 C 140.735 548.533,142.218 548.945,143.059 549.185 C 143.900 549.424,145.435 549.849,146.471 550.130 C 147.506 550.410,149.200 550.879,150.235 551.173 C 152.221 551.736,154.569 552.383,157.588 553.198 C 158.591 553.469,160.100 553.888,160.941 554.128 C 161.782 554.369,163.476 554.846,164.706 555.189 C 165.935 555.532,167.629 556.006,168.471 556.243 C 169.312 556.480,170.847 556.904,171.882 557.187 C 174.544 557.913,176.484 558.452,179.059 559.183 C 180.288 559.532,181.982 560.006,182.824 560.237 C 183.665 560.468,185.200 560.890,186.235 561.175 C 187.271 561.460,188.806 561.881,189.647 562.112 C 192.706 562.950,195.681 563.790,197.193 564.243 C 199.135 564.824,200.377 564.827,202.336 564.253 C 203.187 564.004,204.888 563.517,206.118 563.171 C 207.347 562.825,209.041 562.346,209.882 562.108 C 210.724 561.869,212.259 561.448,213.294 561.172 C 215.444 560.598,217.324 560.078,220.353 559.222 C 222.337 558.661,224.092 558.172,227.765 557.160 C 232.344 555.898,233.217 555.655,234.941 555.166 C 235.976 554.873,237.671 554.400,238.706 554.115 C 246.196 552.056,247.305 551.746,249.294 551.150 C 250.329 550.840,251.282 550.588,251.412 550.591 C 251.541 550.593,252.335 550.390,253.176 550.139 C 254.018 549.889,255.553 549.452,256.588 549.168 C 258.893 548.537,260.838 547.998,263.765 547.178 C 265.985 546.557,267.330 546.185,270.941 545.197 C 271.976 544.914,273.479 544.476,274.279 544.224 C 275.080 543.971,275.893 543.765,276.087 543.765 C 276.280 543.765,277.319 543.495,278.395 543.165 C 281.468 542.223,283.361 541.681,284.000 541.560 C 284.324 541.498,285.541 541.175,286.706 540.841 C 287.871 540.507,289.806 539.972,291.006 539.652 C 292.206 539.331,293.390 538.961,293.637 538.829 C 293.884 538.696,294.276 538.588,294.507 538.588 C 294.739 538.588,295.619 538.387,296.464 538.141 C 298.028 537.685,300.452 537.005,303.412 536.191 C 304.318 535.942,305.959 535.488,307.059 535.181 C 309.383 534.532,312.135 533.771,314.471 533.129 C 315.376 532.881,316.773 532.472,317.574 532.221 C 318.374 531.970,319.168 531.767,319.338 531.769 C 319.508 531.771,320.494 531.513,321.529 531.196 C 322.565 530.879,324.259 530.393,325.294 530.115 C 326.329 529.838,327.865 529.419,328.706 529.185 C 329.547 528.950,331.029 528.540,332.000 528.273 C 332.971 528.006,334.718 527.517,335.882 527.187 C 337.047 526.856,338.768 526.374,339.706 526.116 C 340.644 525.858,342.179 525.436,343.118 525.177 C 344.056 524.919,345.618 524.492,346.588 524.228 C 347.559 523.965,349.306 523.476,350.471 523.142 C 352.517 522.556,353.652 522.241,357.412 521.215 C 364.491 519.283,364.005 519.596,363.996 516.971 C 363.993 515.936,364.369 511.708,365.422 500.941 C 365.681 498.288,365.945 495.324,366.008 494.353 C 366.071 493.382,366.336 490.259,366.596 487.412 C 367.099 481.927,367.681 475.419,368.479 466.353 C 368.746 463.312,369.226 457.965,369.545 454.471 C 370.159 447.753,370.732 441.318,371.527 432.235 C 371.794 429.194,372.179 424.959,372.384 422.824 C 372.589 420.688,372.805 418.094,372.864 417.059 C 372.923 416.024,373.173 413.271,373.420 410.941 C 373.667 408.612,373.923 405.912,373.990 404.941 C 374.056 403.971,374.327 400.794,374.592 397.882 C 375.068 392.657,375.526 387.520,376.480 376.706 C 376.748 373.665,377.229 368.318,377.548 364.824 C 378.142 358.317,378.673 352.337,379.526 342.588 C 379.791 339.547,380.221 334.888,380.481 332.235 C 380.740 329.582,380.951 326.935,380.949 326.353 C 380.947 325.771,381.102 323.918,381.292 322.235 C 381.852 317.299,381.876 317.057,382.009 315.012 C 382.078 313.938,382.336 310.888,382.582 308.235 C 382.828 305.582,383.250 300.924,383.519 297.882 C 384.335 288.661,384.901 282.326,385.527 275.412 C 386.271 267.197,387.200 256.746,388.486 242.118 C 389.541 230.115,389.913 225.999,390.358 221.412 C 390.616 218.759,390.881 215.794,390.947 214.824 C 391.014 213.853,391.276 210.782,391.530 208.000 C 391.983 203.032,392.447 197.816,393.411 186.824 C 393.677 183.782,394.154 178.488,394.470 175.059 C 395.008 169.230,395.308 165.863,396.486 152.471 C 397.925 136.114,398.823 126.220,399.540 118.824 C 399.797 116.171,400.006 113.285,400.004 112.412 L 400.000 110.824 200.000 110.824 L 0.000 110.824 0.000 112.550 M363.420 145.588 C 363.267 146.955,362.659 153.584,362.466 156.000 C 362.388 156.971,362.173 159.353,361.989 161.294 C 361.804 163.235,361.385 167.894,361.058 171.647 C 360.730 175.400,360.256 180.747,360.003 183.529 C 359.751 186.312,359.273 191.659,358.942 195.412 C 358.610 199.165,358.185 203.929,357.998 206.000 C 357.567 210.752,356.662 220.929,355.885 229.765 C 355.554 233.518,355.132 238.229,354.946 240.235 C 354.759 242.241,354.543 244.676,354.466 245.647 C 354.388 246.618,354.174 249.000,353.990 250.941 C 353.806 252.882,353.386 257.541,353.056 261.294 C 352.726 265.047,352.251 270.394,352.000 273.176 C 351.749 275.959,351.273 281.306,350.940 285.059 C 350.608 288.812,350.125 294.265,349.868 297.176 C 349.610 300.088,349.194 304.747,348.942 307.529 C 348.691 310.312,348.215 315.659,347.885 319.412 C 347.554 323.165,347.131 327.876,346.943 329.882 C 346.756 331.888,346.333 336.600,346.003 340.353 C 345.673 344.106,345.250 348.871,345.062 350.941 C 344.874 353.012,344.449 357.776,344.117 361.529 C 343.786 365.282,343.308 370.629,343.055 373.412 C 342.803 376.194,342.327 381.541,341.997 385.294 C 341.234 393.977,340.567 401.414,340.110 406.353 C 339.739 410.364,339.388 414.342,338.585 423.647 C 338.329 426.624,338.013 430.118,337.885 431.412 C 337.756 432.706,337.384 436.835,337.057 440.588 C 336.730 444.341,336.256 449.688,336.003 452.471 C 335.751 455.253,335.273 460.600,334.941 464.353 C 334.609 468.106,334.134 473.453,333.886 476.235 C 333.638 479.018,333.201 483.941,332.915 487.176 C 332.628 490.412,332.332 493.131,332.256 493.219 C 332.145 493.347,324.865 495.438,321.765 496.233 C 321.376 496.332,319.524 496.842,317.647 497.365 C 309.937 499.517,278.516 508.228,275.059 509.173 C 274.218 509.402,270.988 510.300,267.882 511.168 C 264.776 512.035,259.747 513.434,256.706 514.275 C 253.665 515.117,249.641 516.231,247.765 516.751 C 245.888 517.270,243.665 517.886,242.824 518.118 C 241.982 518.350,239.759 518.965,237.882 519.485 C 236.006 520.005,231.982 521.117,228.941 521.958 C 225.900 522.798,222.406 523.770,221.176 524.118 C 219.947 524.465,216.453 525.437,213.412 526.278 C 210.371 527.118,206.347 528.232,204.471 528.753 C 202.594 529.275,200.821 529.755,200.529 529.819 L 200.000 529.937 200.000 504.072 L 200.000 478.207 198.765 477.896 C 197.435 477.562,194.531 476.764,191.882 476.006 C 190.976 475.746,189.018 475.207,187.529 474.806 C 186.041 474.406,184.347 473.939,183.765 473.767 C 183.182 473.596,181.647 473.173,180.353 472.828 C 179.059 472.483,177.735 472.110,177.412 471.998 C 177.088 471.887,175.394 471.410,173.647 470.939 C 171.900 470.469,169.994 469.946,169.412 469.778 C 167.138 469.122,164.666 468.433,160.941 467.415 C 158.806 466.832,156.318 466.142,155.412 465.882 C 154.506 465.622,152.176 464.975,150.235 464.445 C 148.294 463.915,145.859 463.240,144.824 462.944 C 143.788 462.648,141.882 462.121,140.588 461.772 C 139.294 461.424,137.759 461.002,137.176 460.835 C 135.077 460.233,132.518 459.519,128.706 458.471 C 126.571 457.884,124.082 457.193,123.176 456.936 C 122.271 456.679,119.782 455.987,117.647 455.399 C 113.519 454.262,111.478 453.695,108.824 452.945 C 106.307 452.234,99.788 450.440,98.510 450.107 C 97.071 449.732,97.100 449.821,96.613 444.353 C 96.221 439.954,95.769 434.925,94.826 424.471 C 94.564 421.559,94.298 418.541,94.236 417.765 C 94.174 416.988,93.916 414.076,93.664 411.294 C 93.412 408.512,92.982 403.694,92.708 400.588 C 92.435 397.482,92.054 393.300,91.862 391.294 C 91.670 389.288,91.360 385.794,91.172 383.529 C 90.984 381.265,90.672 377.824,90.479 375.882 C 90.285 373.941,90.125 372.008,90.122 371.587 L 90.118 370.821 115.353 370.881 L 140.588 370.941 140.758 372.941 C 140.852 374.041,141.146 377.376,141.413 380.353 C 141.680 383.329,142.109 388.147,142.367 391.059 C 142.624 393.971,143.043 398.576,143.296 401.294 C 143.550 404.012,143.826 407.258,143.909 408.507 L 144.061 410.779 146.913 411.545 C 148.481 411.967,150.241 412.442,150.824 412.602 C 152.175 412.973,161.388 415.468,162.941 415.885 C 166.799 416.919,168.074 417.263,170.435 417.910 C 171.878 418.305,173.800 418.825,174.706 419.065 C 175.612 419.306,176.962 419.667,177.706 419.869 C 178.450 420.070,179.615 420.384,180.294 420.567 C 180.974 420.749,183.753 421.501,186.471 422.237 C 191.188 423.514,192.097 423.759,195.059 424.550 C 195.771 424.740,197.112 425.109,198.040 425.369 C 198.968 425.629,199.788 425.780,199.863 425.705 C 199.939 425.630,200.000 407.692,200.000 385.844 L 200.000 346.119 143.941 346.059 L 87.882 346.000 87.605 343.294 C 87.272 340.044,86.686 333.572,86.235 328.175 C 86.053 326.007,85.744 322.513,85.548 320.411 C 85.351 318.308,84.971 314.100,84.704 311.059 C 84.097 304.161,83.550 298.344,83.371 296.883 L 83.234 295.766 141.558 295.706 L 199.882 295.647 199.942 270.176 L 200.002 244.706 139.413 244.706 C 83.679 244.706,78.824 244.675,78.824 244.324 C 78.824 244.114,78.669 242.288,78.481 240.265 C 78.293 238.243,77.919 234.100,77.649 231.059 C 77.380 228.018,77.007 223.994,76.821 222.118 C 76.635 220.241,76.421 217.859,76.345 216.824 C 76.269 215.788,76.007 212.876,75.764 210.353 C 75.520 207.829,75.253 204.865,75.170 203.765 C 75.088 202.665,74.871 200.388,74.689 198.706 C 74.507 197.024,74.356 195.356,74.355 195.000 L 74.353 194.353 137.176 194.353 L 200.000 194.353 200.000 169.412 L 200.000 144.471 281.773 144.471 L 363.546 144.471 363.420 145.588 " stroke="none" fill="#244ce4" fill-rule="evenodd"></path><path id="path2" d="M94.118 38.118 L 94.118 76.235 124.588 76.235 L 155.059 76.235 155.059 63.412 L 155.059 50.588 137.412 50.588 L 119.765 50.588 119.765 38.118 L 119.765 25.647 137.412 25.647 L 155.059 25.647 155.059 12.824 L 155.059 0.000 124.588 0.000 L 94.118 0.000 94.118 38.118 M166.824 24.941 L 166.824 49.882 184.471 49.882 L 202.118 49.882 202.118 51.882 L 202.118 53.882 184.471 53.882 L 166.824 53.882 166.824 65.647 L 166.824 77.412 197.294 77.412 L 227.765 77.412 227.765 51.765 L 227.765 26.118 210.118 26.118 L 192.471 26.118 192.471 24.118 L 192.471 22.118 210.118 22.118 L 227.765 22.118 227.765 11.059 L 227.765 0.000 197.294 0.000 L 166.824 0.000 166.824 24.941 M239.529 24.941 L 239.529 49.882 257.176 49.882 L 274.824 49.882 274.824 51.882 L 274.824 53.882 257.176 53.882 L 239.529 53.882 239.529 65.647 L 239.529 77.412 270.000 77.412 L 300.471 77.412 300.471 51.765 L 300.471 26.118 282.824 26.118 L 265.176 26.118 265.176 24.118 L 265.176 22.118 282.824 22.118 L 300.471 22.118 300.471 11.059 L 300.471 0.000 270.000 0.000 L 239.529 0.000 239.529 24.941 " stroke="none" fill="#040404" fill-rule="evenodd"></path><path id="path3" d="M200.000 169.412 L 200.000 194.353 262.727 194.353 L 325.453 194.353 325.318 195.235 C 325.243 195.721,325.071 197.494,324.936 199.176 C 324.801 200.859,324.480 204.565,324.223 207.412 C 323.580 214.531,322.035 231.881,321.760 235.059 C 321.699 235.771,321.437 238.682,321.179 241.529 C 320.920 244.376,320.492 249.141,320.228 252.118 C 319.963 255.094,319.545 259.753,319.299 262.471 C 319.052 265.188,318.789 268.206,318.714 269.176 C 318.639 270.147,318.423 272.582,318.233 274.588 C 317.743 279.771,317.204 285.826,316.819 290.471 C 316.636 292.671,316.329 296.112,316.135 298.118 C 315.717 302.443,314.390 317.171,313.760 324.471 C 313.699 325.182,313.437 328.094,313.179 330.941 C 312.920 333.788,312.492 338.553,312.228 341.529 C 311.963 344.506,311.545 349.165,311.299 351.882 C 311.052 354.600,310.789 357.618,310.714 358.588 C 310.639 359.559,310.423 361.994,310.233 364.000 C 309.754 369.073,309.210 375.170,308.822 379.825 C 308.641 381.993,308.332 385.487,308.135 387.589 C 307.937 389.692,307.564 393.794,307.304 396.706 C 306.179 409.344,305.868 412.818,305.530 416.588 C 305.333 418.788,305.064 421.806,304.933 423.294 C 304.802 424.782,304.489 428.276,304.238 431.059 C 303.988 433.841,303.561 438.659,303.291 441.765 C 302.552 450.263,302.698 449.657,301.294 450.036 C 300.647 450.211,299.376 450.564,298.471 450.820 C 297.565 451.076,295.076 451.766,292.941 452.353 C 289.002 453.436,286.386 454.167,284.471 454.719 C 283.888 454.887,281.982 455.411,280.235 455.882 C 278.488 456.354,276.582 456.879,276.000 457.050 C 275.418 457.220,274.147 457.576,273.176 457.841 C 272.206 458.106,269.718 458.796,267.647 459.374 C 265.576 459.951,262.294 460.857,260.353 461.387 C 258.412 461.917,256.082 462.561,255.176 462.818 C 254.271 463.075,251.782 463.766,249.647 464.353 C 245.708 465.436,243.092 466.167,241.176 466.719 C 240.594 466.887,238.688 467.411,236.941 467.882 C 235.194 468.354,233.288 468.881,232.706 469.054 C 232.124 469.227,230.588 469.651,229.294 469.997 C 228.000 470.343,226.465 470.764,225.882 470.934 C 225.300 471.103,224.029 471.459,223.059 471.725 C 218.842 472.881,213.403 474.387,211.882 474.818 C 210.976 475.075,208.488 475.771,206.353 476.364 C 204.218 476.958,201.915 477.598,201.235 477.787 L 200.000 478.131 200.000 504.034 L 200.000 529.937 200.529 529.819 C 200.821 529.755,202.594 529.275,204.471 528.753 C 206.347 528.232,210.371 527.118,213.412 526.278 C 216.453 525.437,219.947 524.465,221.176 524.118 C 222.406 523.770,225.900 522.798,228.941 521.958 C 231.982 521.117,236.006 520.005,237.882 519.485 C 239.759 518.965,241.982 518.350,242.824 518.118 C 243.665 517.886,245.888 517.270,247.765 516.751 C 249.641 516.231,253.665 515.117,256.706 514.275 C 259.747 513.434,264.776 512.035,267.882 511.168 C 270.988 510.300,274.218 509.402,275.059 509.173 C 278.516 508.228,309.937 499.517,317.647 497.365 C 319.524 496.842,321.376 496.332,321.765 496.233 C 324.865 495.438,332.145 493.347,332.256 493.219 C 332.332 493.131,332.628 490.412,332.915 487.176 C 333.201 483.941,333.638 479.018,333.886 476.235 C 334.134 473.453,334.609 468.106,334.941 464.353 C 335.273 460.600,335.751 455.253,336.003 452.471 C 336.256 449.688,336.730 444.341,337.057 440.588 C 337.384 436.835,337.756 432.706,337.885 431.412 C 338.013 430.118,338.329 426.624,338.585 423.647 C 339.388 414.342,339.739 410.364,340.110 406.353 C 340.567 401.414,341.234 393.977,341.997 385.294 C 342.327 381.541,342.803 376.194,343.055 373.412 C 343.308 370.629,343.786 365.282,344.117 361.529 C 344.449 357.776,344.874 353.012,345.062 350.941 C 345.250 348.871,345.673 344.106,346.003 340.353 C 346.333 336.600,346.756 331.888,346.943 329.882 C 347.131 327.876,347.554 323.165,347.885 319.412 C 348.215 315.659,348.691 310.312,348.942 307.529 C 349.194 304.747,349.610 300.088,349.868 297.176 C 350.125 294.265,350.608 288.812,350.940 285.059 C 351.273 281.306,351.749 275.959,352.000 273.176 C 352.251 270.394,352.726 265.047,353.056 261.294 C 353.386 257.541,353.806 252.882,353.990 250.941 C 354.174 249.000,354.388 246.618,354.466 245.647 C 354.543 244.676,354.759 242.241,354.946 240.235 C 355.132 238.229,355.554 233.518,355.885 229.765 C 356.662 220.929,357.567 210.752,357.998 206.000 C 358.185 203.929,358.610 199.165,358.942 195.412 C 359.273 191.659,359.751 186.312,360.003 183.529 C 360.256 180.747,360.730 175.400,361.058 171.647 C 361.385 167.894,361.804 163.235,361.989 161.294 C 362.173 159.353,362.388 156.971,362.466 156.000 C 362.659 153.584,363.267 146.955,363.420 145.588 L 363.546 144.471 281.773 144.471 L 200.000 144.471 200.000 169.412 M199.943 270.236 L 199.882 295.766 232.824 295.707 L 265.765 295.647 266.047 292.353 C 266.202 290.541,266.543 286.676,266.805 283.765 C 267.067 280.853,267.502 275.982,267.770 272.941 C 268.039 269.900,268.461 265.188,268.708 262.471 C 268.955 259.753,269.221 256.682,269.299 255.647 C 269.440 253.769,270.019 247.602,270.232 245.706 L 270.344 244.706 235.174 244.706 L 200.004 244.706 199.943 270.236 M199.943 386.000 C 199.909 407.935,199.898 425.882,199.916 425.882 C 199.935 425.882,200.623 425.676,201.446 425.423 C 202.268 425.171,203.365 424.863,203.882 424.739 C 205.014 424.469,206.906 423.962,212.824 422.343 C 215.282 421.670,217.824 420.983,218.471 420.815 C 220.328 420.335,222.830 419.661,227.647 418.343 C 230.106 417.670,232.647 416.984,233.294 416.818 C 233.941 416.652,237.276 415.754,240.706 414.823 C 244.135 413.891,247.682 412.933,248.588 412.693 C 252.694 411.607,255.337 410.859,255.441 410.756 C 255.564 410.632,255.957 406.783,256.695 398.471 C 256.960 395.494,257.339 391.259,257.538 389.059 C 257.736 386.859,258.001 383.894,258.126 382.471 C 258.251 381.047,258.567 377.500,258.828 374.588 C 259.089 371.676,259.517 366.912,259.777 364.000 C 260.629 354.477,261.178 348.373,261.285 347.235 L 261.390 346.118 230.696 346.118 L 200.003 346.118 199.943 386.000 " stroke="none" fill="#2b63f3" fill-rule="evenodd"></path><path id="path4" d="M74.391 195.235 C 74.428 196.104,74.430 196.106,74.523 195.353 L 74.618 194.588 199.880 194.588 C 318.979 194.588,325.147 194.608,325.250 195.000 C 325.331 195.310,325.364 195.281,325.384 194.882 L 325.412 194.353 199.882 194.353 L 74.353 194.353 74.391 195.235 M74.648 197.529 C 74.650 198.047,74.698 198.231,74.755 197.938 C 74.811 197.646,74.809 197.222,74.750 196.997 C 74.691 196.772,74.645 197.012,74.648 197.529 M324.760 199.765 C 324.760 200.218,324.809 200.403,324.868 200.176 C 324.927 199.950,324.927 199.579,324.868 199.353 C 324.809 199.126,324.760 199.312,324.760 199.765 M324.538 202.471 C 324.540 203.118,324.585 203.354,324.639 202.997 C 324.694 202.639,324.692 202.110,324.636 201.820 C 324.580 201.531,324.536 201.824,324.538 202.471 M75.358 205.176 C 75.358 205.759,75.404 205.997,75.460 205.706 C 75.516 205.415,75.516 204.938,75.460 204.647 C 75.404 204.356,75.358 204.594,75.358 205.176 M324.295 205.294 C 324.297 205.812,324.345 205.996,324.402 205.703 C 324.458 205.410,324.456 204.987,324.397 204.762 C 324.338 204.537,324.292 204.776,324.295 205.294 M75.593 207.765 C 75.593 208.347,75.639 208.585,75.695 208.294 C 75.752 208.003,75.752 207.526,75.695 207.235 C 75.639 206.944,75.593 207.182,75.593 207.765 M323.597 213.059 C 323.598 213.706,323.644 213.943,323.698 213.585 C 323.752 213.227,323.751 212.698,323.695 212.409 C 323.639 212.119,323.595 212.412,323.597 213.059 M76.299 215.529 C 76.299 216.112,76.345 216.350,76.401 216.059 C 76.457 215.768,76.457 215.291,76.401 215.000 C 76.345 214.709,76.299 214.947,76.299 215.529 M323.353 215.882 C 323.356 216.400,323.404 216.584,323.461 216.291 C 323.517 215.999,323.515 215.575,323.456 215.350 C 323.397 215.125,323.351 215.365,323.353 215.882 M76.538 218.235 C 76.540 218.882,76.585 219.119,76.639 218.761 C 76.694 218.404,76.692 217.874,76.636 217.585 C 76.580 217.296,76.536 217.588,76.538 218.235 M76.760 220.941 C 76.760 221.394,76.809 221.579,76.868 221.353 C 76.927 221.126,76.927 220.756,76.868 220.529 C 76.809 220.303,76.760 220.488,76.760 220.941 M322.656 223.647 C 322.657 224.294,322.703 224.531,322.757 224.173 C 322.811 223.816,322.810 223.286,322.754 222.997 C 322.698 222.707,322.654 223.000,322.656 223.647 M77.236 225.765 C 77.238 226.282,77.287 226.466,77.343 226.174 C 77.399 225.881,77.397 225.458,77.338 225.233 C 77.279 225.008,77.233 225.247,77.236 225.765 M322.417 226.353 C 322.417 226.935,322.463 227.174,322.519 226.882 C 322.575 226.591,322.575 226.115,322.519 225.824 C 322.463 225.532,322.417 225.771,322.417 226.353 M77.479 228.588 C 77.481 229.235,77.527 229.472,77.581 229.114 C 77.635 228.757,77.633 228.227,77.577 227.938 C 77.522 227.649,77.477 227.941,77.479 228.588 M77.702 231.294 C 77.702 231.747,77.750 231.932,77.809 231.706 C 77.868 231.479,77.868 231.109,77.809 230.882 C 77.750 230.656,77.702 230.841,77.702 231.294 M321.711 234.118 C 321.711 234.700,321.757 234.938,321.813 234.647 C 321.869 234.356,321.869 233.879,321.813 233.588 C 321.757 233.297,321.711 233.535,321.711 234.118 M321.479 236.824 C 321.481 237.471,321.527 237.707,321.581 237.350 C 321.635 236.992,321.633 236.463,321.577 236.173 C 321.522 235.884,321.477 236.176,321.479 236.824 M78.420 238.941 C 78.422 239.588,78.468 239.825,78.522 239.467 C 78.576 239.110,78.574 238.580,78.519 238.291 C 78.463 238.001,78.418 238.294,78.420 238.941 M321.231 239.529 C 321.231 239.982,321.279 240.168,321.339 239.941 C 321.398 239.715,321.398 239.344,321.339 239.118 C 321.279 238.891,321.231 239.076,321.231 239.529 M78.648 241.529 C 78.650 242.047,78.698 242.231,78.755 241.938 C 78.811 241.646,78.809 241.222,78.750 240.997 C 78.691 240.772,78.645 241.012,78.648 241.529 M78.903 244.000 L 78.941 244.588 174.588 244.589 L 270.235 244.589 174.663 244.530 L 79.091 244.470 78.978 243.941 C 78.878 243.475,78.869 243.482,78.903 244.000 M320.760 244.471 C 320.760 244.924,320.809 245.109,320.868 244.882 C 320.927 244.656,320.927 244.285,320.868 244.059 C 320.809 243.832,320.760 244.018,320.760 244.471 M270.172 246.118 C 270.172 246.571,270.221 246.756,270.280 246.529 C 270.339 246.303,270.339 245.932,270.280 245.706 C 270.221 245.479,270.172 245.665,270.172 246.118 M320.538 247.412 C 320.540 248.059,320.585 248.296,320.639 247.938 C 320.694 247.580,320.692 247.051,320.636 246.761 C 320.580 246.472,320.536 246.765,320.538 247.412 M320.290 250.118 C 320.290 250.571,320.338 250.756,320.397 250.529 C 320.457 250.303,320.457 249.932,320.397 249.706 C 320.338 249.479,320.290 249.665,320.290 250.118 M269.702 251.059 C 269.702 251.512,269.750 251.697,269.809 251.471 C 269.868 251.244,269.868 250.874,269.809 250.647 C 269.750 250.421,269.702 250.606,269.702 251.059 M269.479 253.765 C 269.481 254.412,269.527 254.649,269.581 254.291 C 269.635 253.933,269.633 253.404,269.577 253.114 C 269.522 252.825,269.477 253.118,269.479 253.765 M269.236 256.588 C 269.238 257.106,269.287 257.290,269.343 256.997 C 269.399 256.705,269.397 256.281,269.338 256.056 C 269.279 255.831,269.233 256.071,269.236 256.588 M319.597 258.000 C 319.598 258.647,319.644 258.884,319.698 258.526 C 319.752 258.169,319.751 257.639,319.695 257.350 C 319.639 257.060,319.595 257.353,319.597 258.000 M319.349 260.706 C 319.349 261.159,319.397 261.344,319.456 261.118 C 319.515 260.891,319.515 260.521,319.456 260.294 C 319.397 260.068,319.349 260.253,319.349 260.706 M268.535 264.471 C 268.535 265.053,268.581 265.291,268.637 265.000 C 268.693 264.709,268.693 264.232,268.637 263.941 C 268.581 263.650,268.535 263.888,268.535 264.471 M268.303 267.176 C 268.304 267.824,268.350 268.060,268.404 267.703 C 268.458 267.345,268.457 266.816,268.401 266.526 C 268.345 266.237,268.301 266.529,268.303 267.176 M318.652 268.471 C 318.652 269.053,318.698 269.291,318.754 269.000 C 318.810 268.709,318.810 268.232,318.754 267.941 C 318.698 267.650,318.652 267.888,318.652 268.471 M318.417 271.294 C 318.417 271.876,318.463 272.115,318.519 271.824 C 318.575 271.532,318.575 271.056,318.519 270.765 C 318.463 270.474,318.417 270.712,318.417 271.294 M267.589 274.941 C 267.591 275.459,267.640 275.643,267.696 275.350 C 267.752 275.058,267.750 274.634,267.691 274.409 C 267.632 274.184,267.586 274.424,267.589 274.941 M267.361 277.765 C 267.363 278.412,267.409 278.649,267.463 278.291 C 267.517 277.933,267.516 277.404,267.460 277.114 C 267.404 276.825,267.360 277.118,267.361 277.765 M317.711 279.059 C 317.711 279.641,317.757 279.879,317.813 279.588 C 317.869 279.297,317.869 278.821,317.813 278.529 C 317.757 278.238,317.711 278.476,317.711 279.059 M317.479 281.765 C 317.481 282.412,317.527 282.649,317.581 282.291 C 317.635 281.933,317.633 281.404,317.577 281.114 C 317.522 280.825,317.477 281.118,317.479 281.765 M317.231 284.471 C 317.231 284.924,317.279 285.109,317.339 284.882 C 317.398 284.656,317.398 284.285,317.339 284.059 C 317.279 283.832,317.231 284.018,317.231 284.471 M266.643 285.412 C 266.643 285.865,266.691 286.050,266.750 285.824 C 266.810 285.597,266.810 285.226,266.750 285.000 C 266.691 284.774,266.643 284.959,266.643 285.412 M266.420 288.353 C 266.422 289.000,266.468 289.237,266.522 288.879 C 266.576 288.521,266.574 287.992,266.519 287.703 C 266.463 287.413,266.418 287.706,266.420 288.353 M316.760 289.412 C 316.760 289.865,316.809 290.050,316.868 289.824 C 316.927 289.597,316.927 289.226,316.868 289.000 C 316.809 288.774,316.760 288.959,316.760 289.412 M266.172 291.059 C 266.172 291.512,266.221 291.697,266.280 291.471 C 266.339 291.244,266.339 290.874,266.280 290.647 C 266.221 290.421,266.172 290.606,266.172 291.059 M316.538 292.353 C 316.540 293.000,316.585 293.237,316.639 292.879 C 316.694 292.521,316.692 291.992,316.636 291.703 C 316.580 291.413,316.536 291.706,316.538 292.353 M316.290 295.059 C 316.290 295.512,316.338 295.697,316.397 295.471 C 316.457 295.244,316.457 294.874,316.397 294.647 C 316.338 294.421,316.290 294.606,316.290 295.059 M83.451 295.922 C 83.365 296.008,83.296 296.193,83.298 296.333 C 83.300 296.485,83.377 296.469,83.488 296.295 C 83.636 296.061,95.654 295.989,141.778 295.941 L 199.882 295.881 141.745 295.823 C 109.770 295.791,83.537 295.835,83.451 295.922 M83.593 298.118 C 83.593 298.700,83.639 298.938,83.695 298.647 C 83.752 298.356,83.752 297.879,83.695 297.588 C 83.639 297.297,83.593 297.535,83.593 298.118 M315.597 302.706 C 315.598 303.353,315.644 303.590,315.698 303.232 C 315.752 302.874,315.751 302.345,315.695 302.056 C 315.639 301.766,315.595 302.059,315.597 302.706 M315.353 305.294 C 315.356 305.812,315.404 305.996,315.461 305.703 C 315.517 305.410,315.515 304.987,315.456 304.762 C 315.397 304.537,315.351 304.776,315.353 305.294 M84.299 305.882 C 84.299 306.465,84.345 306.703,84.401 306.412 C 84.457 306.121,84.457 305.644,84.401 305.353 C 84.345 305.062,84.299 305.300,84.299 305.882 M84.538 308.588 C 84.540 309.235,84.585 309.472,84.639 309.114 C 84.694 308.757,84.692 308.227,84.636 307.938 C 84.580 307.649,84.536 307.941,84.538 308.588 M84.760 311.294 C 84.760 311.747,84.809 311.932,84.868 311.706 C 84.927 311.479,84.927 311.109,84.868 310.882 C 84.809 310.656,84.760 310.841,84.760 311.294 M314.656 313.059 C 314.657 313.706,314.703 313.943,314.757 313.585 C 314.811 313.227,314.810 312.698,314.754 312.409 C 314.698 312.119,314.654 312.412,314.656 313.059 M314.417 315.765 C 314.417 316.347,314.463 316.585,314.519 316.294 C 314.575 316.003,314.575 315.526,314.519 315.235 C 314.463 314.944,314.417 315.182,314.417 315.765 M85.231 316.235 C 85.231 316.688,85.279 316.874,85.339 316.647 C 85.398 316.421,85.398 316.050,85.339 315.824 C 85.279 315.597,85.231 315.782,85.231 316.235 M85.479 318.941 C 85.481 319.588,85.527 319.825,85.581 319.467 C 85.635 319.110,85.633 318.580,85.577 318.291 C 85.522 318.001,85.477 318.294,85.479 318.941 M85.702 321.882 C 85.702 322.335,85.750 322.521,85.809 322.294 C 85.868 322.068,85.868 321.697,85.809 321.471 C 85.750 321.244,85.702 321.429,85.702 321.882 M313.711 323.529 C 313.711 324.112,313.757 324.350,313.813 324.059 C 313.869 323.768,313.869 323.291,313.813 323.000 C 313.757 322.709,313.711 322.947,313.711 323.529 M313.476 326.353 C 313.476 326.935,313.522 327.174,313.578 326.882 C 313.634 326.591,313.634 326.115,313.578 325.824 C 313.522 325.532,313.476 325.771,313.476 326.353 M86.420 329.529 C 86.422 330.176,86.468 330.413,86.522 330.056 C 86.576 329.698,86.574 329.169,86.519 328.879 C 86.463 328.590,86.418 328.882,86.420 329.529 M86.652 332.235 C 86.652 332.818,86.698 333.056,86.754 332.765 C 86.810 332.474,86.810 331.997,86.754 331.706 C 86.698 331.415,86.652 331.653,86.652 332.235 M312.760 333.882 C 312.760 334.335,312.809 334.521,312.868 334.294 C 312.927 334.068,312.927 333.697,312.868 333.471 C 312.809 333.244,312.760 333.429,312.760 333.882 M312.538 336.824 C 312.540 337.471,312.585 337.707,312.639 337.350 C 312.694 336.992,312.692 336.463,312.636 336.173 C 312.580 335.884,312.536 336.176,312.538 336.824 M312.290 339.529 C 312.290 339.982,312.338 340.168,312.397 339.941 C 312.457 339.715,312.457 339.344,312.397 339.118 C 312.338 338.891,312.290 339.076,312.290 339.529 M87.358 340.000 C 87.358 340.582,87.404 340.821,87.460 340.529 C 87.516 340.238,87.516 339.762,87.460 339.471 C 87.404 339.179,87.358 339.418,87.358 340.000 M87.597 342.706 C 87.598 343.353,87.644 343.590,87.698 343.232 C 87.752 342.874,87.751 342.345,87.695 342.056 C 87.639 341.766,87.595 342.059,87.597 342.706 M87.860 345.412 L 87.882 346.000 174.706 346.000 L 261.529 346.001 174.780 345.941 L 88.031 345.882 87.934 345.353 C 87.850 344.893,87.840 344.901,87.860 345.412 M311.597 347.412 C 311.598 348.059,311.644 348.296,311.698 347.938 C 311.752 347.580,311.751 347.051,311.695 346.761 C 311.639 346.472,311.595 346.765,311.597 347.412 M261.241 347.765 C 261.241 348.347,261.286 348.585,261.343 348.294 C 261.399 348.003,261.399 347.526,261.343 347.235 C 261.286 346.944,261.241 347.182,261.241 347.765 M311.349 350.118 C 311.349 350.571,311.397 350.756,311.456 350.529 C 311.515 350.303,311.515 349.932,311.456 349.706 C 311.397 349.479,311.349 349.665,311.349 350.118 M260.535 355.529 C 260.535 356.112,260.581 356.350,260.637 356.059 C 260.693 355.768,260.693 355.291,260.637 355.000 C 260.581 354.709,260.535 354.947,260.535 355.529 M310.652 357.882 C 310.652 358.465,310.698 358.703,310.754 358.412 C 310.810 358.121,310.810 357.644,310.754 357.353 C 310.698 357.062,310.652 357.300,310.652 357.882 M260.303 358.235 C 260.304 358.882,260.350 359.119,260.404 358.761 C 260.458 358.404,260.457 357.874,260.401 357.585 C 260.345 357.296,260.301 357.588,260.303 358.235 M310.417 360.706 C 310.417 361.288,310.463 361.526,310.519 361.235 C 310.575 360.944,310.575 360.468,310.519 360.176 C 310.463 359.885,310.417 360.124,310.417 360.706 M259.589 366.000 C 259.591 366.518,259.640 366.702,259.696 366.409 C 259.752 366.116,259.750 365.693,259.691 365.468 C 259.632 365.243,259.586 365.482,259.589 366.000 M309.711 368.471 C 309.711 369.053,309.757 369.291,309.813 369.000 C 309.869 368.709,309.869 368.232,309.813 367.941 C 309.757 367.650,309.711 367.888,309.711 368.471 M259.361 368.824 C 259.363 369.471,259.409 369.707,259.463 369.350 C 259.517 368.992,259.516 368.463,259.460 368.173 C 259.404 367.884,259.360 368.176,259.361 368.824 M309.479 371.176 C 309.481 371.824,309.527 372.060,309.581 371.703 C 309.635 371.345,309.633 370.816,309.577 370.526 C 309.522 370.237,309.477 370.529,309.479 371.176 M90.150 371.471 C 90.177 372.024,90.197 372.041,90.284 371.589 L 90.385 371.061 115.487 371.000 L 140.588 370.939 115.353 370.881 L 90.118 370.824 90.150 371.471 M140.538 372.353 C 140.540 373.000,140.585 373.237,140.639 372.879 C 140.694 372.521,140.692 371.992,140.636 371.703 C 140.580 371.413,140.536 371.706,140.538 372.353 M90.420 374.235 C 90.422 374.882,90.468 375.119,90.522 374.761 C 90.576 374.404,90.574 373.874,90.519 373.585 C 90.463 373.296,90.418 373.588,90.420 374.235 M309.231 373.882 C 309.231 374.335,309.279 374.521,309.339 374.294 C 309.398 374.068,309.398 373.697,309.339 373.471 C 309.279 373.244,309.231 373.429,309.231 373.882 M140.760 375.294 C 140.760 375.747,140.809 375.932,140.868 375.706 C 140.927 375.479,140.927 375.109,140.868 374.882 C 140.809 374.656,140.760 374.841,140.760 375.294 M258.643 376.471 C 258.643 376.924,258.691 377.109,258.750 376.882 C 258.810 376.656,258.810 376.285,258.750 376.059 C 258.691 375.832,258.643 376.018,258.643 376.471 M90.648 377.059 C 90.650 377.576,90.698 377.761,90.755 377.468 C 90.811 377.175,90.809 376.752,90.750 376.527 C 90.691 376.302,90.645 376.541,90.648 377.059 M308.760 378.824 C 308.760 379.276,308.809 379.462,308.868 379.235 C 308.927 379.009,308.927 378.638,308.868 378.412 C 308.809 378.185,308.760 378.371,308.760 378.824 M258.417 379.294 C 258.417 379.876,258.463 380.115,258.519 379.824 C 258.575 379.532,258.575 379.056,258.519 378.765 C 258.463 378.474,258.417 378.712,258.417 379.294 M141.231 380.235 C 141.231 380.688,141.279 380.874,141.339 380.647 C 141.398 380.421,141.398 380.050,141.339 379.824 C 141.279 379.597,141.231 379.782,141.231 380.235 M308.538 381.765 C 308.540 382.412,308.585 382.649,308.639 382.291 C 308.694 381.933,308.692 381.404,308.636 381.114 C 308.580 380.825,308.536 381.118,308.538 381.765 M258.172 382.118 C 258.172 382.571,258.221 382.756,258.280 382.529 C 258.339 382.303,258.339 381.932,258.280 381.706 C 258.221 381.479,258.172 381.665,258.172 382.118 M141.479 382.941 C 141.481 383.588,141.527 383.825,141.581 383.467 C 141.635 383.110,141.633 382.580,141.577 382.291 C 141.522 382.001,141.477 382.294,141.479 382.941 M91.361 384.824 C 91.363 385.471,91.409 385.707,91.463 385.350 C 91.517 384.992,91.516 384.463,91.460 384.173 C 91.404 383.884,91.360 384.176,91.361 384.824 M308.290 384.471 C 308.290 384.924,308.338 385.109,308.397 384.882 C 308.457 384.656,308.457 384.285,308.397 384.059 C 308.338 383.832,308.290 384.018,308.290 384.471 M141.706 385.765 C 141.709 386.282,141.757 386.466,141.813 386.174 C 141.870 385.881,141.868 385.458,141.809 385.233 C 141.750 385.008,141.704 385.247,141.706 385.765 M257.702 387.059 C 257.702 387.512,257.750 387.697,257.809 387.471 C 257.868 387.244,257.868 386.874,257.809 386.647 C 257.750 386.421,257.702 386.606,257.702 387.059 M91.593 387.529 C 91.593 388.112,91.639 388.350,91.695 388.059 C 91.752 387.768,91.752 387.291,91.695 387.000 C 91.639 386.709,91.593 386.947,91.593 387.529 M257.479 389.765 C 257.481 390.412,257.527 390.649,257.581 390.291 C 257.635 389.933,257.633 389.404,257.577 389.114 C 257.522 388.825,257.477 389.118,257.479 389.765 M307.597 392.118 C 307.598 392.765,307.644 393.001,307.698 392.644 C 307.752 392.286,307.751 391.757,307.695 391.467 C 307.639 391.178,307.595 391.471,307.597 392.118 M257.241 392.471 C 257.241 393.053,257.286 393.291,257.343 393.000 C 257.399 392.709,257.399 392.232,257.343 391.941 C 257.286 391.650,257.241 391.888,257.241 392.471 M142.420 393.529 C 142.422 394.176,142.468 394.413,142.522 394.056 C 142.576 393.698,142.574 393.169,142.519 392.879 C 142.463 392.590,142.418 392.882,142.420 393.529 M307.353 394.941 C 307.356 395.459,307.404 395.643,307.461 395.350 C 307.517 395.058,307.515 394.634,307.456 394.409 C 307.397 394.184,307.351 394.424,307.353 394.941 M92.299 395.294 C 92.299 395.876,92.345 396.115,92.401 395.824 C 92.457 395.532,92.457 395.056,92.401 394.765 C 92.345 394.474,92.299 394.712,92.299 395.294 M142.652 396.235 C 142.652 396.818,142.698 397.056,142.754 396.765 C 142.810 396.474,142.810 395.997,142.754 395.706 C 142.698 395.415,142.652 395.653,142.652 396.235 M92.538 398.000 C 92.540 398.647,92.585 398.884,92.639 398.526 C 92.694 398.169,92.692 397.639,92.636 397.350 C 92.580 397.060,92.536 397.353,92.538 398.000 M256.760 397.647 C 256.760 398.100,256.809 398.285,256.868 398.059 C 256.927 397.832,256.927 397.462,256.868 397.235 C 256.809 397.009,256.760 397.194,256.760 397.647 M256.535 400.235 C 256.535 400.818,256.581 401.056,256.637 400.765 C 256.693 400.474,256.693 399.997,256.637 399.706 C 256.581 399.415,256.535 399.653,256.535 400.235 M306.656 402.706 C 306.657 403.353,306.703 403.590,306.757 403.232 C 306.811 402.874,306.810 402.345,306.754 402.056 C 306.698 401.766,306.654 402.059,306.656 402.706 M256.303 402.941 C 256.304 403.588,256.350 403.825,256.404 403.467 C 256.458 403.110,256.457 402.580,256.401 402.291 C 256.345 402.001,256.301 402.294,256.303 402.941 M143.358 404.000 C 143.358 404.582,143.404 404.821,143.460 404.529 C 143.516 404.238,143.516 403.762,143.460 403.471 C 143.404 403.179,143.358 403.418,143.358 404.000 M306.417 405.412 C 306.417 405.994,306.463 406.232,306.519 405.941 C 306.575 405.650,306.575 405.174,306.519 404.882 C 306.463 404.591,306.417 404.829,306.417 405.412 M93.236 405.765 C 93.238 406.282,93.287 406.466,93.343 406.174 C 93.399 405.881,93.397 405.458,93.338 405.233 C 93.279 405.008,93.233 405.247,93.236 405.765 M143.597 406.706 C 143.598 407.353,143.644 407.590,143.698 407.232 C 143.752 406.874,143.751 406.345,143.695 406.056 C 143.639 405.766,143.595 406.059,143.597 406.706 M93.479 408.588 C 93.481 409.235,93.527 409.472,93.581 409.114 C 93.635 408.757,93.633 408.227,93.577 407.938 C 93.522 407.649,93.477 407.941,93.479 408.588 M255.548 410.275 C 255.538 410.555,255.397 410.838,255.235 410.903 C 255.005 410.996,255.007 411.026,255.243 411.040 C 255.600 411.062,255.860 410.494,255.688 410.067 C 255.621 409.901,255.558 409.994,255.548 410.275 M93.702 411.294 C 93.702 411.747,93.750 411.932,93.809 411.706 C 93.868 411.479,93.868 411.109,93.809 410.882 C 93.750 410.656,93.702 410.841,93.702 411.294 M305.711 413.176 C 305.711 413.759,305.757 413.997,305.813 413.706 C 305.869 413.415,305.869 412.938,305.813 412.647 C 305.757 412.356,305.711 412.594,305.711 413.176 M305.476 416.000 C 305.476 416.582,305.522 416.821,305.578 416.529 C 305.634 416.238,305.634 415.762,305.578 415.471 C 305.522 415.179,305.476 415.418,305.476 416.000 M94.172 416.235 C 94.172 416.688,94.221 416.874,94.280 416.647 C 94.339 416.421,94.339 416.050,94.280 415.824 C 94.221 415.597,94.172 415.782,94.172 416.235 M305.231 418.588 C 305.231 419.041,305.279 419.226,305.339 419.000 C 305.398 418.774,305.398 418.403,305.339 418.176 C 305.279 417.950,305.231 418.135,305.231 418.588 M94.420 419.176 C 94.422 419.824,94.468 420.060,94.522 419.703 C 94.576 419.345,94.574 418.816,94.519 418.526 C 94.463 418.237,94.418 418.529,94.420 419.176 M94.648 421.765 C 94.650 422.282,94.698 422.466,94.755 422.174 C 94.811 421.881,94.809 421.458,94.750 421.233 C 94.691 421.008,94.645 421.247,94.648 421.765 M304.760 423.529 C 304.760 423.982,304.809 424.168,304.868 423.941 C 304.927 423.715,304.927 423.344,304.868 423.118 C 304.809 422.891,304.760 423.076,304.760 423.529 M304.538 426.471 C 304.540 427.118,304.585 427.354,304.639 426.997 C 304.694 426.639,304.692 426.110,304.636 425.820 C 304.580 425.531,304.536 425.824,304.538 426.471 M95.113 426.824 C 95.113 427.276,95.162 427.462,95.221 427.235 C 95.280 427.009,95.280 426.638,95.221 426.412 C 95.162 426.185,95.113 426.371,95.113 426.824 M304.290 429.176 C 304.290 429.629,304.338 429.815,304.397 429.588 C 304.457 429.362,304.457 428.991,304.397 428.765 C 304.338 428.538,304.290 428.724,304.290 429.176 M95.358 429.647 C 95.358 430.229,95.404 430.468,95.460 430.176 C 95.516 429.885,95.516 429.409,95.460 429.118 C 95.404 428.826,95.358 429.065,95.358 429.647 M95.593 432.235 C 95.593 432.818,95.639 433.056,95.695 432.765 C 95.752 432.474,95.752 431.997,95.695 431.706 C 95.639 431.415,95.593 431.653,95.593 432.235 M95.819 435.059 C 95.819 435.512,95.868 435.697,95.927 435.471 C 95.986 435.244,95.986 434.874,95.927 434.647 C 95.868 434.421,95.819 434.606,95.819 435.059 M303.597 437.059 C 303.598 437.706,303.644 437.943,303.698 437.585 C 303.752 437.227,303.751 436.698,303.695 436.409 C 303.639 436.119,303.595 436.412,303.597 437.059 M303.353 439.647 C 303.356 440.165,303.404 440.349,303.461 440.056 C 303.517 439.763,303.515 439.340,303.456 439.115 C 303.397 438.890,303.351 439.129,303.353 439.647 M96.295 440.118 C 96.297 440.635,96.345 440.819,96.402 440.527 C 96.458 440.234,96.456 439.810,96.397 439.585 C 96.338 439.361,96.292 439.600,96.295 440.118 M96.535 442.824 C 96.535 443.406,96.581 443.644,96.637 443.353 C 96.693 443.062,96.693 442.585,96.637 442.294 C 96.581 442.003,96.535 442.241,96.535 442.824 M96.760 445.647 C 96.760 446.100,96.809 446.285,96.868 446.059 C 96.927 445.832,96.927 445.462,96.868 445.235 C 96.809 445.009,96.760 445.194,96.760 445.647 M302.652 447.529 C 302.652 448.112,302.698 448.350,302.754 448.059 C 302.810 447.768,302.810 447.291,302.754 447.000 C 302.698 446.709,302.652 446.947,302.652 447.529 M98.706 450.118 C 98.965 450.229,99.335 450.320,99.529 450.320 C 99.752 450.320,99.708 450.245,99.412 450.118 C 99.153 450.006,98.782 449.915,98.588 449.915 C 98.366 449.915,98.409 449.990,98.706 450.118 " stroke="none" fill="#7093ec" fill-rule="evenodd"></path></g></svg>