<svg version="1.1" id="Camada_1" xmlns="http://www.w3.org/2000/svg" xmlns:xlink="http://www.w3.org/1999/xlink" x="0px" y="0px"
	 viewBox="0 0 461 379" style="enable-background:new 0 0 461 379;" xml:space="preserve">
<style type="text/css">
	.st0{fill:#FF8A13;}
	.st1{fill:#FCBA07;}
	.st2{fill:#FE5000;}
	.st3{fill:#FFFFFF;}
	.st4{fill:#232323;}
	.st5{opacity:0.2;fill:#2B343E;enable-background:new    ;}
	.st6{fill:url(#SVGID_1_);}
	.st7{fill:url(#SVGID_2_);}
	.st8{fill:url(#SVGID_3_);}
	.st9{fill:url(#SVGID_4_);}
	.st10{opacity:0.1;fill:#2B343E;enable-background:new    ;}
	.st11{fill:url(#SVGID_5_);}
	.st12{fill:url(#SVGID_6_);}
	.st13{fill:url(#SVGID_7_);}
	.st14{fill:url(#SVGID_8_);}
	.st15{fill:url(#SVGID_9_);}
	.st16{fill:url(#SVGID_10_);}
	.st17{fill:url(#SVGID_11_);}
	.st18{fill:url(#SVGID_12_);}
	.st19{fill:url(#SVGID_13_);}
	.st20{fill:url(#SVGID_14_);}
	.st21{fill:url(#SVGID_15_);}
	.st22{fill:#B57245;}
	.st23{fill:#282828;}
	.st24{fill:#515151;}
	.st25{fill:#606060;}
	.st26{fill:url(#SVGID_16_);}
	.st27{fill:#FF6A13;}
	.st28{fill:#FF7639;}
	.st29{opacity:0.15;fill:url(#SVGID_17_);enable-background:new    ;}
	.st30{fill:#FDD1B1;}
	.st31{fill:#FFB600;}
	.st32{opacity:0.15;fill:url(#SVGID_18_);enable-background:new    ;}
	.st33{fill:#8B8B8B;}
	.st34{fill:#B7B6B6;}
	.st35{fill:#CCCCCC;}
	.st36{fill:url(#SVGID_19_);}
	.st37{fill:#63300D;}
	.st38{fill:url(#SVGID_20_);}
	.st39{fill:url(#SVGID_21_);}
	.st40{fill:url(#SVGID_22_);}
	.st41{fill:url(#SVGID_23_);}
	.st42{fill:url(#SVGID_24_);}
	.st43{fill:url(#SVGID_25_);}
	.st44{fill:#728EFC;}
	.st45{fill:url(#SVGID_26_);}
	.st46{fill:url(#SVGID_27_);}
	.st47{fill:url(#SVGID_28_);}
	.st48{fill:url(#SVGID_29_);}
	.st49{opacity:0.15;fill:url(#SVGID_30_);enable-background:new    ;}
	.st50{fill:url(#SVGID_31_);}
	.st51{opacity:0.15;fill:url(#SVGID_32_);enable-background:new    ;}
	.st52{fill:url(#SVGID_33_);}
	.st53{fill:#FF6A00;}
	.st54{opacity:0.38;fill:#F5F5F5;enable-background:new    ;}
	.st55{fill:#686868;}
	.st56{opacity:0.1;fill:#686868;enable-background:new    ;}
	.st57{fill:none;}
	.st58{fill:url(#SVGID_34_);}
	.st59{opacity:0.3;fill:url(#SVGID_35_);enable-background:new    ;}
	.st60{opacity:0.28;fill:url(#SVGID_36_);enable-background:new    ;}
	.st61{opacity:0.3;fill:url(#SVGID_37_);enable-background:new    ;}
	.st62{opacity:0.38;fill:url(#SVGID_38_);enable-background:new    ;}
	.st63{fill:url(#SVGID_39_);}
	.st64{opacity:0.3;fill:url(#SVGID_40_);enable-background:new    ;}
	.st65{fill:url(#SVGID_41_);}
	.st66{opacity:0.3;fill:url(#SVGID_42_);enable-background:new    ;}
	.st67{opacity:0.2;fill:url(#SVGID_43_);enable-background:new    ;}
</style>
<path class="st0" d="M51.8,259.3c-0.8,3.3,11.6,3.5,11.6,3.5S53.1,253.9,51.8,259.3z"/>
<path class="st0" d="M60.7,267.4c0.2-1.9,6.1-2.5,11.7-0.1c-2,0.6-4,1.4-6,2.3C64.2,270.6,60.3,270.2,60.7,267.4z"/>
<path class="st0" d="M94.4,290.2c-15.4-21.7-32.1-27.8-32.3-27.8l0.1-0.4c0.2,0.1,17.7,5.5,33.2,27.3L94.4,290.2z"/>
<path class="st0" d="M68.8,256.1c-1.7,1.5,4.5,11.7,4.5,11.7c0.7-2.5,1.1-5.1,1-7.7C74,256.7,70.4,254.6,68.8,256.1z"/>
<path class="st0" d="M80.4,273.2c0,0-8.6-2.5-12,1.3S73.8,278.2,80.4,273.2z"/>
<path class="st0" d="M86.9,279.8c0,0-11.3-2.9-12.6,2.6S86.9,279.8,86.9,279.8z"/>
<path class="st0" d="M90.4,283.2c0,0,3.8-9.4-1.1-13.1S86.4,279.6,90.4,283.2z"/>
<path class="st0" d="M80.9,274.5c0,0,4.4-9.1-0.3-13.1S77.2,270.6,80.9,274.5z"/>
<path class="st1" d="M62.5,334.9c1.6,3,11-5.1,11-5.1S60,330.1,62.5,334.9z"/>
<path class="st1" d="M74.6,335.1c-1.1-1.5,2.8-5.9,8.6-7.9c-1.1,1.8-2.1,3.7-3,5.7C79.3,335.1,76.2,337.4,74.6,335.1z"/>
<path class="st1" d="M114.9,329.6c-25.9-5.9-42.5,0.8-42.6,0.9l-0.2-0.4c0.2-0.1,16.8-7.8,42.9-1.8L114.9,329.6z"/>
<path class="st1" d="M73.1,321.3c-0.2,2.3,11.2,5.7,11.2,5.7c-1.1-2.4-2.6-4.5-4.4-6.4C77.3,318.3,73.3,319.1,73.1,321.3z"/>
<path class="st1" d="M93.1,326.2c0,0-8.1,3.9-8,9S91.5,334.4,93.1,326.2z"/>
<path class="st1" d="M102.4,326.8c0,0-10.4,5.4-7.7,10.3S102.4,326.8,102.4,326.8z"/>
<path class="st1" d="M107.2,327c0,0-3.4-9.5-9.6-9S101.9,327,107.2,327z"/>
<path class="st1" d="M94.3,326.9c0,0-2.8-9.7-9-9.6S89,326.5,94.3,326.9z"/>
<path class="st2" d="M108.3,349.8c-13.2-1.6-18.7-11.2-12.8-15.9c4.1-3.3,2.2-7.7-17.1-11.9s-19.5-13.4-17.2-16.3s11.3-7.5-1.3-12.7
	s-21.3-16.1-18.8-20s15.1-0.9,25.7,5.6s23.8,14.3,21.9,6.7s4.9-11,13.3-3.4s20.3,28.9,22.3,23.8c1.8-4.8,6.8-7.7,13.6,5
	c5.7,10.7,11.6,30.1,11.6,30.1S121.6,351.4,108.3,349.8z"/>
<path class="st3" d="M149.2,340.1c-37.2-35.2-103.4-64.5-104-64.8l0.3-0.7c0.7,0.3,66.9,29.7,104.2,65L149.2,340.1z"/>
<path class="st3" d="M71.3,311l-0.3-0.6c10.3-4.3,21.7-5.3,32.7-3.1l-0.1,0.7C92.8,305.7,81.5,306.8,71.3,311z"/>
<path class="st3" d="M104.2,342l-0.5-0.5c0.1-0.1,13.3-12.3,34.9-8.9l-0.1,0.7C117.3,329.9,104.4,341.9,104.2,342z"/>
<path class="st3" d="M105.4,309.2c-4.9-3.2-8.6-20.5-8.7-21.3l0.7-0.1c0,0.2,3.8,17.8,8.4,20.8L105.4,309.2z"/>
<path class="st4" d="M370.7,137.9l14.8-5.6c-0.1-5-0.7-10.1-1.8-15l-15.8-2c-1.4-5.1-3.4-10-5.8-14.6l10-12.3
	c-2.7-4.3-5.7-8.3-9-12.1l-14.6,6.2c-3.7-3.7-7.9-7-12.4-9.7l2.5-15.7c-4.4-2.4-9.1-4.4-13.9-6l-9.6,12.6c-2.5-0.7-5.1-1.2-7.7-1.5
	c-2.6-0.4-5.2-0.6-7.9-0.7L294,46.6c-5,0.2-10.1,0.7-15,1.8l-2,15.8c-5.1,1.4-10,3.4-14.6,5.9l-12.3-10c-4.3,2.7-8.3,5.7-12.1,9
	l6.1,14.6c-3.7,3.8-6.9,7.9-9.7,12.4l-15.7-2.5c-2.4,4.4-4.3,9.1-5.9,13.8l12.6,9.6c-0.7,2.5-1.2,5.1-1.5,7.7
	c-0.4,2.6-0.6,5.2-0.7,7.9l-14.8,5.6c0.1,5,0.7,10.1,1.8,15l15.8,2c1.4,5.1,3.4,10,5.9,14.6l-10,12.3c2.7,4.3,5.7,8.3,9,12.1
	l14.6-6.1c3.8,3.7,7.9,6.9,12.4,9.7l-2.5,15.7c4.4,2.4,9.1,4.3,13.8,5.9l9.6-12.6c2.5,0.7,5.1,1.2,7.7,1.6c2.6,0.4,5.2,0.6,7.9,0.7
	l5.6,14.8c5-0.1,10-0.7,15-1.7l2-15.8c5.1-1.4,10-3.4,14.6-5.8l12.3,10c4.3-2.7,8.3-5.7,12.1-9l-6.1-14.6c3.7-3.8,6.9-7.9,9.7-12.4
	l15.7,2.5c2.4-4.4,4.3-9.1,5.9-13.9l-12.6-9.6C369.7,148.3,370.4,143.1,370.7,137.9L370.7,137.9z M334.7,140.6
	c-3,20.9-22.4,35.3-43.2,32.3c-20.9-3-35.3-22.4-32.3-43.2s22.4-35.3,43.2-32.3c0,0,0,0,0,0C323.2,100.4,337.7,119.8,334.7,140.6
	L334.7,140.6z"/>
<path d="M355.4,143.6c4.7-32.3-17.7-62.2-50-66.9s-62.2,17.7-66.9,50c-4.7,32.3,17.7,62.2,50,66.9
	C320.8,198.3,350.7,175.9,355.4,143.6z M334.7,140.6c-3,20.9-22.3,35.3-43.2,32.3c-20.9-3-35.3-22.3-32.3-43.2
	c3-20.9,22.3-35.3,43.2-32.3c0,0,0,0,0,0C323.2,100.4,337.7,119.8,334.7,140.6L334.7,140.6z"/>
<path class="st2" d="M316.2,315.2c11.1-2,15.2-10.3,10.1-14c-3.6-2.6-2.2-6.4,13.9-10.8s15.9-12.2,13.7-14.5s-9.8-5.8,0.5-10.8
	s17.2-14.6,14.9-17.7s-12.8,0-21.4,5.9c-8.6,5.9-19.4,13.1-18.2,6.6s-4.6-9-11.4-2.3s-15.8,25.3-17.7,21.1c-1.8-3.9-6-6.2-11.2,4.9
	c-4.3,9.3-6.9,25.9-6.9,25.9S305.1,317.2,316.2,315.2z"/>
<path class="st3" d="M282.9,309.8l-0.4-0.4c29.9-31.5,82.7-60.2,83.2-60.5l0.3,0.5C365.4,249.7,312.7,278.4,282.9,309.8z"/>
<path class="st3" d="M345.6,280.8c-8.8-3.1-18.3-3.4-27.3-1.1l-0.1-0.6c9.1-2.4,18.8-2,27.7,1.1L345.6,280.8z"/>
<path class="st3" d="M319.3,308.4c-0.1-0.1-11.6-9.6-29.3-5.7l-0.1-0.6c18-3.9,29.7,5.8,29.8,5.9L319.3,308.4z"/>
<path class="st3" d="M316.7,280.8l-0.4-0.5c3.8-2.8,6.1-17.8,6.1-17.9l0.6,0.1C323,263.1,320.7,277.9,316.7,280.8z"/>
<path class="st5" d="M347.3,193.3c12.9,69.7-33.1,136.6-102.8,149.5S107.9,309.7,95,240s33.1-136.6,102.8-149.5
	c57.8-10.7,115.4,19.2,139.9,72.6C342.1,172.7,345.3,182.9,347.3,193.3z"/>
<linearGradient id="SVGID_1_" gradientUnits="userSpaceOnUse" x1="130.1804" y1="63.7541" x2="295.2704" y2="260.5041" gradientTransform="matrix(1 0 0 -1 0 380)">
	<stop  offset="0" style="stop-color:#F5F5F5"/>
	<stop  offset="1" style="stop-color:#D9D9D9"/>
</linearGradient>
<path class="st6" d="M339.5,194.8c1.1,6,1.8,12.1,2.1,18.2c3,71.4-52.4,131.7-123.8,134.7C146.3,350.7,86,295.3,83,223.9
	S135.4,92.2,206.8,89.2C271.1,86.5,327.7,131.5,339.5,194.8L339.5,194.8z"/>
<circle class="st3" cx="213.2" cy="218.3" r="111.2"/>
<linearGradient id="SVGID_2_" gradientUnits="userSpaceOnUse" x1="152.7993" y1="89.7559" x2="273.6002" y2="233.7188" gradientTransform="matrix(1 0 0 -1 -1.476905e-03 379.9953)">
	<stop  offset="0" style="stop-color:#F5F5F5"/>
	<stop  offset="1" style="stop-color:#D9D9D9"/>
</linearGradient>
<circle class="st7" cx="213.2" cy="218.3" r="94"/>
<circle class="st3" cx="213.2" cy="218.3" r="66.5"/>
<linearGradient id="SVGID_3_" gradientUnits="userSpaceOnUse" x1="188.1386" y1="131.8632" x2="238.2758" y2="191.6178" gradientTransform="matrix(1 0 0 -1 0 380)">
	<stop  offset="0" style="stop-color:#F5F5F5"/>
	<stop  offset="1" style="stop-color:#D9D9D9"/>
</linearGradient>
<path class="st8" d="M251.6,211.1c3.9,21.2-10,41.5-31.2,45.5c-21.2,3.9-41.5-10-45.5-31.2c-3.9-21.2,10-41.5,31.2-45.5
	C227.2,176,247.6,189.9,251.6,211.1C251.5,211.1,251.5,211.1,251.6,211.1z"/>
<circle class="st3" cx="212.7" cy="218.4" r="34.1"/>
<linearGradient id="SVGID_4_" gradientUnits="userSpaceOnUse" x1="206.8391" y1="154.7191" x2="218.4691" y2="168.5691" gradientTransform="matrix(1 0 0 -1 0 380)">
	<stop  offset="0" style="stop-color:#F5F5F5"/>
	<stop  offset="1" style="stop-color:#D9D9D9"/>
</linearGradient>
<path class="st9" d="M221.6,216.7c0.9,4.9-2.4,9.6-7.3,10.5c-4.9,0.9-9.6-2.4-10.5-7.3c-0.9-4.9,2.3-9.5,7.2-10.4
	C215.9,208.5,220.6,211.7,221.6,216.7C221.5,216.6,221.5,216.7,221.6,216.7z"/>
<path class="st10" d="M339.5,194.8c1.1,6,1.8,12.1,2.1,18.2c-12.2,0.9-24.3-2.7-34-10.1l-2.3-1.7c-0.7-0.4-1.4-0.9-2-1.4l-23.6,6.8
	c-0.2,1.2-1.1,2.2-2.3,2.6l-35.1,10.2c-1.7,0.5-3.5,0.3-5-0.6c-0.6-0.4-1.2-0.8-1.6-1.4l-22.2,2.7l20.8-8.3c0.1-0.4,0.2-0.7,0.3-1.1
	c0.8-1.9,2.5-3.3,4.5-3.8l35.7-7.9c1.2-0.3,2.5,0.2,3.3,1.1l24.1-5.4c0.4-0.9,0.8-1.7,1.3-2.6l1.2-2.6c5.1-11.2,14.1-20.1,25.3-25
	C334.3,174.2,337.5,184.4,339.5,194.8z"/>
<linearGradient id="SVGID_5_" gradientUnits="userSpaceOnUse" x1="2626.3606" y1="530.8165" x2="2662.4607" y2="530.8165" gradientTransform="matrix(-0.98 0.18 -0.18 -0.98 2988.8501 168.93)">
	<stop  offset="0" style="stop-color:#A0D4DF"/>
	<stop  offset="1" style="stop-color:#25B4C7"/>
</linearGradient>
<path class="st11" d="M276.5,152.8l29.7-28.3l-0.8-10.6l-0.3-4.4c-0.3-4.3-4.1-7.6-8.4-7.3c-1.9,0.1-3.6,0.9-5,2.3l-1.6,1.6
	c-10.8,10.8-16.1,25.9-14.3,41.1l0.3,2.8L276.5,152.8L276.5,152.8z"/>
<linearGradient id="SVGID_6_" gradientUnits="userSpaceOnUse" x1="275.4944" y1="252.4768" x2="306.23" y2="252.4768" gradientTransform="matrix(1 0 0 -1 0 380)">
	<stop  offset="0" style="stop-color:#868686"/>
	<stop  offset="1" style="stop-color:#575756"/>
</linearGradient>
<path class="st12" d="M276.5,152.8l29.7-28.3l-0.8-10.6l-0.3-4.4c-0.3-4.3-4.1-7.6-8.4-7.3c-1.9,0.1-3.6,0.9-5,2.3l-1.6,1.6
	c-10.8,10.8-16.1,25.9-14.3,41.1l0.3,2.8L276.5,152.8L276.5,152.8z"/>
<linearGradient id="SVGID_7_" gradientUnits="userSpaceOnUse" x1="2626.8606" y1="527.7717" x2="2662.5706" y2="527.7717" gradientTransform="matrix(-0.98 0.18 -0.18 -0.98 2988.8501 168.93)">
	<stop  offset="0" style="stop-color:#868686"/>
	<stop  offset="1" style="stop-color:#575756"/>
</linearGradient>
<path class="st13" d="M276.5,152.8L276.5,152.8l29.7-28.3l-0.5-9c0-0.5-0.1-1-0.3-1.6c-1.2-4.2-5.5-6.6-9.7-5.4
	c-1.3,0.4-2.4,1-3.4,2l-1.6,1.6c-10.1,10-15.4,23.8-14.6,38c0,1,0.1,1.9,0.2,2.9L276.5,152.8z"/>
<linearGradient id="SVGID_8_" gradientUnits="userSpaceOnUse" x1="2628.0508" y1="518.9474" x2="2662.4607" y2="518.9474" gradientTransform="matrix(-0.98 0.18 -0.18 -0.98 2988.8501 168.93)">
	<stop  offset="0" style="stop-color:#A0D4DF"/>
	<stop  offset="1" style="stop-color:#25B4C7"/>
</linearGradient>
<polygon class="st14" points="276.5,152.8 306.2,124.5 276.5,152.8 "/>
<linearGradient id="SVGID_9_" gradientUnits="userSpaceOnUse" x1="213.6" y1="169.245" x2="232.7" y2="169.245" gradientTransform="matrix(1 0 0 -1 0 380)">
	<stop  offset="0" style="stop-color:#3C3C3B"/>
	<stop  offset="1" style="stop-color:#1D1D1B"/>
</linearGradient>
<polygon class="st15" points="232.7,205.5 228.2,201.1 213.6,220.4 "/>
<linearGradient id="SVGID_10_" gradientUnits="userSpaceOnUse" x1="-1969.4459" y1="-6134.0479" x2="-1933.3359" y2="-6134.0479" gradientTransform="matrix(-0.18 0.98 0.98 0.18 5971.27 3128.51)">
	<stop  offset="0" style="stop-color:#A0D4DF"/>
	<stop  offset="1" style="stop-color:#25B4C7"/>
</linearGradient>
<path class="st16" d="M279.6,156.5l28.1-29.9l10.6,0.7l4.4,0.3c4.3,0.3,7.6,4,7.3,8.4c-0.1,1.9-0.9,3.6-2.2,4.9l-1.6,1.6
	c-10.7,10.9-25.8,16.3-41,14.7l-2.8-0.3L279.6,156.5L279.6,156.5z"/>
<linearGradient id="SVGID_11_" gradientUnits="userSpaceOnUse" x1="279.65" y1="238.035" x2="330.0715" y2="238.035" gradientTransform="matrix(1 0 0 -1 0 380)">
	<stop  offset="0" style="stop-color:#868686"/>
	<stop  offset="1" style="stop-color:#575756"/>
</linearGradient>
<path class="st17" d="M279.6,156.5l28.1-29.9l10.6,0.7l4.4,0.3c4.3,0.3,7.6,4,7.3,8.4c-0.1,1.9-0.9,3.6-2.2,4.9l-1.6,1.6
	c-10.7,10.9-25.8,16.3-41,14.7l-2.8-0.3L279.6,156.5L279.6,156.5z"/>
<linearGradient id="SVGID_12_" gradientUnits="userSpaceOnUse" x1="-1968.9459" y1="-6137.0415" x2="-1933.2358" y2="-6137.0415" gradientTransform="matrix(-0.18 0.98 0.98 0.18 5971.27 3128.51)">
	<stop  offset="0" style="stop-color:#868686"/>
	<stop  offset="1" style="stop-color:#575756"/>
</linearGradient>
<path class="st18" d="M279.7,156.5L279.7,156.5l28.1-29.9l-0.1-0.2l9.2,0.6c0.5,0,1,0.1,1.5,0.3c4.2,1.2,6.6,5.5,5.5,9.7
	c-0.3,1.3-1,2.4-1.9,3.3l-1.6,1.6c-9.9,10.1-23.7,15.6-37.9,14.9C281.5,156.7,280.6,156.6,279.7,156.5L279.7,156.5z"/>
<linearGradient id="SVGID_13_" gradientUnits="userSpaceOnUse" x1="-1967.7559" y1="-6145.9302" x2="-1933.3359" y2="-6145.9302" gradientTransform="matrix(-0.18 0.98 0.98 0.18 5971.27 3128.51)">
	<stop  offset="0" style="stop-color:#A0D4DF"/>
	<stop  offset="1" style="stop-color:#25B4C7"/>
</linearGradient>
<polygon class="st19" points="279.6,156.5 307.8,126.5 279.7,156.5 "/>
<linearGradient id="SVGID_14_" gradientUnits="userSpaceOnUse" x1="228.2208" y1="215.4" x2="308.8034" y2="215.4" gradientTransform="matrix(1 0 0 -1 0 380)">
	<stop  offset="0" style="stop-color:#3C3C3B"/>
	<stop  offset="1" style="stop-color:#1D1D1B"/>
</linearGradient>
<path class="st20" d="M229.6,204.2L229.6,204.2c1.8,1.8,4.7,1.8,6.5,0c0,0,0.1-0.1,0.1-0.1l72.3-78.3c0.5-0.5,0.5-1.3,0-1.8l0,0
	c-0.5-0.5-1.3-0.5-1.8,0l-77,73.6C227.8,199.3,227.7,202.2,229.6,204.2C229.5,204.1,229.5,204.2,229.6,204.2z"/>
<linearGradient id="SVGID_15_" gradientUnits="userSpaceOnUse" x1="2679.3406" y1="478.2783" x2="2720.2207" y2="478.2783" gradientTransform="matrix(-0.98 0.18 -0.18 -0.98 2988.8501 168.93)">
	<stop  offset="0" style="stop-color:#868686"/>
	<stop  offset="1" style="stop-color:#575756"/>
</linearGradient>
<path class="st21" d="M228.7,195.9c-2.5,2.5-2.4,6.6,0.1,9.1s6.6,2.4,9.1-0.1l0,0l24.8-26.8c1.2-1.3,1.2-3.4-0.1-4.7l-2.7-2.7
	c-1.3-1.3-3.4-1.3-4.7,0L228.7,195.9z"/>
<path class="st0" d="M340.3,298.3c-0.1,2.9-10.2,0.1-10.2,0.1S340.5,293.6,340.3,298.3z"/>
<path class="st0" d="M331.2,302.8c0.3-1.6-4.3-3.5-9.5-2.9c1.5,1,3,2.1,4.3,3.3C327.6,304.5,330.9,305.1,331.2,302.8z"/>
<path class="st0" d="M298.5,313.3c17.6-13.9,32.6-14.9,32.8-14.9V298c-0.2,0-15.7,0.3-33.4,14.3L298.5,313.3z"/>
<path class="st0" d="M327.3,291.7c1,1.6-6.4,8.4-6.4,8.4c0-2.2,0.3-4.4,1-6.5C323,291,326.4,290.1,327.3,291.7z"/>
<path class="st0" d="M313.9,302.8c0,0,7.6,0,9.4,3.9S318.1,308.4,313.9,302.8z"/>
<path class="st0" d="M307,306.6c0,0,9.9,0.3,9.6,5.1S307,306.6,307,306.6z"/>
<path class="st0" d="M303.4,308.5c0,0-0.9-8.5,4-10.4S307.5,306.5,303.4,308.5z"/>
<path class="st0" d="M313.2,303.7c0,0-1.4-8.5,3.3-10.6S317.1,301.5,313.2,303.7z"/>
<path class="st1" d="M243.2,324.3c6.9-8.4,16.4-20.6,25.4-20.7s9.2,6.2,8.2,8.8s4.3-0.8,16.1-2.9s19.8,1,22.6,3.4
	c4.8,4,2.6,5.9,0.2,9.8s22.3,8.6,24.9,14.6s-7.4,10.5-16.9,7.3s-12.8-2.2-10.9,1.7s-2.2,12.6-17.3,3.5s-22.1-10.5-20.4-5.3
	s2.7,10.7-9.8,7.4s-25-10.6-29.7-9.3C231.4,343.7,236.4,332.6,243.2,324.3z"/>
<path class="st3" d="M236,342.7l-0.5-0.4c14.4-17.2,41.3-17.4,61.4-14.6c13.8,2.1,27.3,5.6,40.4,10.4l-0.2,0.6
	c-13-4.8-26.5-8.3-40.2-10.4C276.9,325.5,250.2,325.7,236,342.7z"/>
<path class="st3" d="M303.3,344.1c-0.1-0.1-6.5-13.7-18.6-17l0.1-0.6c12.5,3.4,19,17.2,19,17.3L303.3,344.1z"/>
<path class="st3" d="M282,327v-0.6c11-0.2,24.6-10.5,24.7-10.6l0.4,0.5C307,316.4,293.2,326.8,282,327z"/>
<path class="st3" d="M253.5,330.8l-0.4-0.5c11.3-7.9,12.2-17.9,12.2-18l0.6,0C265.9,312.5,265,322.7,253.5,330.8z"/>
<path class="st22" d="M129.3,118.8c-0.9,0.1-11.5-2.8-15.8-4c-0.5-0.1-0.9-0.6-0.8-1.2c0.1-0.3,0.3-0.6,0.6-0.8
	c2.2-1.1,4.6-1.5,7-0.9c1.1,0.3,2.3,0.1,3.2-0.7c1-0.9,1.9-5.2,2.3-7.4c0.1-0.5,1.3-0.9,1.3-1.4c0.8-4.6,6.2,2.3,6.2,2.3
	c-0.5,0.6-0.8,1.3-1,2c-0.3,1.3-1.3,4.7-1.3,6.3c0,0.2,0,0.5,0,0.7C131.2,116.6,130.5,118.7,129.3,118.8z"/>
<path class="st23" d="M129.3,118.8c-1,0.1-13.3-3.3-16.8-4.3c-0.3-0.1-0.5-0.4-0.4-0.7c0-0.1,0.1-0.2,0.2-0.3c1.1-1.2,3.7-3,8-2.3
	c1.3,0.3,2.6,0.1,3.7-0.6c1.5,0.5,2.5,1.4,2.1,2.8c-0.2,0.8,2.2,1.7,4.8-0.3c0,0.2,0,0.5,0,0.7C131.2,116.6,130.5,118.7,129.3,118.8
	z"/>
<path class="st24" d="M188.5,73.6c0,0-32.2-13.9-43.1-11.6s-12.7,15.3-21,44.3l9.6,2.8l14.2-30.4l46.2,7.7L188.5,73.6z"/>
<path class="st23" d="M174.5,16l-0.7-1.7c0.1-1.8-0.1-3.5-0.8-5.1c-0.8-2.8-2.2-5.3-4.1-7.6c-2.7-3-6.3-1.2-8.5,1.3
	c-1.5,1.7-4.4-0.5-10.8,4.5c-4.9,3.8-1,10.2,4.5,7.8c6.2-2.8,14.6,3.5,14.6,3.5l5-0.7L174.5,16z"/>
<path class="st22" d="M159.3,12.7c3,1.5,5.6,2.6,4.9,0.6c-0.3-0.9-0.5-1.5,0.1-2.2c0.7-0.8,2-0.9,2.8-0.2c0.2,0.2,0.4,0.4,0.5,0.6
	c1.1,2.5,2,3.6,3,3.7c0.2,0,0.4,0.1,0.6,0.1c1.1,0.2,2.1-0.3,2.6-1.2l0,0l6.9,6.7l-6.7,8.2l-3.8-5c-0.2,0.3-0.5,0.6-0.8,0.8
	c-2.9,2.2-10.8-4.3-15.1-9.8C154.2,15.1,158.1,12.1,159.3,12.7z"/>
<polygon class="st3" points="181.4,20.9 178.9,19.1 173.1,27.9 174,29.6 "/>
<path class="st22" d="M130.8,130.9c-0.9,0.1-11.5-2.8-15.8-4c-0.5-0.1-0.9-0.6-0.8-1.2c0.1-0.3,0.3-0.6,0.6-0.8
	c2.2-1.1,4.6-1.4,7-0.9c1.1,0.3,2.3,0.1,3.2-0.7c1-0.9,1.9-5.2,2.3-7.4c0.1-0.5,1.3-0.9,1.3-1.4c0.8-4.6,6.2,2.3,6.2,2.3
	c-0.5,0.6-0.8,1.3-1,2c-0.3,1.3-1.3,4.7-1.3,6.3c0,0.2,0,0.5,0,0.7C132.6,128.7,131.9,130.8,130.8,130.9z"/>
<path class="st23" d="M130.8,130.9c-1,0.1-13.3-3.3-16.8-4.3c-0.4-0.1-0.5-0.6-0.2-1c1.1-1.2,3.7-3,8-2.3c1.3,0.3,2.6,0.1,3.7-0.6
	c1.5,0.5,2.5,1.4,2.1,2.8c-0.2,0.8,2.2,1.7,4.8-0.3c0,0.2,0,0.5,0,0.7C132.6,128.7,131.9,130.8,130.8,130.9z"/>
<path class="st25" d="M204.5,72l6.6,8.8c0,0,2.1,15.7-14,18.8s-44.2-13.8-44.2-13.8l-18.1,36.7l-8.4-2.3c0,0,9.9-43.8,15.1-50.6
	s45.7,7.9,46,8.8S204.5,72,204.5,72z"/>
<polygon points="159.9,54.6 160,55.3 157.3,56.1 "/>
<polygon points="143.5,55.2 142.9,54.4 141.9,57.8 "/>
<polygon points="131.9,39.8 131,40 131,41.1 "/>
<path d="M130.7,68.9c0,0-0.5,0.2-0.8-0.5s1.5-2.5,1.5-2.5l2,1.3L130.7,68.9z"/>
<path d="M129.9,68.3l12.9-13L132,40.4c-0.3-0.5-1-0.6-1.5-0.3c-0.1,0-0.1,0.1-0.1,0.1l-11.1,11.2c-0.5,0.5-0.6,1.3-0.2,1.9
	L129.9,68.3z"/>
<path d="M130.6,68.3l16.6-1c0.4,0,0.8-0.2,1.1-0.5l11.4-11.8c0.1-0.2,0.1-0.4,0-0.5c-0.1-0.1-0.2-0.1-0.3-0.1l-15.9,0.9L130.6,68.3z
	"/>
<path d="M130.7,68.9l16.6-1c0.4,0,0.8-0.2,1.1-0.5l11.4-11.8c0.1-0.2,0.1-0.4,0-0.5c-0.1-0.1-0.2-0.1-0.3-0.1l-15.9,0.9L130.7,68.9z
	"/>
<path d="M131.2,67.6L143,55.7c0.3-0.3,0.3-0.8,0.1-1.1l-10.3-14.3c-0.3-0.5-1-0.6-1.5-0.3c-0.1,0-0.1,0.1-0.1,0.1L120,51.4
	c-0.5,0.5-0.6,1.3-0.2,1.9l10.3,14.3c0.2,0.3,0.7,0.4,1,0.2C131.2,67.7,131.2,67.7,131.2,67.6z"/>
<linearGradient id="SVGID_16_" gradientUnits="userSpaceOnUse" x1="3016.1528" y1="510.8253" x2="3037.1528" y2="510.8253" gradientTransform="matrix(-0.99 0.14 -0.14 -0.99 3200.5601 135.59)">
	<stop  offset="0" style="stop-color:#B3B3B3"/>
	<stop  offset="1" style="stop-color:#F0F3F5"/>
</linearGradient>
<path class="st26" d="M142.2,55.1L132,40.9h-0.1l-11.2,11.2c-0.1,0.2-0.1,0.4,0,0.6l10.1,14L142.2,55.1z"/>
<path class="st22" d="M150.9,58c0,0-5.6-1.5-7-0.9s-3.8,5.5-3.1,5.5s3.2-1.5,4-1.6c2.1,0.3,4.1,0.7,6.1,1.3L150.9,58z"/>
<path class="st27" d="M174,29.1c0,0,3.6-6.6,6.7-8.2s16,2.8,23.3,24.9c5.1,15.7,7.1,35,7.1,35l-15.7-1.1c-4.6-0.3-8.5-3.3-10.1-7.6
	c-2.4-6.6-6-16.1-8-20.1C174.1,45.5,174,29.1,174,29.1z"/>
<path class="st28" d="M183.2,24.5c0,0-7.6-3.1-9.1,7.3s-0.9,27-0.9,27S158.8,58,157.3,58c-2.5,0.1-5.5,0-5.5,0l-0.1,6
	c0,0,30.9,5.7,31.5,2.7c0.8-3.9,4.6-18.4,4.6-27.4C187.9,29.4,185.6,25.4,183.2,24.5z"/>
<linearGradient id="SVGID_17_" gradientUnits="userSpaceOnUse" x1="2981.1428" y1="536.3387" x2="2984.063" y2="536.3387" gradientTransform="matrix(-0.99 0.14 -0.14 -0.99 3200.5601 135.59)">
	<stop  offset="0" style="stop-color:#FFFFFF"/>
	<stop  offset="1" style="stop-color:#000000"/>
</linearGradient>
<path class="st29" d="M170.1,24.1c0,0,1.1-3.7,1.4-5s2.4,2.5-0.1,6.8L170.1,24.1z"/>
<polygon class="st3" points="151.8,58.1 150.9,58 150.7,63 151.7,63.3 "/>
<path class="st2" d="M411.8,170.9c5.4,1.9,4.9,2.4,10.4,15.6c5.4,13,3.5,20.1,3,20.8c-1.5,2.1-15.4,15.5-15.4,15.5l-3.4-4.7
	c0,0,10.7-12.4,10.9-14.1s-6.7-19.9-6.6-19.9C415.6,182.2,408.7,169.8,411.8,170.9z"/>
<path class="st30" d="M390.5,144.7c0,0-1.5,7.6-0.2,12.6s4.3,4.9,4.3,5.7s-1.8,10.1-1.8,10.1l10.5,1.6c0,0,1-9.9,1-11.3
	s3.4-10.4,1.3-13.9S390.5,144.7,390.5,144.7z"/>
<path class="st31" d="M406.2,140.2c-1.9-1.7-5.4-4.3-8-3.4s-7.8-1.7-9.3,3.1c-1.5,4.6,2.6,6.4,5.9,7.1s3.3,1.6,3.3,3.5
	s1.8,0.4,2.9,1c0.7,0.4,0.6,3-1.1,4.8s0.8,6.4,2.4,6.8s2.6-0.3,3.9-1.7c3-3.4,5.9-6.1,6.5-13.8S406.2,140.2,406.2,140.2z"/>
<linearGradient id="SVGID_18_" gradientUnits="userSpaceOnUse" x1="4745.126" y1="-419.9664" x2="4749.686" y2="-419.9664" gradientTransform="matrix(-1 -9.000000e-02 9.000000e-02 -1 5160.3799 167.91)">
	<stop  offset="0" style="stop-color:#FFFFFF"/>
	<stop  offset="1" style="stop-color:#000000"/>
</linearGradient>
<path class="st32" d="M398.6,160.4c-1.2,0.3-2.2,2.3-4.1,2.4l-0.1,2.1C394.4,164.8,401.5,159.7,398.6,160.4z"/>
<path class="st3" d="M392.5,169.2l1.5-2.8c0,0,5.7-1.6,10.1,0l0.7,3.9L392.5,169.2z"/>
<path class="st30" d="M412.4,317.9c-0.7,0.6-0.8,1.7-0.1,2.4c0.3,0.4,0.8,0.6,1.2,0.6h6.6c1.2,0,2.8-1,2.5-4c0-0.2,0-0.4,0-0.6
	c-0.1-1.5-0.1-3.2-0.1-4.6c0-1.7,0.1-3,0.1-3l-5.1-3l-1-0.6l0.1,0.6c0.3,2,0.4,4,0.3,6.1c0,1.3-0.3,2.7-0.9,3.9
	c-0.2,0.3-0.4,0.5-0.7,0.6C414.4,316.5,413.3,317.1,412.4,317.9z"/>
<path class="st33" d="M410.7,320c-0.1,0.3,0,0.7,0.3,0.9c0.1,0,0.2,0.1,0.3,0.1h8.8c1.2,0,2.8-1,2.5-4c0-0.2,0-0.4,0-0.6
	c0.1-0.6-1.4-1.2-4.8,0.2c-0.8,0.3,0-1.5-1.1-1.5c-0.5,0-0.7,0.7-0.9,0.9c-0.1,0.1-0.2,0.2-0.4,0.2C412.3,317.4,411.1,319,410.7,320
	z"/>
<path class="st34" d="M392.4,236.1l23,76h8.2c0,0-6.2-38.8-7.3-48c-0.8-7.2-3.3-38.8-8.3-48l-15.6,1.6L392.4,236.1z"/>
<path class="st30" d="M383.1,320.7c-0.7,0.3-10,0.1-13.8,0c-0.5,0-0.9-0.4-0.9-0.9c0-0.2,0.1-0.5,0.3-0.6c1.5-1.4,3.5-2.2,5.6-2.3
	c1,0,1.9-0.4,2.5-1.2c0.6-0.9,0.5-4.6,0.4-6.5c0-0.4,0.8-1,0.8-1.4c-0.3-4,5.6,0.6,5.6,0.6c-0.3,0.6-0.4,1.2-0.4,1.8
	c-0.1,1.8,0,3.6,0.2,5.4c0,0.2,0.1,0.4,0.1,0.6C384.2,318.5,384.1,320.4,383.1,320.7z"/>
<path class="st33" d="M383.1,320.7c-0.8,0.3-11.6,0.1-14.7,0c-0.4,0-0.6-0.4-0.4-0.8c0.6-1.2,2.4-3.2,6.1-3.5c1.1,0,2.2-0.5,2.9-1.3
	c1.3,0.1,2.3,0.7,2.3,1.8c0,0.7,2.2,0.9,3.9-1.3c0,0.2,0.1,0.4,0.1,0.6C384.2,318.5,384.1,320.4,383.1,320.7z"/>
<path class="st35" d="M384.4,217.3c0,0-7.5,28.2-8.4,50.5s0.4,44.3,0.4,44.3h8c0,0,2.8-21.7,7.1-41.6c3.5-16.4,10.1-31.6,10.7-35
	c1.4-7.5,0.3-19.3,0.3-19.3L384.4,217.3z"/>
<path class="st2" d="M381,171.4c12.8-4.9,29.9-2.4,33.5,0.3c4,3-3.6,25.1-4,32.9s0.1,19.1,0.1,19.1s-24.2,2.5-28,1
	c0,0,1.6-8.2,0-21.9S375.7,173.5,381,171.4z"/>
<path class="st2" d="M387.1,169.7c0,0-3.4,1.2-8.4-1.3s-12.3-13.5-12.3-13.5l-4.8-21.1l-5.2-0.1c0,0,1.6,25,3,28.9
	s18.8,25.3,21.2,28.1S387.1,169.7,387.1,169.7z"/>
<path class="st30" d="M361.6,133.8c0,0,0.7-5,0-5.7s-3.6-0.2-4.6,0.7s-0.6,4.9-0.6,4.9L361.6,133.8z"/>
<path d="M340.4,320.6h110.4l0,0v4c0,1-0.8,1.9-1.9,1.9l0,0H342.3c-1,0-1.9-0.8-1.9-1.9l0,0V320.6L340.4,320.6z"/>
<path d="M342.6,263.6c-1.2,0-2.2,1-2.2,2.2c0,0,0,0,0,0l0,0v57.4l1.9,2.5v-57.7c0-1.2,1-2.2,2.2-2.2c0,0,0,0,0,0h11.5v57.4l1.9,2.5
	v-59.9h13.9v57.4l1.9,2.5v-59.9h13.7v57.4l2,2.5v-59.9h12.2v57.4l1.9,2.5v-59.9h13.7v57.4l2,2.5v-59.9h13.9v57.4l2,2.5v-59.9h11.5
	c1.2,0,2.2,1,2.2,2.2l0,0v55.2l1.9,0.2v-57.6l0,0c0-1.2-1-2.2-2.2-2.2c0,0,0,0,0,0H342.6z"/>
<path d="M340.6,363.1h111.3c0.3,0,0.6,0.3,0.6,0.6v2.2c0,0.3-0.3,0.6-0.6,0.6H340.6c-0.3,0-0.6-0.3-0.6-0.6v-2.2
	C340,363.4,340.3,363.1,340.6,363.1z"/>
<path d="M347,366.4c-3.5,0.2-6.1,3.2-5.9,6.6c0.2,3.5,3.2,6.1,6.6,5.9c3.3-0.2,6-2.9,5.9-6.3C353.6,369.2,350.6,366.3,347,366.4z
	 M347,375.4c-1.5-0.1-2.6-1.3-2.5-2.8s1.3-2.6,2.8-2.5c1.4,0.1,2.5,1.2,2.5,2.7C349.8,374.2,348.5,375.4,347,375.4L347,375.4z"/>
<path d="M445.9,366.4c-3.5,0.2-6.1,3.2-5.9,6.6c0.2,3.5,3.2,6.1,6.6,5.9c3.3-0.2,6-2.9,5.9-6.3C452.4,369.2,449.4,366.3,445.9,366.4
	z M445.9,375.4c-1.5-0.1-2.6-1.3-2.5-2.8s1.3-2.6,2.8-2.5c1.4,0.1,2.5,1.2,2.5,2.7C448.6,374.2,447.3,375.4,445.9,375.4L445.9,375.4
	z"/>
<path d="M355.5,323.4l82.8,40.2c0.2,0.1,0.3,0.4,0.2,0.7l-0.8,1.7c-0.1,0.2-0.4,0.3-0.7,0.2L354.2,326c-0.2-0.1-0.3-0.4-0.2-0.7
	l0.8-1.7C355,323.4,355.3,323.3,355.5,323.4z"/>
<path d="M438.3,325.9l-82.8,40.2c-0.2,0.1-0.5,0-0.7-0.2l-0.8-1.7c-0.1-0.2,0-0.5,0.2-0.7l82.8-40.2c0.2-0.1,0.5,0,0.7,0.2l0.8,1.7
	C438.6,325.5,438.5,325.8,438.3,325.9z"/>
<linearGradient id="SVGID_19_" gradientUnits="userSpaceOnUse" x1="-1493.8447" y1="188.0963" x2="-1459.5701" y2="188.0963" gradientTransform="matrix(-1 0 0 -1 -1421.5701 380)">
	<stop  offset="0" style="stop-color:#F5F5F5"/>
	<stop  offset="1" style="stop-color:#C6C6C5"/>
</linearGradient>
<path class="st36" d="M38,192.9c0,0,9.2,1.3,15.9,4.1s9.1,2,8.9,1.2s-8.1-21.1-8.1-21.1l5.3-2.4c0,0,11.3,21.9,12.2,26.6
	s-3.3,8.4-9.7,7.8s-19.2-4.7-19.2-4.7L38,192.9z"/>
<path class="st37" d="M55.8,177.4c-1.1-1.7-2.3-3.3-3.7-4.9c-1-0.9-3-3-0.6-4.8s5-3,5.9-1.8s2.3,9.6,2.3,9.6L55.8,177.4z"/>
<linearGradient id="SVGID_20_" gradientUnits="userSpaceOnUse" x1="-1468.6807" y1="197.8827" x2="-1430.2537" y2="197.8827" gradientTransform="matrix(-1 0 0 -1 -1421.5701 380)">
	<stop  offset="0" style="stop-color:#3C3C3B"/>
	<stop  offset="1" style="stop-color:#1D1D1B"/>
</linearGradient>
<path class="st38" d="M42.1,175.9c0,0-1.2,6.5,3.2,10c5,4.1-1.5,7.9-8.5,8.2s-18.6,17.1-24.5,16.1s-3.6-19.1-0.3-26.7
	c2.1-5.1,6-9.9,6.4-13.4s0.5-9.2,7.3-10.6s5.7-4.4,10.1-5.3c6-1.3,9.3,6.1,4.1,10.2S42.1,175.9,42.1,175.9z"/>
<linearGradient id="SVGID_21_" gradientUnits="userSpaceOnUse" x1="-1495.6979" y1="22.7924" x2="-1479.97" y2="22.7924" gradientTransform="matrix(-1 0 0 -1 -1421.5701 380)">
	<stop  offset="0" style="stop-color:#F5F5F5"/>
	<stop  offset="1" style="stop-color:#C6C6C5"/>
</linearGradient>
<path class="st39" d="M58.4,347.9v18.7h3.2v-5.1c0,0,2.4,4.9,3.9,5.1c1,0.1,4.8,0.1,7.9,0.1c0.4,0,0.8-0.4,0.8-0.8
	c0-0.3-0.2-0.5-0.4-0.7c-2.9-1.6-7-3.3-7.9-8c-0.6-3.2-0.9-6.3-1.2-9.5L58.4,347.9z"/>
<linearGradient id="SVGID_22_" gradientUnits="userSpaceOnUse" x1="-1451.4464" y1="23.255" x2="-1440.9968" y2="23.255" gradientTransform="matrix(-1 0 0 -1 -1421.5701 380)">
	<stop  offset="0" style="stop-color:#F5F5F5"/>
	<stop  offset="1" style="stop-color:#C6C6C5"/>
</linearGradient>
<path class="st40" d="M21.3,347.4l-1.8,18.4c0,0.4,0.3,0.8,0.7,0.9c0,0,0,0,0.1,0h8.9c0.4,0,0.8-0.4,0.8-0.8c0,0,0-0.1,0-0.1
	c-0.1-1.1-2-3.1-2.5-5.1c-1.1-4.5-0.4-13.9-0.4-13.9L21.3,347.4z"/>
<path class="st23" d="M20.5,235.4c0,0-6.2,9.5-4.2,35.4s1.9,27.3,1.9,27.3l1.6,51.1c0,0,4.6,1.1,7.3,0l9-81.7
	c0,0,11.2,26.9,13.7,32.8s0,21.7,8.1,49.4c0,0,4.8,1.1,7.9,0c0,0,0.4-48.8-1.8-56.9s-15.3-50.2-17.6-55S20.5,235.4,20.5,235.4z"/>
<linearGradient id="SVGID_23_" gradientUnits="userSpaceOnUse" x1="-1485.83" y1="212.1832" x2="-1466.9355" y2="212.1832" gradientTransform="matrix(-1 0 0 -1 -1421.5701 380)">
	<stop  offset="0" style="stop-color:#3C3C3B"/>
	<stop  offset="1" style="stop-color:#1D1D1B"/>
</linearGradient>
<path class="st41" d="M60.9,161l3.4,6.1l-4.8,2.2l-11.6,5.2l0,0c-0.6,0.3-1.5-0.2-2.1-1.3s-0.5-2.1,0.1-2.5l0,0l10.7-6.9L60.9,161z"
	/>
<path d="M60.9,161l3.4,6.1l-4.8,2.2c-1.9-1.2-3-3.2-3-5.4L60.9,161z"/>
<linearGradient id="SVGID_24_" gradientUnits="userSpaceOnUse" x1="-1497.21" y1="218.4798" x2="-1479.03" y2="218.4798" gradientTransform="matrix(-1 0 0 -1 -1421.5701 380)">
	<stop  offset="0" style="stop-color:#3C3C3B"/>
	<stop  offset="1" style="stop-color:#1D1D1B"/>
</linearGradient>
<path class="st42" d="M70.8,153.9l4.9,8.9l-3.7,1.7l-9.5,4.5l0,0l-0.2,0.1l0,0c-1.2,0.4-2.9-0.6-4-2.6s-1-4,0-4.8l0,0l0.2-0.1l0,0
	l0,0l8.9-5.7L70.8,153.9z"/>
<path d="M70.8,153.9l4.9,8.9l-3.7,1.7c-1.5-0.8-2.8-2-3.6-3.5c-0.9-1.5-1.2-3.2-1-4.9L70.8,153.9z"/>
<linearGradient id="SVGID_25_" gradientUnits="userSpaceOnUse" x1="-1510.67" y1="225.2227" x2="-1490.24" y2="225.2227" gradientTransform="matrix(-1 0 0 -1 -1421.5701 380)">
	<stop  offset="0" style="stop-color:#3C3C3B"/>
	<stop  offset="1" style="stop-color:#1D1D1B"/>
</linearGradient>
<path class="st43" d="M82.8,145.6l6.3,11.6l-4.9,2.4l-8.4,4.1h-0.1c-1.7,0.9-4.4-0.7-6-3.6s-1.5-6,0.2-6.9H70l0,0l8-4.8L82.8,145.6z
	"/>
<path class="st44" d="M82.1,145.5c-2,1.1-2.1,4.7-0.2,8.1s5,5.3,7,4.2l0,0l13-7.1l-6.8-12.4L82.1,145.5z"/>
<path d="M82.8,145.6l6.3,11.6l-4.9,2.4c-1.8-0.3-3.8-2-5.2-4.5s-1.7-5.1-0.9-6.8L82.8,145.6z"/>
<linearGradient id="SVGID_26_" gradientUnits="userSpaceOnUse" x1="-1522.1899" y1="231.1157" x2="-1500.9199" y2="231.1157" gradientTransform="matrix(-1 0 0 -1 -1421.5701 380)">
	<stop  offset="0" style="stop-color:#3C3C3B"/>
	<stop  offset="1" style="stop-color:#1D1D1B"/>
</linearGradient>
<path class="st45" d="M80.9,146.1c-2,1.1-2.1,4.7-0.3,8.1s5,5.3,7,4.2l0,0l13-7.1L93.9,139L80.9,146.1z"/>
<path d="M100.9,143.2c-1.5-2.8-3.9-4.7-5.9-5l-0.3-0.5l-1.6,0.8c-2.2,1.2-2.3,5.2-0.3,9s5.5,5.9,7.7,4.7l1.6-0.8l-0.3-0.5
	C102.7,149.1,102.4,146.1,100.9,143.2z"/>
<linearGradient id="SVGID_27_" gradientUnits="userSpaceOnUse" x1="-1525.4501" y1="235.4431" x2="-1514.53" y2="235.4431" gradientTransform="matrix(-1 0 0 -1 -1421.5701 380)">
	<stop  offset="0" style="stop-color:#3C3C3B"/>
	<stop  offset="1" style="stop-color:#1D1D1B"/>
</linearGradient>
<path class="st46" d="M102.4,142.4c2.1,3.8,2,7.8-0.3,9s-5.7-0.9-7.7-4.7s-1.9-7.8,0.3-9S100.3,138.6,102.4,142.4z"/>
<linearGradient id="SVGID_28_" gradientUnits="userSpaceOnUse" x1="-1523.8912" y1="235.4264" x2="-1516.1088" y2="235.4264" gradientTransform="matrix(-1 0 0 -1 -1421.5701 380)">
	<stop  offset="0" style="stop-color:#C6C6C5"/>
	<stop  offset="1" style="stop-color:#F5F5F5"/>
</linearGradient>
<path class="st47" d="M101.1,143.1c1.6,2.9,1.6,5.8,0.1,6.6s-3.9-0.9-5.5-3.7s-1.6-5.8-0.1-6.6S99.6,140.3,101.1,143.1z"/>
<linearGradient id="SVGID_29_" gradientUnits="userSpaceOnUse" x1="-1470.1599" y1="162.5181" x2="-1441.369" y2="162.5181" gradientTransform="matrix(-1 0 0 -1 -1421.5701 380)">
	<stop  offset="0" style="stop-color:#F5F5F5"/>
	<stop  offset="1" style="stop-color:#C6C6C5"/>
</linearGradient>
<path class="st48" d="M19.8,237c0.9,1.1,2,2,3.2,2.7c4.2,2.7,9.5,3.3,14,3.3c3.5-0.1,7-1.4,9.6-3.7c0,0-1.8-14.2-1.9-18.1
	s4.3-8.8,3.8-11.7c-1.3-8.3-7.2-15.7-7.2-15.7c-7-2.6-14.6-2.6-21.6,0c0,0,0.3,3.9,0.7,8.8c0.6,6.1,1.4,13.9,2.4,17.4
	C24.6,226.6,19.8,237,19.8,237z"/>
<linearGradient id="SVGID_30_" gradientUnits="userSpaceOnUse" x1="-1454.7676" y1="158.43" x2="-1441.37" y2="158.43" gradientTransform="matrix(-1 0 0 -1 -1421.5701 380)">
	<stop  offset="0" style="stop-color:#FFFFFF"/>
	<stop  offset="1" style="stop-color:#000000"/>
</linearGradient>
<path class="st49" d="M19.8,237c0.9,1.1,2,2,3.2,2.7l3.5,0.8c0,0,11-17.7,4.7-20.9s-9.3-10.4-10.6-16.9h-0.2
	c0.6,6.1,1.4,13.9,2.4,17.4C24.6,226.6,19.8,237,19.8,237z"/>
<polygon class="st3" points="27.3,240.5 44.1,240.5 56.6,218.8 39.8,218.8 "/>
<path class="st37" d="M40,229.7c0,0,3.1-0.8,4.7-1.1c1.2-0.3,2.9-0.7,2.8,0s-2.1,1-2.1,1.4s3.1,0,5.4-1.1s0.5,4.2-3.7,4.5
	c-2.7,0.2-5.5-0.1-8.1-0.8L40,229.7z"/>
<linearGradient id="SVGID_31_" gradientUnits="userSpaceOnUse" x1="-1462.4301" y1="166.2484" x2="-1432.6011" y2="166.2484" gradientTransform="matrix(-1 0 0 -1 -1421.5701 380)">
	<stop  offset="0" style="stop-color:#F5F5F5"/>
	<stop  offset="1" style="stop-color:#C6C6C5"/>
</linearGradient>
<path class="st50" d="M19.8,193.9c7.6,1.6-1.9,28.8,0,30.5s21.1,4.8,21.1,4.8l-0.7,4.4c0,0-23.6,0-28-5.4
	C8.4,223.5,14.8,192.8,19.8,193.9z"/>
<path class="st37" d="M27.4,192.1c2.4,4.3,10.2,4.5,10.3,0.7c-0.1-2.3-0.3-4.6-0.6-6.9c-0.3-2.3-0.7-4.2-0.7-4.2s-8.8-6.7-8.6-3.2
	S27.4,192.1,27.4,192.1z"/>
<linearGradient id="SVGID_32_" gradientUnits="userSpaceOnUse" x1="-1458.64" y1="198.3086" x2="-1449.396" y2="198.3086" gradientTransform="matrix(-1 0 0 -1 -1421.5701 380)">
	<stop  offset="0" style="stop-color:#FFFFFF"/>
	<stop  offset="1" style="stop-color:#000000"/>
</linearGradient>
<path class="st51" d="M27.8,178.5c1.5,4.9,7,6.8,9.2,7.4c-0.3-2.3-0.7-4.2-0.7-4.2S27.6,175,27.8,178.5z"/>
<path class="st37" d="M39.5,164.6c0,0,7.3,12.7,2.3,17.2s-10.9-2.2-11.9-3s-4.2-0.1-4.9-2.1s1-2.5,1.9-2.3s2.6,0.4,1.1-2.6
	s4-2.8,6.5-4C36.3,166.9,38,165.8,39.5,164.6z"/>
<path class="st37" d="M54.2,175.2c0,0-3.2-2.5-3.9-3.8s-0.8-2.4,0.9-1.1s3,2.2,3,2.2L54.2,175.2z"/>
<path class="st37" d="M55.1,164.8c0,0-1.8,2.5-3,3.1s-2.4,0.8-2.4,0.5s0.4-2,2.7-3.1S55.3,164.6,55.1,164.8z"/>
<path class="st37" d="M54.2,175.2c0,0-3.2-2.5-3.9-3.8s-0.8-2.4,0.9-1.1s3,2.2,3,2.2L54.2,175.2z"/>
<path class="st23" d="M126.8,22.8L126.8,22.8C126.9,22.8,126.9,22.8,126.8,22.8L126.8,22.8z"/>
<linearGradient id="SVGID_33_" gradientUnits="userSpaceOnUse" x1="126.82" y1="357.2667" x2="126.92" y2="357.2667" gradientTransform="matrix(1 0 0 -1 0 380)">
	<stop  offset="0" style="stop-color:#B3B3B3"/>
	<stop  offset="1" style="stop-color:#F0F3F5"/>
</linearGradient>
<path class="st52" d="M126.8,22.7C126.9,22.7,126.9,22.7,126.8,22.7L126.8,22.7z"/>
<image style="overflow:visible;enable-background:new    ;" width="151" height="152" xlink:href="1EA7BE58.png"  transform="matrix(0.48 0 0 0.48 114.72 25.44)">
</image>
<image style="overflow:visible;enable-background:new    ;" width="151" height="152" xlink:href="1EA7BE5F.png"  transform="matrix(0.48 0 0 0.48 114.72 25.44)">
</image>
<path class="st53" d="M205.9,347.9L205.9,347.9c4.1-8.2,0.8-18.2-7.4-22.4c0,0,0,0,0,0l-1.9-1c-7.1-3.6-15.9-0.7-19.4,6.4l-2,3.9
	c-3.6,7.2-0.7,15.9,6.4,19.5l1.9,1C191.7,359.5,201.7,356.2,205.9,347.9C205.9,348,205.9,347.9,205.9,347.9z"/>
<path class="st3" d="M136.4,346.3L136.4,346.3c1.6-0.1,3.1-0.3,4.7-0.6c14.3-1.3,29,2.9,29,2.9l15-29.8c-5.5-2.8-10.3-7.9-14-12.8
	c-1.9-2.5-3.7-5.2-5.3-7.9c-7.6-17.4-27.9-25.4-45.4-17.7s-25.4,27.9-17.7,45.4C108.4,339,121.9,347.2,136.4,346.3L136.4,346.3z"/>
<path class="st54" d="M113.8,339.7c22.5,3.7,44.7-7.8,54.6-28.3c0.9-1.9,1.8-4,2.4-6c-1.9-2.5-3.7-5.1-5.4-7.8
	c-7.9-17.3-28.3-25-45.6-17.2c-17.3,7.9-25,28.3-17.2,45.6C105.2,331.5,109,336.2,113.8,339.7L113.8,339.7z"/>
<path class="st55" d="M143.2,315.3c-0.3,0.5-0.5,1.1-0.8,1.6l-1.3-0.8c0,0,0.3-0.6,0.8-1.5l-3.3-1.7c-1.7-0.8-3.1-2.1-4.1-3.8
	c-1.2-2-1.3-4.5-0.2-6.6c1.2-2.4,4-3.5,6.5-2.8c3,0.8,5,3.6,4.8,6.7c-0.1,2.6-0.7,5.1-1.8,7.4l46.5,23.3l-0.7,1.4L143.2,315.3z
	 M135.7,308.4c0.8,1.4,2,2.5,3.5,3.2l3.2,1.6c0.9-2.2,1.5-4.5,1.6-6.8c0.1-2.4-1.4-4.5-3.7-5.2c-1.9-0.6-3.9,0.3-4.8,2
	c0,0.1-0.1,0.1-0.1,0.2C134.7,305.1,134.8,306.9,135.7,308.4z"/>
<path class="st55" d="M141.5,318.5c-1.3,2.2-3,4.2-4.9,5.8c-2.4,1.9-5.8,2-8.2,0.1c-2.1-1.6-2.9-4.5-1.7-6.9
	c1.1-2.1,3.1-3.5,5.5-3.8c1.9-0.2,3.8,0.2,5.5,1l3.3,1.6c0.5-0.9,0.7-1.5,0.7-1.5l1.4,0.6c0,0.1-0.3,0.7-0.8,1.6l46.4,23.3l-0.7,1.4
	L141.5,318.5z M128.1,318.1c-0.9,1.8-0.4,3.9,1.2,5.1c1.9,1.4,4.5,1.4,6.4-0.1c1.8-1.5,3.3-3.3,4.5-5.3l-3.2-1.6
	c-1.4-0.7-3-1-4.6-0.9c-1.7,0.2-3.3,1.2-4.1,2.7C128.1,318,128.1,318.1,128.1,318.1z"/>
<path class="st4" d="M182.7,355.5l15.4-30.6c0.7-1.4,0.2-3.2-1.3-3.9c0,0,0,0,0,0l0,0c-1.4-0.7-3.2-0.1-3.9,1.3c0,0,0,0,0,0
	l-15.4,30.6c-0.7,1.4-0.1,3.2,1.3,3.9c0,0,0,0,0,0l0,0C180.2,357.5,182,357,182.7,355.5C182.7,355.5,182.7,355.5,182.7,355.5z"/>
<path class="st56" d="M138,288.1c7,3.4,10.9,10,8.6,14.7s-9.9,5.7-16.9,2.3s-10.9-10-8.6-14.7S130.9,284.7,138,288.1z"/>
<path class="st56" d="M114.5,297.9c2.4,1.2,3.4,4.1,2.2,6.5s-4.1,3.4-6.5,2.2c-2.4-1.2-3.4-4.1-2.2-6.5
	C109.2,297.7,112.1,296.7,114.5,297.9C114.5,297.9,114.5,297.9,114.5,297.9z"/>
<path class="st55" d="M177.9,356.1c0.4,0,0.7,0,1.1-0.1c0.7-0.3,1.3-0.8,1.7-1.5l15.4-30.6c0.5-1,0.4-2.3-0.4-3.2
	c-0.4,0-0.7,0-1.1,0.1c-0.7,0.2-1.4,0.8-1.7,1.5l-15.4,30.6C176.9,353.9,177.1,355.2,177.9,356.1z"/>
<line class="st57" x1="192.9" y1="322.2" x2="177.5" y2="352.9"/>
<line class="st57" x1="192.9" y1="322.2" x2="177.5" y2="352.9"/>
<linearGradient id="SVGID_34_" gradientUnits="userSpaceOnUse" x1="117.1915" y1="307.7664" x2="145.2705" y2="307.7664" gradientTransform="matrix(0.9715 -0.2368 -0.2368 -0.9715 133.1905 668.9478)">
	<stop  offset="0" style="stop-color:#000000"/>
	<stop  offset="1" style="stop-color:#000000;stop-opacity:0"/>
</linearGradient>
<path class="st58" d="M182.7,355.5l15.4-30.6c0.7-1.4,0.2-3.2-1.3-3.9c0,0,0,0,0,0l0,0c-1.4-0.7-3.2-0.1-3.9,1.3c0,0,0,0,0,0
	l-15.4,30.6c-0.7,1.4-0.1,3.2,1.3,3.9c0,0,0,0,0,0l0,0C180.2,357.5,182,357,182.7,355.5C182.7,355.5,182.7,355.5,182.7,355.5z"/>
<linearGradient id="SVGID_35_" gradientUnits="userSpaceOnUse" x1="141.13" y1="324.919" x2="121.3307" y2="290.6203" gradientTransform="matrix(0.9715 -0.2368 -0.2368 -0.9715 133.1905 668.9478)">
	<stop  offset="0" style="stop-color:#FFFFFF"/>
	<stop  offset="1" style="stop-color:#FFFFFF;stop-opacity:0"/>
</linearGradient>
<path class="st59" d="M182.7,355.5l15.4-30.6c0.7-1.4,0.2-3.2-1.3-3.9c0,0,0,0,0,0l0,0c-1.4-0.7-3.2-0.1-3.9,1.3c0,0,0,0,0,0
	l-15.4,30.6c-0.7,1.4-0.1,3.2,1.3,3.9c0,0,0,0,0,0l0,0C180.2,357.5,182,357,182.7,355.5C182.7,355.5,182.7,355.5,182.7,355.5z"/>
<linearGradient id="SVGID_36_" gradientUnits="userSpaceOnUse" x1="75.324" y1="312.7409" x2="109.7781" y2="372.4107" gradientTransform="matrix(0.9715 -0.2368 -0.2368 -0.9715 133.1905 668.9478)">
	<stop  offset="0" style="stop-color:#000000"/>
	<stop  offset="1" style="stop-color:#000000;stop-opacity:0"/>
</linearGradient>
<path class="st60" d="M136.4,346.3L136.4,346.3c1.6-0.1,3.1-0.3,4.7-0.6c14.3-1.3,29,2.9,29,2.9l15-29.8c-5.5-2.8-10.3-7.9-14-12.8
	c-1.9-2.5-3.7-5.2-5.3-7.9c-7.6-17.4-27.9-25.4-45.4-17.7s-25.4,27.9-17.7,45.4C108.4,339,121.9,347.2,136.4,346.3L136.4,346.3z"/>
<linearGradient id="SVGID_37_" gradientUnits="userSpaceOnUse" x1="75.324" y1="312.7409" x2="109.7781" y2="372.4107" gradientTransform="matrix(0.9715 -0.2368 -0.2368 -0.9715 133.1905 668.9478)">
	<stop  offset="0" style="stop-color:#FFFFFF;stop-opacity:0"/>
	<stop  offset="1" style="stop-color:#FFFFFF"/>
</linearGradient>
<path class="st61" d="M136.4,346.3L136.4,346.3c1.6-0.1,3.1-0.3,4.7-0.6c14.3-1.3,29,2.9,29,2.9l15-29.8c-5.5-2.8-10.3-7.9-14-12.8
	c-1.9-2.5-3.7-5.2-5.3-7.9c-7.6-17.4-27.9-25.4-45.4-17.7s-25.4,27.9-17.7,45.4C108.4,339,121.9,347.2,136.4,346.3L136.4,346.3z"/>
<linearGradient id="SVGID_38_" gradientUnits="userSpaceOnUse" x1="51.0165" y1="350.7568" x2="122.7268" y2="350.7568" gradientTransform="matrix(0.9715 -0.2368 -0.2368 -0.9715 133.1905 668.9478)">
	<stop  offset="0" style="stop-color:#FFFFFF"/>
	<stop  offset="1" style="stop-color:#FFFFFF;stop-opacity:0"/>
</linearGradient>
<path class="st62" d="M113.8,339.7c22.5,3.7,44.7-7.8,54.6-28.3c0.9-1.9,1.8-4,2.4-6c-1.9-2.5-3.7-5.1-5.4-7.8
	c-7.9-17.3-28.3-25-45.6-17.2c-17.3,7.9-25,28.3-17.2,45.6C105.2,331.5,109,336.2,113.8,339.7L113.8,339.7z"/>
<path class="st4" d="M178,353.1l15.4-30.6c0.7-1.4,0.2-3.2-1.3-3.9c0,0,0,0,0,0l0,0c-1.4-0.7-3.2-0.1-3.9,1.3c0,0,0,0,0,0
	l-15.4,30.6c-0.7,1.4-0.1,3.2,1.3,3.9c0,0,0,0,0,0l0,0C175.5,355.1,177.3,354.6,178,353.1z"/>
<path class="st55" d="M173.1,353.7c0.4,0,0.7,0,1.1-0.1c0.7-0.2,1.4-0.8,1.7-1.5l15.4-30.6c0.5-1,0.4-2.3-0.4-3.2
	c-0.4,0-0.7,0-1.1,0.1c-0.7,0.2-1.4,0.8-1.7,1.5l-15.4,30.6C172.2,351.5,172.3,352.8,173.1,353.7z"/>
<linearGradient id="SVGID_39_" gradientUnits="userSpaceOnUse" x1="113.1621" y1="311.2107" x2="141.2411" y2="311.2107" gradientTransform="matrix(0.9715 -0.2368 -0.2368 -0.9715 133.1905 668.9478)">
	<stop  offset="0" style="stop-color:#000000"/>
	<stop  offset="1" style="stop-color:#000000;stop-opacity:0"/>
</linearGradient>
<path class="st63" d="M178,353.1l15.4-30.6c0.7-1.4,0.2-3.2-1.3-3.9c0,0,0,0,0,0l0,0c-1.4-0.7-3.2-0.1-3.9,1.3c0,0,0,0,0,0
	l-15.4,30.6c-0.7,1.4-0.1,3.2,1.3,3.9c0,0,0,0,0,0l0,0C175.5,355.1,177.3,354.6,178,353.1z"/>
<linearGradient id="SVGID_40_" gradientUnits="userSpaceOnUse" x1="137.1006" y1="328.3613" x2="117.3022" y2="294.064" gradientTransform="matrix(0.9715 -0.2368 -0.2368 -0.9715 133.1905 668.9478)">
	<stop  offset="0" style="stop-color:#FFFFFF"/>
	<stop  offset="1" style="stop-color:#FFFFFF;stop-opacity:0"/>
</linearGradient>
<path class="st64" d="M178,353.1l15.4-30.6c0.7-1.4,0.2-3.2-1.3-3.9c0,0,0,0,0,0l0,0c-1.4-0.7-3.2-0.1-3.9,1.3c0,0,0,0,0,0
	l-15.4,30.6c-0.7,1.4-0.1,3.2,1.3,3.9c0,0,0,0,0,0l0,0C175.5,355.1,177.3,354.6,178,353.1z"/>
<path class="st4" d="M169.2,352c0.7,0.4,1.5,0.4,2.2,0.2c0.7-0.3,1.3-0.8,1.7-1.5l15.4-30.7c0.7-1.4,0.2-3.2-1.3-3.9c0,0,0,0,0,0
	c-0.4-0.2-0.8-0.3-1.2-0.3c-0.4,0-0.7,0-1.1,0.1c-0.7,0.2-1.4,0.8-1.7,1.5L167.9,348C167.1,349.5,167.7,351.2,169.2,352L169.2,352z"
	/>
<path class="st55" d="M168.2,351.2c0.4,0,0.7,0,1.1-0.1c0.7-0.3,1.3-0.8,1.7-1.5l15.4-30.6c0.5-1,0.4-2.3-0.4-3.2
	c-0.4,0-0.7,0-1.1,0.1c-0.7,0.2-1.4,0.8-1.7,1.5L167.9,348C167.3,349,167.5,350.3,168.2,351.2z"/>
<linearGradient id="SVGID_41_" gradientUnits="userSpaceOnUse" x1="109.0044" y1="314.7308" x2="137.0728" y2="314.7308" gradientTransform="matrix(0.9715 -0.2368 -0.2368 -0.9715 133.1905 668.9478)">
	<stop  offset="0" style="stop-color:#000000"/>
	<stop  offset="1" style="stop-color:#000000;stop-opacity:0"/>
</linearGradient>
<path class="st65" d="M169.2,352c0.7,0.4,1.5,0.4,2.2,0.2c0.7-0.3,1.3-0.8,1.7-1.5l15.4-30.7c0.7-1.4,0.2-3.2-1.3-3.9c0,0,0,0,0,0
	c-0.4-0.2-0.8-0.3-1.2-0.3c-0.4,0-0.7,0-1.1,0.1c-0.7,0.2-1.4,0.8-1.7,1.5L167.9,348C167.1,349.5,167.7,351.2,169.2,352L169.2,352z"
	/>
<linearGradient id="SVGID_42_" gradientUnits="userSpaceOnUse" x1="132.9332" y1="331.9105" x2="113.1332" y2="297.6105" gradientTransform="matrix(0.9715 -0.2368 -0.2368 -0.9715 133.1905 668.9478)">
	<stop  offset="0" style="stop-color:#FFFFFF"/>
	<stop  offset="1" style="stop-color:#FFFFFF;stop-opacity:0"/>
</linearGradient>
<path class="st66" d="M169.2,352c0.7,0.4,1.5,0.4,2.2,0.2c0.7-0.3,1.3-0.8,1.7-1.5l15.4-30.7c0.7-1.4,0.2-3.2-1.3-3.9c0,0,0,0,0,0
	c-0.4-0.2-0.8-0.3-1.2-0.3c-0.4,0-0.7,0-1.1,0.1c-0.7,0.2-1.4,0.8-1.7,1.5L167.9,348C167.1,349.5,167.7,351.2,169.2,352L169.2,352z"
	/>
<linearGradient id="SVGID_43_" gradientUnits="userSpaceOnUse" x1="122.7259" y1="303.6878" x2="150.6081" y2="303.6878" gradientTransform="matrix(0.9715 -0.2368 -0.2368 -0.9715 133.1905 668.9478)">
	<stop  offset="0" style="stop-color:#FFFFFF;stop-opacity:0"/>
	<stop  offset="1" style="stop-color:#FFFFFF"/>
</linearGradient>
<path class="st67" d="M205.9,347.9L205.9,347.9c4.1-8.2,0.8-18.2-7.4-22.4c0,0,0,0,0,0l-0.6-0.3L183,355.1l0.5,0.3
	C191.7,359.5,201.7,356.1,205.9,347.9z"/>
</svg>
