<svg xmlns="http://www.w3.org/2000/svg" xmlns:xlink="http://www.w3.org/1999/xlink" id="Camada_1" x="0px" y="0px" viewBox="0 0 300 300" style="enable-background:new 0 0 300 300;" xml:space="preserve">
<style type="text/css">
	.st0{fill-rule:evenodd;clip-rule:evenodd;fill:#FFFFFF;}
	.st1{fill:#FFFFFF;}
</style>
<g>
	<path class="st0" d="M127.5,204.6c-1-13-13.4-25.8-33.4-19.5c-18,5.6-33.6,22.3-44.5,35.8c-5.4,6.7-18.7,21-12.3,34.1   c6.7,13.9,48.6,17,56.6,17.5c0.7,0,1.3-0.5,1.3-1.2c0.2-11,0.7-19.1,8.6-26.6C117.8,231.2,128.5,218.1,127.5,204.6z M101,213.1   c-4.8,0-8.7-3.9-8.7-8.7c0-4.8,3.9-8.7,8.7-8.7c4.8,0,8.7,3.9,8.7,8.7C109.7,209.1,105.8,213.1,101,213.1z"></path>
	<path class="st0" d="M150,260.3c5.6,0.1,14.8,0.7,18.3,6.5c1.7,3,1.8,5.3,0.2,8.5c-2.8,5.3-7.7,10.3-10.8,11.9   c-2.3,1.1-5.3,1.1-7.7,1.1s-5.4,0-7.7-1.1c-3.1-1.5-8-6.5-10.8-11.9c-1.7-3.2-1.6-5.5,0.2-8.5C135.1,261,144.3,260.4,150,260.3   L150,260.3z"></path>
	<path class="st0" d="M250.3,220.9c-10.9-13.5-26.5-30.2-44.5-35.8c-20-6.3-32.4,6.5-33.4,19.5c-1,13.5,9.7,26.6,23.7,40.1   c7.9,7.5,8.4,15.6,8.6,26.6c0,0.7,0.6,1.3,1.3,1.2c7.9-0.5,49.9-3.6,56.6-17.5C268.9,241.9,255.7,227.6,250.3,220.9z M198.8,213.1   c-4.8,0-8.7-3.9-8.7-8.7c0-4.8,3.9-8.7,8.7-8.7c4.8,0,8.7,3.9,8.7,8.7C207.6,209.1,203.6,213.1,198.8,213.1z"></path>
	<path class="st0" d="M287.2,121.1c1-7.9,0.5-13.2-7.1-19c-6.1-4.6-13.4-5.9-20.9-5.4c-11.1,0.7-23.2,1.2-48.3,12.4   c-1,0.5-2.2,0.6-3.3,0.4c-0.3-0.1-0.6-0.1-1-0.2c-12-5.4-32.9-9-56.6-9c-23.6,0-44.3,3.5-56.4,8.9c-0.5,0.1-1,0.2-1.4,0.3   c-1.1,0.2-2.3,0.1-3.3-0.4C63.9,98,51.7,97.4,40.6,96.8c-7.5-0.5-14.8,0.8-20.9,5.4c-7.6,5.8-8.1,11-7.1,19   c1.7,13.8,18.2,34.8,26.5,52c0.8,1.7,0.7,3.6-0.3,5.2c-5.7,9.5-11.4,24.3-15.3,35.4c-2.2,6.2-1.9,11.4-1.8,12.8   c2.4-1.3,4.9-5.6,7.1-9.8c9.1-17.1,34.5-52.3,64.3-64.3c15.4-6.2,29.8-1.9,36.4,5.8c14.9,17.2,4.9,39.2,4.9,56.3   c0,12.3,6,20.7,15.5,21.3v0c0,0,0,0,0,0c0,0,0,0,0,0v0c9.5-0.6,15.5-9,15.5-21.3c0-17.1-10.1-39.1,4.9-56.3   c6.6-7.7,21-11.9,36.4-5.8c29.8,11.9,55.2,47.2,64.3,64.3c2.2,4.2,4.7,8.5,7.1,9.8c0.1-1.3,0.3-6.5-1.8-12.8   c-3.9-11.1-9.6-25.9-15.3-35.4c-1-1.6-1.1-3.6-0.3-5.2C269,156,285.5,134.9,287.2,121.1z M75.2,121.7c-2.8,3.6-9,10.7-12.6,15.2   c-3.3,4.1-12.2,16-12.2,16.1c-0.6,0.7-2.4,0.2-3-0.5c-5.3-7-11.9-19.3-13.3-27.7c-0.8-4.7-0.4-9.6,4.2-13   c3.7-2.8,10.3-1.4,14.7-0.3c4.2,1,15.8,4.9,22.1,8C76,119.8,75.9,120.8,75.2,121.7z M252.5,152.4c-0.6,0.8-2.4,1.3-3,0.5   c0,0-8.9-11.9-12.2-16.1c-3.6-4.6-9.8-11.7-12.6-15.2c-0.7-0.9-0.8-1.9,0.2-2.4c6.3-3,17.9-6.9,22.1-8c4.4-1.1,11-2.4,14.7,0.3   c4.5,3.5,5,8.3,4.2,13C264.3,133.1,257.7,145.4,252.5,152.4z"></path>
	<g>
		<polygon class="st1" points="149.9,109.6 149.9,109.6 149.9,109.6   "></polygon>
		<path class="st1" d="M149.9,11.7L0.9,58.2c-1.1,0.4-1.2,2,0,2.3L82,87.2c0.6,0.2,1.1-0.1,1.4-0.6c5.2-9.4,33-16.6,66.6-16.6    c33.5,0,61.3,7.2,66.6,16.5c0.3,0.5,0.9,0.8,1.4,0.6l81.1-26.6c1.1-0.4,1.1-2,0-2.3L150.1,11.7"></path>
		<polygon class="st1" points="150.1,109.6 150.1,109.6 150.1,109.6   "></polygon>
	</g>
	<path class="st1" d="M148.8,79.9c-23.3,0-43.8,3.4-55.9,8.7c-0.4,0.2-0.7,0.6-0.7,1.1v14.1c12-5.4,32.9-9,56.6-9   c24,0,45.1,3.7,57.1,9.2V89.9c0-0.5-0.3-0.9-0.7-1.1C193.1,83.4,172.4,79.9,148.8,79.9z"></path>
</g>
</svg>