<svg id="Componente_33_2" data-name="Componente 33 – 2" xmlns="http://www.w3.org/2000/svg" xmlns:xlink="http://www.w3.org/1999/xlink" width="618" height="500.535" viewBox="0 0 618.29 529.535">
  <defs>
    <linearGradient id="linear-gradient" x1="-460.853" y1="-193.079" x2="-460.999" y2="-191.836" gradientUnits="objectBoundingBox">
      <stop offset="0" stop-color="#f0c3a8"/>
      <stop offset="1" stop-color="#fff"/>
    </linearGradient>
    <linearGradient id="linear-gradient-2" x1="174.834" y1="-74.1" x2="175.835" y2="-74.1" gradientUnits="objectBoundingBox">
      <stop offset="0" stop-color="#f9b776"/>
      <stop offset="1" stop-color="#f47960"/>
    </linearGradient>
    <linearGradient id="linear-gradient-3" x1="150.325" y1="-65.764" x2="151.354" y2="-65.764" xlink:href="#linear-gradient-2"/>
    <linearGradient id="linear-gradient-4" x1="0.545" y1="0.085" x2="0.424" y2="0.998" xlink:href="#linear-gradient"/>
    <linearGradient id="linear-gradient-5" x1="0.588" y1="0.082" x2="0.432" y2="0.994" xlink:href="#linear-gradient"/>
    <linearGradient id="linear-gradient-6" x1="0.571" y1="0.089" x2="0.431" y2="0.993" xlink:href="#linear-gradient"/>
    <linearGradient id="linear-gradient-7" x1="0.177" y1="0.446" x2="0.869" y2="0.51" xlink:href="#linear-gradient"/>
  </defs>
  <path id="Caminho_4079" data-name="Caminho 4079" d="M5220.406,2524.754a9.316,9.316,0,0,1-8.685-5.159h0c-.482,2.954,1.565,5.746,4.8,6.548a33.246,33.246,0,0,0,12.568,1.177,13.142,13.142,0,0,0,9.193-4.236h0C5234.489,2524.987,5229.051,2525.428,5220.406,2524.754Z" transform="translate(-5211.635 -2014.628)" fill="#232323"/>
  <path id="Caminho_4083" data-name="Caminho 4083" d="M5590.007,2524.632l3.933-.3.622,7.2-3.995-1.115Z" transform="translate(-5294.728 -2015.667)" fill="#232323"/>
  <path id="Caminho_4084" data-name="Caminho 4084" d="M5558.185,2480.921a9.821,9.821,0,0,0,4.089.4c3.065-.238,8.343-1.763,13.373-7.553,4.941-5.686,8.593-8.079,14.125-10.268-1.423-18.825-5.134-72.27-3.8-100.689,1.64-34.886,6.965-77.386,4.454-110.049l-35.639.591s1.567,14.54.915,39.3-2.553,46.767,3.091,90.522c4.816,37.347,9.221,77.338,8.55,81C5565.766,2472.827,5558.377,2478.618,5558.185,2480.921Z" transform="translate(-5286.994 -1956.027)" fill="#f29d7e"/>
  <path id="Caminho_4085" data-name="Caminho 4085" d="M5554.175,2258.679l35.639-.591c.566,7.367.732,15.237.633,23.405a59.762,59.762,0,0,0-25.644-2.187,37.3,37.3,0,0,0-9.578,2.321C5555.065,2266.948,5554.175,2258.679,5554.175,2258.679Z" transform="translate(-5286.858 -1957.196)" fill="#ccc" style="mix-blend-mode: multiply;isolation: isolate"/>
  <path id="Caminho_4086" data-name="Caminho 4086" d="M5560.765,2541.312a18.752,18.752,0,0,0,12.965-4.4c4.485-3.854,9.008-9.916,13.408-11.833.32,1.654.289,3.339.645,6.11a19.027,19.027,0,0,0,3.468-1.61s-.206-2.493-.523-6.774c-5.533,2.188-9.185,4.582-14.126,10.268-5.029,5.791-10.307,7.315-13.372,7.553a9.814,9.814,0,0,1-4.089-.4C5559.09,2540.842,5559.55,2541.205,5560.765,2541.312Z" transform="translate(-5287.948 -2015.333)"/>
  <path id="Caminho_4087" data-name="Caminho 4087" d="M5556.294,2359.236c.274,3.171,3.435,5.514,7.058,5.233s6.341-3.079,6.066-6.25-3.434-5.514-7.058-5.233S5556.021,2356.064,5556.294,2359.236Z" transform="translate(-5287.32 -1978.032)" fill="#ed6d53"/>
  <path id="Caminho_4088" data-name="Caminho 4088" d="M5563.229,2539.6a9.814,9.814,0,0,1-4.089-.4c.116-1.4,2.882-4.087,5.393-7.913,5.884,1.147,9.037-1.788,9.037-1.788,2.955-4.77,11.009-10.069,16.884-11.385.1,1.33.189,2.562.273,3.665-5.533,2.188-9.185,4.582-14.126,10.268C5571.572,2537.833,5566.3,2539.358,5563.229,2539.6Z" transform="translate(-5287.949 -2014.302)"/>
  <path id="Caminho_4089" data-name="Caminho 4089" d="M5477.988,2524.025l3.878.349-1.268,7.234-3.569-1.766Z" transform="translate(-5269.916 -2015.601)" fill="#232323"/>
  <path id="Caminho_4090" data-name="Caminho 4090" d="M5443.145,2474.733a8.961,8.961,0,0,0,3.845,1.074c3.023.271,8.517-.366,14.879-5.27,6.248-4.816,10.4-6.583,16.309-7.835,3.513-18.887,15.666-64.654,24.027-112.368,6.508-37.142,10.022-66.016,14.042-99.526l-36.494-4.937s-1.341,27.255-3.374,54.5c-2.062,27.628-2.851,33.891-7.212,72.878-4.232,37.839-11.228,82.9-12.826,86.416C5452.569,2467.969,5443.928,2472.482,5443.145,2474.733Z" transform="translate(-5262.475 -1954.513)" fill="#f29d7e"/>
  <path id="Caminho_4091" data-name="Caminho 4091" d="M5444.417,2537.1a19.253,19.253,0,0,0,13.666-2.211c5.333-3.076,11.274-8.333,16.022-9.5-.12,1.691-.588,3.356-.963,6.16a20.421,20.421,0,0,0,3.769-1.021s.448-2.5,1.251-6.8c-5.912,1.252-10.06,3.02-16.309,7.835-6.362,4.9-11.855,5.542-14.878,5.27a8.965,8.965,0,0,1-3.845-1.074C5442.921,2536.355,5443.271,2536.791,5444.417,2537.1Z" transform="translate(-5262.459 -2015.534)"/>
  <path id="Caminho_4092" data-name="Caminho 4092" d="M5522.22,2279.416a50.461,50.461,0,0,0-16.17-4.883c-6.64-.886-13.682.535-18.883,2.09.914-14.986,1.454-25.965,1.454-25.965l36.495,4.938C5524.137,2263.748,5523.188,2271.626,5522.22,2279.416Z" transform="translate(-5272.142 -1955.565)" fill="#ccc" style="mix-blend-mode: multiply;isolation: isolate"/>
  <path id="Caminho_4093" data-name="Caminho 4093" d="M5483.862,2354.178c-.559,3.187,1.886,6.031,5.459,6.354s6.924-2,7.481-5.189-1.886-6.031-5.459-6.354S5484.421,2350.991,5483.862,2354.178Z" transform="translate(-5271.399 -1977.153)" fill="#ed6d53"/>
  <path id="Caminho_4094" data-name="Caminho 4094" d="M5446.989,2535.862a8.962,8.962,0,0,1-3.845-1.074c.4-1.164,2.912-2.939,5.758-5.523,5.943,2.341,9.939-.459,9.939-.459,4.106-4.739,14.066-9.4,20.008-9.482-.249,1.221-.477,2.375-.673,3.432-5.912,1.252-10.061,3.02-16.309,7.835C5455.506,2535.5,5450.013,2536.134,5446.989,2535.862Z" transform="translate(-5262.475 -2014.568)"/>
  <g id="Grupo_9690" data-name="Grupo 9690" transform="translate(368.057 300.798)">
    <path id="Caminho_4098" data-name="Caminho 4098" d="M5715.091,2530.515l3.943-.115.275,7.219-3.937-1.306Z" transform="translate(-5690.255 -2317.799)" fill="#232323"/>
    <path id="Caminho_4099" data-name="Caminho 4099" d="M5683.277,2485.435a9.805,9.805,0,0,0,4.065.6c3.073-.09,8.418-1.359,13.721-6.9,5.209-5.442,8.972-7.656,14.6-9.575-.513-18.872-1.647-72.433,1.058-100.755,3.317-34.767,10.683-76.961,9.748-109.706l-35.625-1.127s.865,14.6-.979,39.3-4.8,46.589-1.272,90.565c3.013,37.536,5.486,77.693,4.64,81.321C5691.239,2477.715,5683.58,2483.144,5683.277,2485.435Z" transform="translate(-5683.268 -2257.968)" fill="#b26550"/>
    <path id="Caminho_4100" data-name="Caminho 4100" d="M5692.088,2263.257l35.626,1.127c.21,7.386,0,15.255-.5,23.409a59.754,59.754,0,0,0-25.508-3.419,37.287,37.287,0,0,0-9.679,1.856C5692.58,2271.56,5692.088,2263.257,5692.088,2263.257Z" transform="translate(-5685.19 -2259.13)" fill="#ccc" style="mix-blend-mode: multiply;isolation: isolate"/>
    <path id="Caminho_4101" data-name="Caminho 4101" d="M5684.846,2546.142a18.751,18.751,0,0,0,13.162-3.768c4.666-3.634,9.475-9.47,13.962-11.174.24,1.667.127,3.35.349,6.134a19.072,19.072,0,0,0,3.542-1.441s-.086-2.5-.2-6.791c-5.63,1.92-9.393,4.134-14.6,9.575-5.3,5.541-10.647,6.81-13.721,6.9a9.808,9.808,0,0,1-4.065-.6C5683.2,2545.592,5683.638,2545.978,5684.846,2546.142Z" transform="translate(-5683.266 -2317.513)"/>
    <path id="Caminho_4102" data-name="Caminho 4102" d="M5689.306,2363.722c.121,3.181,3.164,5.673,6.8,5.567s6.481-2.77,6.36-5.95-3.165-5.673-6.8-5.567S5689.185,2360.542,5689.306,2363.722Z" transform="translate(-5684.591 -2279.886)" fill="#a34b36"/>
    <path id="Caminho_4103" data-name="Caminho 4103" d="M5687.342,2544.543a9.808,9.808,0,0,1-4.065-.6c.184-1.391,3.076-3.944,5.768-7.644,5.821,1.43,9.112-1.35,9.112-1.35,3.181-4.622,11.482-9.527,17.413-10.559.034,1.333.066,2.569.1,3.675-5.63,1.92-9.393,4.134-14.6,9.575C5695.76,2543.185,5690.415,2544.454,5687.342,2544.543Z" transform="translate(-5683.268 -2316.479)"/>
  </g>
  <g id="Grupo_9691" data-name="Grupo 9691" transform="translate(311.963 295.38)">
    <path id="Caminho_4104" data-name="Caminho 4104" d="M5644.851,2529.056l3.894-.016-.583,7.321-3.719-1.423Z" transform="translate(-5618.646 -2312.082)" fill="#232323"/>
    <path id="Caminho_4105" data-name="Caminho 4105" d="M5611.425,2482.313a8.983,8.983,0,0,0,3.93.708c3.036-.013,8.444-1.163,14.318-6.643,5.769-5.381,9.734-7.529,15.5-9.331,1.725-19.134,9.531-65.838,13.378-114.127,2.995-37.59,3.786-66.665,4.644-100.4l-36.8-1.492s1.223,27.261,1.753,54.574c.54,27.7.342,34.009-.342,73.233-.664,38.07-3.4,83.584-4.662,87.239C5620.173,2474.695,5611.994,2480,5611.425,2482.313Z" transform="translate(-5611.395 -2251.025)" fill="#b26550"/>
    <path id="Caminho_4106" data-name="Caminho 4106" d="M5612.825,2544.323a19.25,19.25,0,0,0,13.4-3.483c5.02-3.563,10.442-9.354,15.06-10.966.039,1.695-.27,3.4-.381,6.223a20.36,20.36,0,0,0,3.656-1.37s.211-2.535.608-6.885c-5.768,1.8-9.733,3.95-15.5,9.33-5.874,5.48-11.282,6.629-14.318,6.643a8.981,8.981,0,0,1-3.93-.708C5611.267,2543.724,5611.655,2544.126,5612.825,2544.323Z" transform="translate(-5611.386 -2311.819)"/>
    <path id="Caminho_4107" data-name="Caminho 4107" d="M5666.192,2281.367a50.492,50.492,0,0,0-16.558-3.345c-6.694-.259-13.572,1.817-18.6,3.853-.5-15.005-.988-25.987-.988-25.987l36.8,1.491C5666.629,2265.588,5666.425,2273.521,5666.192,2281.367Z" transform="translate(-5615.483 -2252.093)" fill="#ccc" style="mix-blend-mode: multiply;isolation: isolate"/>
    <path id="Caminho_4108" data-name="Caminho 4108" d="M5634.765,2359.246c-.257,3.226,2.443,5.828,6.032,5.813s6.7-2.642,6.962-5.868-2.443-5.829-6.032-5.813S5635.022,2356.02,5634.765,2359.246Z" transform="translate(-5616.516 -2273.503)" fill="#a34b36"/>
    <path id="Caminho_4109" data-name="Caminho 4109" d="M5615.354,2542.835a8.979,8.979,0,0,1-3.93-.708c.294-1.2,2.624-3.2,5.215-6.039,6.137,1.774,9.852-1.389,9.852-1.389,3.645-5.1,13.123-10.681,19.03-11.317-.133,1.239-.251,2.41-.348,3.48-5.768,1.8-9.733,3.95-15.5,9.33C5623.8,2541.673,5618.39,2542.822,5615.354,2542.835Z" transform="translate(-5611.395 -2310.839)"/>
  </g>
  <path id="Caminho_4110" data-name="Caminho 4110" d="M5688.815,2108.295c1.008,8.745,17.86,28.475,25.61,53.776s5.8,78.909,5.8,78.909-21.619,2.887-67.187-.979c-44.821-3.8-61.309-8.625-61.309-8.625s1.175-24.485,10.062-60.168,26.357-46.827,29.1-57.921Z" transform="translate(-5295.107 -1924.299)" fill="#ff4f00"/>
  <g id="Grupo_9721" data-name="Grupo 9721" transform="translate(-661.71 -242.022)">
    <path id="Caminho_4095" data-name="Caminho 4095" d="M5764,2527.284l-.4,10.277s-5.739,2-18.954-.534-25.36.267-33.9-.8-6.941-7.074-6.941-7.074,2.2-.944,19.22-3.337c8.543-1.2,11.079-4.8,11.079-4.8Z" transform="translate(-4657.982 -1772.916)" fill="#232323"/>
    <path id="Caminho_4096" data-name="Caminho 4096" d="M5982.024,2496.545l6.248,8.171s-1.754,4.045-13.548,10.521-19.838,14.5-33.235,14.815c-11.212.267-8.542-5.338-8.542-5.338a91.83,91.83,0,0,0,10.011-3.337c8.009-3.2,11.612-11.079,11.612-11.079Z" transform="translate(-4708.272 -1767.543)" fill="#232323"/>
    <path id="Caminho_4097" data-name="Caminho 4097" d="M5858.929,2156.015c8.72,35.771,11.39,108.382,29.542,158.035s53.391,106.78,53.391,106.78c-4.792,5.7-24.811,19.218-34.7,19.755,0,0-30.433-45.382-60.865-111.586s-30.966-110.785-30.966-110.785-16.551,21.624-28.3,96.37-13.347,132.941-13.347,132.941c-7.976,2.011-29.178.058-36.839-3.737,0,0,0-49.653,4.8-126s25.628-137.747,25.628-137.747l-5.162-17.262Z" transform="translate(-4665.266 -1692.757)"/>
    <g id="Grupo_9698" data-name="Grupo 9698" transform="translate(1069.652 242.022)">
      <path id="Caminho_4111" data-name="Caminho 4111" d="M5774.7,2170.915c10.669,1.764,33.879,3.28,49.019,1.6s43.369-5.225,43.369-5.225l6.9,42.8-111.947,9.386Z" transform="translate(-5740.45 -1937.255)"/>
      <path id="Caminho_4112" data-name="Caminho 4112" d="M5867.34,2200.249c-3.2,7.456-3.418,8.727-3.418,8.727l18.556,8.949,3.041-13.718Z" transform="translate(-5762.826 -1944.494)" fill="#f29d7e"/>
      <path id="Caminho_4113" data-name="Caminho 4113" d="M5815.973,2001.669a25.414,25.414,0,0,1-7.207,6.8c-4.437.353-8.812.88-12.97,1.132a28.7,28.7,0,0,1-10.7-6.058,77.487,77.487,0,0,1-14.534-16.091c14.383-6.139,16.623-5.51,17.664-11.448,1.149-6.563-3.3-40.613-3.3-40.613l29.557-1.937s3.8,33.653,5.157,39.207c.822,3.358,5.039,5.4,11,7.5C5826.524,1987.753,5821.291,1994.8,5815.973,2001.669Z" transform="translate(-5742.324 -1885.901)" fill="#f29d7e"/>
      <path id="Caminho_4114" data-name="Caminho 4114" d="M5791.479,1979.867c.158-.453.792-2.6.9-3.215,1.1-6.558-2.372-41.321-2.372-41.321l28.594-1.864s3.756,33.656,5.086,39.213a5.633,5.633,0,0,0,1.313,2.432Z" transform="translate(-5746.592 -1885.904)" fill="url(#linear-gradient)" style="mix-blend-mode: multiply;isolation: isolate"/>
      <path id="Caminho_4115" data-name="Caminho 4115" d="M5797.546,1970.711c-1.283.172-3.286,1.387-4.452,1.345a117.117,117.117,0,0,1-.369-25.707l19.079-2.223C5812.667,1957.855,5807.771,1969.455,5797.546,1970.711Z" transform="translate(-5747.071 -1888.245)" fill="#cbc7ff" opacity="0.58" style="mix-blend-mode: multiply;isolation: isolate"/>
      <path id="Caminho_4116" data-name="Caminho 4116" d="M5766.6,1923.49c2.949,14.457,13.693,23.047,30.815,19.391,13.135-2.678,21.393-16.568,18.444-31.025s-9.822-25.261-29.12-21.326C5765.487,1894.863,5763.649,1909.034,5766.6,1923.49Z" transform="translate(-5741.211 -1876.295)" fill="#f29d7e"/>
      <path id="Caminho_4117" data-name="Caminho 4117" d="M5779.265,1992.23s-26.6,10.107-30.973,15.651c-8.555,10.849-12.352,61.343-13.871,91.1-.652,12.77,8.666,24.141,22.146,27.021l15.027,3.211-5.367-80.557s3.427,54.339,1.562,68.9,2.442,17.395,2.442,17.395,17.7,4.724,45.019,2.5,34.981-4.011,34.981-4.011l-5.667,22.039,23.778,4.3s22.3-51.117,22.774-74.361-15.914-74.168-32.335-84-39.656-11.66-39.656-11.66c-2.679,7.344-16.348,23.516-21.774,28.5C5792.029,2013.472,5781.841,1998.886,5779.265,1992.23Z" transform="translate(-5734.379 -1898.267)" fill="#faf8dc"/>
      <path id="Caminho_4118" data-name="Caminho 4118" d="M5755.624,2040.569c-3.562-5.19-7.472-10.159-11.448-15.084-3.913,12.132-7.4,35.257-9.757,81.344-1.381,27.043,31.455,28.539,33.151,29.373.147,1.107-4.31-36.428-7.7-51.035A161.248,161.248,0,0,1,5755.624,2040.569Z" transform="translate(-5734.376 -1906.113)" fill="#cbc7ff" opacity="0.7" style="mix-blend-mode: multiply;isolation: isolate"/>
      <path id="Caminho_4119" data-name="Caminho 4119" d="M5874.85,2049.962l14.961,50.083-11.8,46.619-17.14,2.138s10.373-26.759,12.033-43.813S5874.85,2049.962,5874.85,2049.962Z" transform="translate(-5762.156 -1911.488)" fill="#cbc7ff" opacity="0.7" style="mix-blend-mode: multiply;isolation: isolate"/>
      <path id="Caminho_4120" data-name="Caminho 4120" d="M5735.307,2141.143c2.844,17.292,23.435,68.926,23.435,68.926l19.49-14-12.345-47.206C5760.983,2143.1,5742.167,2137.609,5735.307,2141.143Z" transform="translate(-5734.581 -1931.268)" fill="#f29d7e"/>
      <g id="Grupo_9697" data-name="Grupo 9697" transform="translate(20.306)">
        <g id="Grupo_9694" data-name="Grupo 9694" transform="translate(53.803 40.076)">
          <g id="Grupo_9693" data-name="Grupo 9693">
            <path id="Caminho_4121" data-name="Caminho 4121" d="M5829.453,1924.028s5.6-1.524,6.208,5.023-6.319,6-6.319,6Z" transform="translate(-5829.342 -1923.874)" fill="#f29d7e"/>
          </g>
        </g>
        <g id="Grupo_9696" data-name="Grupo 9696" transform="translate(0 40.874)">
          <g id="Grupo_9695" data-name="Grupo 9695">
            <path id="Caminho_4122" data-name="Caminho 4122" d="M5766.109,1924.949s-5.719-.993-5.712,5.581,6.852,5.381,6.852,5.381Z" transform="translate(-5760.397 -1924.896)" fill="#f29d7e"/>
          </g>
        </g>
        <path id="Caminho_4123" data-name="Caminho 4123" d="M5816.108,1932.469q-.015-.322-.034-.641a38.978,38.978,0,0,1-1.909,7.951,29.019,29.019,0,0,1-5.444,8.469,30.889,30.889,0,0,0-6.046-6.829c-3.326-2.549-12.62-2.915-17.531-.181a17.36,17.36,0,0,0-6.962,7.839c-2.254-1.626-7.541-7.68-10.034-12.281,2.156,13.947,14.751,24.217,25.6,23.969C5805.34,1960.5,5816.828,1947.869,5816.108,1932.469Z" transform="translate(-5762.099 -1885.544)" fill="#120204"/>
        <path id="Caminho_4124" data-name="Caminho 4124" d="M5766.315,1920.869s-.609-9.631,3.34-13.54c2.708-2.681,1.867-7.2,1.867-7.2s11.008.286,17.452-1.518,18.035-6.154,18.035-6.154-.428,9.211,3.246,10.617c3.724,1.424,4.2,15.129,4.2,15.129s5.8-16.85,5.831-18.554-2.11-1.655-3.229.126a31.559,31.559,0,0,0,2.229-5.589c.731-2.739-1.4-2.414-2.3-1.4a17.2,17.2,0,0,0-1.909,3.245,30.113,30.113,0,0,0,2.033-6.1c.7-3.338-.658-3.05-1.326-2.643s-2.371,4.394-2.85,5.168c0,0,2.2-6.114.467-8.362s-4.152,3.05-4.152,3.05,1-6.132-2.88-10.158-11.69-5.688-13.735-3.489,2.77,2.275,4.4,4.152a9.743,9.743,0,0,1,2.047,3.36s-1.783-3.222-7.252-4.469-11.105-.531-12.485,1.186a10.466,10.466,0,0,0-4.983,1.811,23.55,23.55,0,0,0-4.277,4.032,2.264,2.264,0,0,0-2.221.254,6.255,6.255,0,0,0-1.7,2.259,2.094,2.094,0,0,0-2.293.558c-1.065,1.1-1.349,4.2-.462,6.633,0,0-2.648,2.152-2.238,7.242s3.907,11.913,4.2,14.529S5766.315,1920.869,5766.315,1920.869Z" transform="translate(-5760.559 -1872.519)" fill="#120204"/>
      </g>
    </g>
  </g>
  <path id="Caminho_4125" data-name="Caminho 4125" d="M5693.288,2111.5c11.416,10.573,14.275,61.742,20.8,99.838l-100.269-4.453s-2.761-70.109,25.547-96.279Z" transform="translate(-5299.941 -1924.807)" fill="#ff4f00"/>
  <path id="Caminho_4126" data-name="Caminho 4126" d="M5597.472,2182.085l-.217,1.826s13-22.132,19.086-26.294l10.355-23.147a36.743,36.743,0,0,1,1.422-11.472c1.827-6.9,7.626-12.392,7.626-12.392C5618.006,2127.005,5604.835,2159.846,5597.472,2182.085Z" transform="translate(-5296.32 -1924.807)" fill="#cbc7ff" opacity="0.7" style="mix-blend-mode: multiply;isolation: isolate"/>
  <path id="Caminho_4127" data-name="Caminho 4127" d="M5698.543,2008.647c-7.614-7.614-39.587-10.539-39.587-10.539l-11.514,1.859s-23.036,7.162-31.009,26.316-19.089,51.786-17.837,64.646,18.017,41.981,18.017,41.981c2.539-6.091,7.412-17.462,10.356-23.147l-9.622-22.262s12.187-40.612,14.325-47.528c0,0-5.345,10.431.263,21.353s4.082,24.573,4.082,24.573,5.6,4.215,27.87,3.993,26.053-3.1,26.053-3.1l5.215-41.534,15.221,34.523-18.228,30.286c3.045,7.614,4.366,15.229,5.178,18.884,0,0,25.892-15.972,30.493-43.814S5709.3,2019.4,5698.543,2008.647Z" transform="translate(-5296.593 -1900.101)" fill="#faf8dc"/>
  <g id="Grupo_9720" data-name="Grupo 9720" transform="translate(-661.71 -242.022)">
    <path id="Caminho_4076" data-name="Caminho 4076" d="M5455.992,2511.336c-11.821,1.441-32.373,3.827-48.572,5.183-9.751.811-15.416.2-18.708-.787l.04.9a3.185,3.185,0,0,0,3.32,2.665,637.045,637.045,0,0,0,63.764-2.824,2.234,2.234,0,0,0,2.18-2.3,1.937,1.937,0,0,0-.361-.948A16.5,16.5,0,0,0,5455.992,2511.336Z" transform="translate(-4588.81 -1770.792)"/>
    <path id="Caminho_4077" data-name="Caminho 4077" d="M5407.41,2511.161c16.2-1.356,36.752-3.742,48.572-5.183-12.242-12.14-49.645-19.038-49.645-19.038l-10.466.463a35.943,35.943,0,0,0-7.169,22.97C5391.994,2511.365,5397.659,2511.972,5407.41,2511.161Z" transform="translate(-4588.8 -1765.434)"/>
    <path id="Caminho_4078" data-name="Caminho 4078" d="M5394.792,2468.062l1.726,17.072a4.209,4.209,0,0,0,3.944,3.515,19.458,19.458,0,0,0,7.83-.926,4.808,4.808,0,0,0,3.354-3.718l2.661-16.808Z" transform="translate(-4590.146 -1761.098)" fill="url(#linear-gradient-2)"/>
    <path id="Caminho_4080" data-name="Caminho 4080" d="M5242.857,2474.492l-8.643.383c-13.133.343-20.307,25.226-22.584,34.9a9.319,9.319,0,0,0,8.685,5.159c8.645.673,14.083.233,17.969-1.634,6.724-8.573,9.722-20.829,11.1-27.969C5250.46,2480.769,5247.717,2476.213,5242.857,2474.492Z" transform="translate(-4549.92 -1762.7)"/>
    <path id="Caminho_4081" data-name="Caminho 4081" d="M5240.056,2454.538l-4.047,17.068a4.4,4.4,0,0,0,2.907,5.055,20.5,20.5,0,0,0,10.02,1.69,4.266,4.266,0,0,0,3.421-2.7l6.237-18.043Z" transform="translate(-4555.25 -1758.318)" fill="url(#linear-gradient-3)"/>
    <path id="Caminho_4082" data-name="Caminho 4082" d="M5234.176,2392.409c6.171,4.413,25.578,4.171,25.578,4.171,63.209-151.293,90.91-173.517,90.91-173.517-7.605,56.388,6.342,179.837,6.342,179.837,11.723,3.988,26.378-1.168,26.378-1.168a852.049,852.049,0,0,1,25.311-236.054c-47.307,1.158-72.968-12.023-81.416-17.391C5290.376,2206.093,5234.176,2392.409,5234.176,2392.409Z" transform="translate(-4554.872 -1691.06)"/>
    <g id="Grupo_9701" data-name="Grupo 9701" transform="translate(714.923 254.283)">
      <path id="Caminho_4128" data-name="Caminho 4128" d="M5460.984,2135.88c-2.4,9.965-4.61,17.91-4.238,41.2s-8.924,32.789-8.924,32.789l-17.136-2.086,5.3-74.968,4.655-5.868Z" transform="translate(-5312.952 -1940.657)" fill="#f29d7e"/>
      <path id="Caminho_4129" data-name="Caminho 4129" d="M5447.172,2130.57l-8.536-.379-2.649,3.34-5.3,74.968,12.949,1.576,3.022-67.953h13.007c.422-1.849.868-3.654,1.32-5.53l-5.905-2.593h-8.06Z" transform="translate(-5312.952 -1941.369)" fill="#cbc7ff" opacity="0.7" style="mix-blend-mode: multiply;isolation: isolate"/>
      <path id="Caminho_4130" data-name="Caminho 4130" d="M5472.3,2056.885c5.178,17.361-7,65.178-7,65.178l-24.67-.3,5.178-41.421Z" transform="translate(-5315.134 -1925.27)" fill="#faf8dc"/>
      <path id="Caminho_4131" data-name="Caminho 4131" d="M5440.622,2127.272l11.1.137c-.536-6.994-1.188-19.176.063-26.127,1.827-10.152,3.857-12.589,8.122-19.29l-10.01.228-4.1,3.63Z" transform="translate(-5315.134 -1930.784)" fill="#cbc7ff" opacity="0.7" style="mix-blend-mode: multiply;isolation: isolate"/>
      <path id="Caminho_4132" data-name="Caminho 4132" d="M5379.264,1996.556c-15.838-.609-40.632-1.622-52.588,9.239-12.184,11.066-30.458,47-30.458,47,2.209,8.908,19.95,14.822,28.935,16.954l6.4-10.051s-2.522,15.768-4.873,42.945c-2.742,31.675-2.413,52.41-2.413,52.41a239.1,239.1,0,0,0,53.289,6.181,309.063,309.063,0,0,0,37.524-2.45s-3.73-48.527-1.6-61.929,5.177-26.193,5.177-26.193,25.28-16.142,21.929-27.107-41.421-34.416-41.421-34.416Z" transform="translate(-5283.42 -1911.946)" fill="#faf8dc"/>
      <path id="Caminho_4133" data-name="Caminho 4133" d="M5351.6,2061.178s-4.265,3.96-11.878,12.792c0,0-2.522,15.768-4.873,42.944-.746,8.614-1.176,17.272-1.406,25.316a92.025,92.025,0,0,0,7.8-16.179C5347.643,2109.3,5351.6,2061.178,5351.6,2061.178Z" transform="translate(-5291.597 -1926.213)" fill="#cbc7ff" opacity="0.7" style="mix-blend-mode: multiply;isolation: isolate"/>
      <path id="Caminho_4134" data-name="Caminho 4134" d="M5431.281,2016.464c-6.36-4.319-11.182-7.289-11.182-7.289l-19.9-12.589c-2.083-.08-4.323-.167-6.667-.233l-1.262,2.973-.084.368c-.105.458-2.513,11.323,2.819,19.53,2.8,4.3,7.07,7.044,12.7,8.146a26.148,26.148,0,0,0,5.005.5h0A20.557,20.557,0,0,0,5431.281,2016.464Z" transform="translate(-5304.358 -1911.976)" fill="#cbc7ff" opacity="0.7" style="mix-blend-mode: multiply;isolation: isolate"/>
      <path id="Caminho_4135" data-name="Caminho 4135" d="M5414.749,1949.948l-17.208,40.508s-4.421,19.29,12.184,22.537c14.157,2.769,19.085-8.934,19.085-8.934l10.86-45.254Z" transform="translate(-5305.555 -1901.785)" fill="#f29d7e"/>
      <path id="Caminho_4136" data-name="Caminho 4136" d="M5414.749,1949.948l-17.208,40.508s-4.421,19.29,12.184,22.537c14.157,2.769,19.085-8.934,19.085-8.934l10.86-45.254Z" transform="translate(-5305.555 -1901.785)" opacity="0.72" fill="url(#linear-gradient-4)" style="mix-blend-mode: multiply;isolation: isolate"/>
      <path id="Caminho_4137" data-name="Caminho 4137" d="M5417.356,1954.331c2.372,9.729,8.373,16.6,17.063,16.6a14.549,14.549,0,0,0,7.14-1.83l2.58-10.3-24.921-8.858Z" transform="translate(-5310.025 -1901.785)" fill="#cbc7ff" opacity="0.7" style="mix-blend-mode: multiply;isolation: isolate"/>
      <path id="Caminho_4138" data-name="Caminho 4138" d="M5461.167,1945.274a8.42,8.42,0,0,0,.792-16.821Z" transform="translate(-5319.646 -1897.064)" fill="#ed6d53"/>
      <path id="Caminho_4139" data-name="Caminho 4139" d="M5461.407,1942.415a4.437,4.437,0,0,0,.417-8.864Z" transform="translate(-5319.699 -1898.184)" fill="#bd422a"/>
      <path id="Caminho_4140" data-name="Caminho 4140" d="M5416.986,1945.839a8.42,8.42,0,0,1-.791-16.82Z" transform="translate(-5308.007 -1897.188)" fill="#ed6d53"/>
      <path id="Caminho_4141" data-name="Caminho 4141" d="M5417.92,1942.981a4.437,4.437,0,1,1-.417-8.864Z" transform="translate(-5309.128 -1898.308)" fill="#bd422a"/>
      <path id="Caminho_4142" data-name="Caminho 4142" d="M5455.193,1909.99c3.147,4.467,5.482,9.442,6.091,13.3s.937,7.053.937,7.053l1.2-6.039s.61-12.588-3.857-17.157Z" transform="translate(-5318.334 -1892.385)" fill="#035e80"/>
      <path id="Caminho_4143" data-name="Caminho 4143" d="M5293.531,2068.984c-8.021,15.634-13.3,33.5-13.705,50.559s18.274,77.969,30.862,79.187,12.995-3.451,12.995-3.451-3.249,6.5-.812,6.9,6.092-7.31,4.874-9.543c0,0-1.015,6.294.812,5.076s3.045-5.076,1.421-9.34-9.34-5.279-9.34-5.279-17.868-49.747-16.853-61.32c.869-9.9,13.035-31.1,16.529-37.018a2.487,2.487,0,0,0-.327-2.974,36.836,36.836,0,0,0-12.04-8.637A70.624,70.624,0,0,0,5293.531,2068.984Z" transform="translate(-5279.819 -1927.927)" fill="#f29d7e"/>
      <path id="Caminho_4144" data-name="Caminho 4144" d="M5310.246,2075.583a36.832,36.832,0,0,1,12.04,8.638,2.477,2.477,0,0,1,.639,2.086c.342-.589.649-1.114.906-1.549a2.486,2.486,0,0,0-.327-2.974,36.833,36.833,0,0,0-12.039-8.637,70.623,70.623,0,0,0-14.417-4.163c-.413.806-.813,1.62-1.213,2.437A70.717,70.717,0,0,1,5310.246,2075.583Z" transform="translate(-5283.336 -1927.927)" fill="#cbc7ff" opacity="0.7" style="mix-blend-mode: multiply;isolation: isolate"/>
      <path id="Caminho_4145" data-name="Caminho 4145" d="M5339.278,2235.7c-.008-.083-.017-.169-.022-.257q-.124.375-.272.753C5339.084,2236.033,5339.183,2235.868,5339.278,2235.7Z" transform="translate(-5292.813 -1964.484)" fill="#cbc7ff" opacity="0.7" style="mix-blend-mode: multiply;isolation: isolate"/>
      <g id="Grupo_9700" data-name="Grupo 9700" transform="translate(106.469 13.665)">
        <g id="Grupo_9699" data-name="Grupo 9699">
          <path id="Caminho_4146" data-name="Caminho 4146" d="M5454.669,1932.532c0,14.433-9.6,25.743-18.83,25.483s-19.588-11.831-19.588-26.263.926-26.378,19.588-26C5457.761,1906.191,5454.669,1918.1,5454.669,1932.532Z" transform="translate(-5416.251 -1905.741)" fill="#f29d7e"/>
        </g>
      </g>
      <path id="Caminho_4147" data-name="Caminho 4147" d="M5415.7,1926.1s-4.868-3.6-4.762-9.312,1.375-8.149,1.375-8.149-.424-3.28.211-4.762a12.817,12.817,0,0,1,1.694-2.751,17.856,17.856,0,0,1,7.3-9.207c5.5-3.281,14.92-4.127,18.942-3.492s9.418,2.011,9.418,2.011,12.91-1.693,13.439-.424-3.387,9.736-3.387,9.736.847-1.164,1.27-.424-1.375,7.091-3.28,10.583a11.259,11.259,0,0,1,.1,4.656c-.423,3.069-4.021,9.207-4.021,9.207s-.691-3.877-1.376-7.091c-1.058-4.973-4.338-8.677-4.444-10.582a48.47,48.47,0,0,1-12.275,1.693,54.152,54.152,0,0,1-12.7-1.693,61.369,61.369,0,0,0-4.868,9.63C5417.071,1919.538,5415.7,1926.1,5415.7,1926.1Z" transform="translate(-5308.613 -1888.231)" fill="#49070f"/>
    </g>
  </g>
  <path id="Caminho_4148" data-name="Caminho 4148" d="M5681.508,1963.483l3.563,27.7s13.261,32.674-12.863,32.284c-27.659-.414-9.253-31.289-9.253-31.289l-3.654-29.544Z" transform="translate(-5309.43 -1892.309)" fill="#b26550"/>
  <path id="Caminho_4149" data-name="Caminho 4149" d="M5681.508,1963.483l3.563,27.7s13.261,32.674-12.863,32.284c-27.659-.414-9.253-31.289-9.253-31.289l-3.654-29.544Z" transform="translate(-5309.43 -1892.309)" opacity="0.72" fill="url(#linear-gradient-5)" style="mix-blend-mode: multiply;isolation: isolate"/>
  <path id="Caminho_4150" data-name="Caminho 4150" d="M5683.021,1969.043c-3.394,5.521-7.447,8.411-13.6,7.992-3.351-.229-5.71-.99-7.995-3.2l-.7-8.866,21.611-1.249Z" transform="translate(-5310.259 -1892.549)" fill="#cbc7ff" opacity="0.7" style="mix-blend-mode: multiply;isolation: isolate"/>
  <g id="Grupo_9702" data-name="Grupo 9702" transform="translate(197.902 1.479)">
    <path id="Caminho_4151" data-name="Caminho 4151" d="M5570.9,2136.488c22.65,26.394,13.932,113.484,13.932,113.484H5470.921s-21.032-76.25,17.745-115.311c20.737-20.89,17.462-29.036,17.462-29.036l49.137-3.857S5559.964,2123.747,5570.9,2136.488Z" transform="translate(-5465.227 -1924.345)" fill="#111"/>
    <path id="Caminho_4152" data-name="Caminho 4152" d="M5508.587,2057.684s16.447-5.482,32.588-5.482a178.238,178.238,0,0,1,29.239,2.436l6.032,21.032c-.608,3.857-5.218,17.268-8.977,21.709l-56.041,2.234-10.965-22.945Z" transform="translate(-5472.965 -1913.459)" fill="#111"/>
    <path id="Caminho_4153" data-name="Caminho 4153" d="M5499.438,2080.215l8.241,17.244c-2.158,2.688-5.536,7.887-10.827,17.662a94.089,94.089,0,0,0-7.29,19.054c1.209.021,2.486.033,3.839.033,18.274,0,36.346-12.589,36.346-12.589,8.887,1.72,33.452,4.957,47.133,6.713-.217-.732-.43-1.418-.636-2.043-3.34-10.082-8.709-21.3-12.2-28.182l1.037-.041c3.758-4.44,8.368-17.851,8.977-21.709l-6.032-21.032s4.568,21.32-2.437,26.5c-9.51,7.029-5.583,21.116-5.583,21.116l-47.411,5.685,1.522-19.8s-10.965-10.66-7.919-30.457Z" transform="translate(-5470.571 -1914.145)"/>
    <path id="Caminho_4154" data-name="Caminho 4154" d="M5598.889,2087.117a40.058,40.058,0,0,0-25.279-6.092l-9.441-37.157-61.828,3.046a151.271,151.271,0,0,1-3.35,16.751,108.1,108.1,0,0,0-2.735,22.179c-3.747,4.836-9.5,12.926-13.114,21.058-.7-.183-1.408-.384-2.12-.6-19.187-5.787-2.741-62.132,3.959-78.884s25.583-16.751,39.9-24.262l24.566,3.448s8.449,3.686,22.032,10.154C5584.269,2022.853,5598.889,2087.117,5598.889,2087.117Z" transform="translate(-5466.719 -1902.688)" fill="#111"/>
    <path id="Caminho_4155" data-name="Caminho 4155" d="M5541.727,1902.516c-.925-3.469-1.272-2.544-8.094-5.2s-4.278-10.638,2.429-10.406c5.624.194,2.891-6.476,8.094-8.789s6.36,2.776,9.02,2.544,1.868-7.24,9.019-6.128c5.2.809,4.856,5.319,4.51,8.441s5.539.775,6.938,5.2c1.388,4.394-4.625,5.55-4.856,9.6a9.358,9.358,0,0,1-2.775,6.244Z" transform="translate(-5479.365 -1874.414)" fill="#ff4f00"/>
    <path id="Caminho_4156" data-name="Caminho 4156" d="M5531.567,1941.209c-3.678-3.967-6.689-10.626-2.7-16.24a5.053,5.053,0,0,0,.853-3.858,9.126,9.126,0,0,1,2.66-8.651,10.74,10.74,0,0,1,5.671-2.815,5.111,5.111,0,0,0,3.628-2.553,9.611,9.611,0,0,1,6.539-4.987c5.888-1.095,10.355,5.382,10.355,5.382s7.717-7.664,16.448-1.533c5.695,4,5.429,9.862,4.555,13.456a5.071,5.071,0,0,0,1.553,4.984,11.251,11.251,0,0,1,3.639,10.9c-1.625,9.2-5.077,17.518-19.29,17.518S5531.567,1941.209,5531.567,1941.209Z" transform="translate(-5478.788 -1880.468)" fill="#ff4f00"/>
    <path id="Caminho_4157" data-name="Caminho 4157" d="M5544.606,1968.292l-6.294,27.208s-16.44,31.2,9.594,33.4c27.563,2.335,14.975-29.949,14.975-29.949l5.076-28.223Z" transform="translate(-5480.153 -1895.031)" fill="#f29d7e"/>
    <path id="Caminho_4158" data-name="Caminho 4158" d="M5544.606,1968.292l-6.294,27.208s-16.44,31.2,9.594,33.4c27.563,2.335,14.975-29.949,14.975-29.949l5.076-28.223Z" transform="translate(-5480.153 -1895.031)" opacity="0.72" fill="url(#linear-gradient-6)" style="mix-blend-mode: multiply;isolation: isolate"/>
    <path id="Caminho_4159" data-name="Caminho 4159" d="M5546.27,1973.519c2.829,5.83,7.526,9.595,13.7,9.595a13.572,13.572,0,0,0,9.29-3.633l1.574-8.753-23.351-2.436Z" transform="translate(-5483.025 -1895.031)" fill="#cbc7ff" opacity="0.7" style="mix-blend-mode: multiply;isolation: isolate"/>
    <path id="Caminho_4160" data-name="Caminho 4160" d="M5582.236,1958.855a7.75,7.75,0,1,0,.728-15.484Z" transform="translate(-5490.924 -1889.558)" fill="#f29d7e"/>
    <path id="Caminho_4161" data-name="Caminho 4161" d="M5582.457,1956.224a4.085,4.085,0,0,0,.383-8.16Z" transform="translate(-5490.972 -1890.589)" fill="#ff9178"/>
    <path id="Caminho_4162" data-name="Caminho 4162" d="M5575.6,1944.177c0,13.457-6.4,24.366-16.751,24.366-10.508,0-16.751-10.909-16.751-24.366s4.568-24.669,16.446-24.669C5571.333,1919.507,5575.6,1930.72,5575.6,1944.177Z" transform="translate(-5482.108 -1884.317)" fill="#f29d7e"/>
    <path id="Caminho_4163" data-name="Caminho 4163" d="M5541.565,1959.375a7.751,7.751,0,0,1-.728-15.484Z" transform="translate(-5480.209 -1889.672)" fill="#f29d7e"/>
    <path id="Caminho_4164" data-name="Caminho 4164" d="M5542.425,1956.744a4.084,4.084,0,1,1-.384-8.16Z" transform="translate(-5481.242 -1890.703)" fill="#ff9178"/>
    <path id="Caminho_4165" data-name="Caminho 4165" d="M5539.622,1937.849c2.64,1.929,4.569,2.031,5.483,1.117s2.131-10.559,6.4-13.909,10.558-4.365,10.558-4.365,2.843,8.325,8.224,13.2,8.324,4.873,8.324,4.873-.71-22.944-20.2-22.64S5539.622,1937.849,5539.622,1937.849Z" transform="translate(-5481.564 -1883.573)" fill="#ff4f00"/>
    <path id="Caminho_4166" data-name="Caminho 4166" d="M5611.992,2108.951c2.132,11.675-6.4,17.36-16.954,17.36s-63.35-5.076-63.35-5.076l30.862-17.462,24.772-.914a34.1,34.1,0,0,1,14.01,1.117C5608.439,2106.21,5611.992,2108.951,5611.992,2108.951Z" transform="translate(-5479.823 -1924.523)" fill="#f29d7e"/>
    <path id="Caminho_4167" data-name="Caminho 4167" d="M5611.992,2108.951c2.132,11.675-6.4,17.36-16.954,17.36s-63.35-5.076-63.35-5.076l30.862-17.462,24.772-.914a34.1,34.1,0,0,1,14.01,1.117C5608.439,2106.21,5611.992,2108.951,5611.992,2108.951Z" transform="translate(-5479.823 -1924.523)" opacity="0.72" fill="url(#linear-gradient-7)" style="mix-blend-mode: multiply;isolation: isolate"/>
    <path id="Caminho_4168" data-name="Caminho 4168" d="M5531.688,2121.314s6.829.657,16.066,1.5c4.78-6.615,16.743-13.356,23.527-15.1,7.107-1.828,16.041-4.772,16.041-4.772l-24.772.914Z" transform="translate(-5479.823 -1924.602)" fill="#cbc7ff" opacity="0.7" style="mix-blend-mode: multiply;isolation: isolate"/>
    <path id="Caminho_4169" data-name="Caminho 4169" d="M5576.738,2101.785s-15.266-.951-36.891,13.058c-20.82,13.493-35.371,17.616-53.578,12.78,3.769-11.562,7.829-16.232,13.114-21.058-.006.237-.006.359-.006.359s21.625-2.437,45.077-7.614S5576.738,2101.785,5576.738,2101.785Z" transform="translate(-5469.848 -1923.41)" fill="#f4a78b"/>
  </g>
  <g id="Grupo_9703" data-name="Grupo 9703" transform="translate(313.875 13.959)">
    <path id="Caminho_4170" data-name="Caminho 4170" d="M5663.168,1903.555c7.693-.791,22.843.315,24.575,19.535s-3.466,35.918-17.014,35.6-17.171-10.555-19.534-23.945S5652.456,1904.658,5663.168,1903.555Z" transform="translate(-5621.889 -1893.256)" fill="#b26550"/>
    <path id="Caminho_4171" data-name="Caminho 4171" d="M5655.115,2005.782c.63-1.891-1.418-2.521-1.1-4.568s2.521-1.1,3.624-4.569-2.049-4.1-2.049-6.3,1.891-1.26,2.049-4.412-2.836-2.993-3.308-5.513,1.89-2.205,1.259-5.041-3.57-3.256-3.1-5.461,2.626-1.942,2.311-5.251-2.73-2.73-3.36-4.936,1.417-2.835.945-6.616-2.415-2-3.675-4.831.158-2.835,0-6.616-3.1-3.151-2.941-5.671,2.206-3.413,1.261-6.721-2.71-1.953-1.681-7.247c.229-1.179,2.416-1.576,3.781-5.461.842-2.4-1.576-4.306.1-7.562.735-1.425,2.285-1.211,3.466-2.206a14.6,14.6,0,0,0,2.887-3.729s3.414-1.733,5.3.053c1.728,1.631-.053,3.372,2.835,4.726,3.361,1.575,4.323-1.082,6.2.524,2.206,1.891.845,4.184,1.051,5.776.42,3.256,3.2,1.208,3.361,3.256s-1.576,2.311-1.366,4.411c.314,3.136,3.465,3.78,3.571,6.458.05,1.269-1.733,2.678-1.417,5.041s1.576,3.781,1.26,5.513-1.733,2.521-2.205,4.411.788,4.1.315,6.932-2.836,2.52-2.521,4.1a15.32,15.32,0,0,1,.314,5.513c-.314,2.206-.945,2.049-.787,4.727s3.15,4.1,2.521,5.986-.158,4.411.63,6.932-2.048,4.568-2.835,6.143-.473,3.624,1.1,5.83.158,2.993-.315,5.356.788,2.678,1.576,5.356-.788,3.939-1.733,5.986a2.1,2.1,0,0,0,.188.824c1.527,4.534,7.3,7.649,13.166,8.516a12.473,12.473,0,0,0,13.424-7.831h0c.512-1.6-1.224-2.261-.786-3.872.473-1.732,2.521.473,4.1-1.732s-1.418-2.363-.473-4.1,3.309-.787,4.253-2.677-1.891-3.466-1.733-5.356,2.048-1.26,3.308-3.624-2.52-2.835-2.206-4.884,1.733-.787,3.466-3.466-1.418-2.678-.63-4.884,2.993-1.575,3.308-3.308-1.732-4.1-1.576-6.144,2.363-2.677,2.363-5.356-3.151-3.151-3.151-5.671,2.048-2.521,1.733-4.412-3.623-2.363-4.412-4.884,3.466-2.835,3.151-5.356-3.466-2.048-3.938-4.411,3.308-2.521,2.993-5.041-2.835-1.891-3.78-4.726,1.89-3.15,1.417-6.3-3.466-2.521-4.568-4.411.788-3.466.157-5.671-3.781-1.575-4.726-3.151.945-2.521-.945-5.2-2.993.367-6.669-3.624c-2.115-2.3-4.136.671-6.406,0-1.314-.388-2.183-3.48-3.676-3.886-2.031-.551-3.563,1.744-5.356,1.26-2.049-.552-3.481-1.8-4.305-2.1-2.994-1.1-4.464,2.363-6.669,1.89s-3.308-1.89-6.3-.158a6.876,6.876,0,0,0-3.308,4.884,6.391,6.391,0,0,0-3.624-.314c-1.152.314-2.467,2.166-5.2,2.835-1.375.336-3.549-1.363-5.566-.63-4.622,1.68-.491,6.218-6.2,6.931-2.521.315-5.157-.665-6.722.525-2.626,2-2.259,4.305-2.731,6.2s-4.726,2.048-5.514,4.568-.368,5.094-.525,7.141-2.678,2.048-2.52,5.986,1.732,3.1,2.835,5.776-2.521,4.043-2.835,6.721,1.838,4.306,1.68,5.881-2.363,2.521-2.836,5.357,2.1,3.046,2.259,5.409-2.363,2.993-2.521,5.986,2.993,3.308,3.466,5.829-1.576,3.623-1.1,6.3,3.623,2.678,4.726,5.356-.945,3.623-.788,6.774,2.679,2.048,3.624,5.041-.945,3.938-.945,7.247,4.1,2.363,5.356,4.884c.063.126-.233,4.5,1.856,8,1.328,2.228,6.963,3.952,9.551,3.779h0a17.4,17.4,0,0,0,15.521-13.007Z" transform="translate(-5613.835 -1890.407)"/>
  </g>
</svg>
