<?xml version="1.0" encoding="utf-8"?>
<!-- Generator: Adobe Illustrator 24.0.2, SVG Export Plug-In . SVG Version: 6.00 Build 0)  -->
<svg version="1.1" id="Camada_1" xmlns="http://www.w3.org/2000/svg" xmlns:xlink="http://www.w3.org/1999/xlink" x="0px" y="0px"
	 viewBox="0 0 541 465" style="enable-background:new 0 0 541 465;" xml:space="preserve">
<style type="text/css">
	.st0{fill:#B2B2B2;}
	.st1{fill:#D6D6D6;}
	.st2{fill:#FFFFFF;}
	.st3{opacity:0.16;fill:#E2E2E2;enable-background:new    ;}
	.st4{fill:#57ABEC;}
	.st5{fill:#939393;}
	.st6{fill:#FCBA07;}
	.st7{fill:#FF8A13;}
	.st8{fill:#4F4F4F;}
	.st9{fill:#FE5000;}
	.st10{fill:#663402;}
	.st11{fill:#282828;}
	.st12{fill:#CCCCCC;}
	.st13{opacity:0.38;fill:url(#SVGID_1_);enable-background:new    ;}
	.st14{fill:#FFD03E;}
	.st15{opacity:0.15;fill:url(#SVGID_2_);enable-background:new    ;}
	.st16{fill:#A0480B;}
	.st17{fill:#202952;}
	.st18{fill:#DBDBDB;}
	.st19{fill:#E8E8E8;}
	.st20{opacity:0.38;fill:url(#SVGID_3_);enable-background:new    ;}
	.st21{opacity:0.38;fill:url(#SVGID_4_);enable-background:new    ;}
	.st22{fill:#FF6A13;}
</style>
<path class="st0" d="M304,146.3h113.9c3.5,0,6.3,2.8,6.3,6.3c0,0,0,0,0,0v206.5c0,3.5-2.8,6.3-6.3,6.3H174.2c-3.5,0-6.3-2.8-6.3-6.3
	c0-1.2,0.3-2.4,1-3.4l129.8-206.5C299.8,147.4,301.8,146.3,304,146.3z"/>
<path class="st1" d="M376.4,386H24.6c-3.3,0-6-2.7-6-6c0-0.3,0-0.7,0.1-1l40.2-227.8c0.5-2.9,3-5,5.9-5h351.8c3.3,0,6,2.7,6,6
	c0,0.3,0,0.7-0.1,1l-40.2,227.8C381.8,384,379.3,386.1,376.4,386z"/>
<polyline class="st2" points="83.3,161.5 394.1,161.5 356.8,373.3 "/>
<path class="st2" d="M356.8,373.3H52.9c-3.2,0-5.8-2.6-5.8-5.8c0-0.3,0-0.7,0.1-1l36.2-205h310.8L356.8,373.3z"/>
<path class="st3" d="M356.8,373.3H52.3c-2.9,0-5.3-2.4-5.3-5.3c0-0.3,0-0.6,0.1-0.9l36.3-205.6h310.8L356.8,373.3z"/>
<path class="st4" d="M109,175.3c-0.7,3.5-3.7,6-7.2,6.1c-2.8,0.1-5.1-2.1-5.1-4.9c0-0.4,0-0.8,0.1-1.2c0.7-3.4,3.7-6,7.2-6.1
	c2.8-0.1,5.1,2.1,5.1,4.9C109.1,174.5,109.1,174.9,109,175.3z"/>
<path class="st5" d="M378.9,175.3c-0.7,3.4-3.6,6-7.2,6.1c-2.8,0.1-5.1-2.1-5.1-4.9c0-0.4,0-0.8,0.1-1.2c0.7-3.4,3.7-6,7.2-6.1
	c2.8-0.1,5,2.1,5.1,4.9C379,174.5,379,174.9,378.9,175.3z"/>
<path class="st2" d="M138.9,227.7H89.1c-0.7,0-1.3-0.5-1.3-1.2c0-0.1,0-0.2,0-0.3l4.2-23.4c0.2-0.9,1-1.5,1.8-1.6h49.8
	c0.7,0,1.3,0.5,1.3,1.2c0,0.1,0,0.2,0,0.4l-4.1,23.4C140.6,227,139.8,227.7,138.9,227.7z"/>
<path class="st2" d="M196.4,227.5h-49.8c-0.7,0-1.3-0.5-1.3-1.2c0-0.1,0-0.2,0-0.3l4.1-23.4c0.2-0.9,1-1.5,1.9-1.6h49.8
	c0.7,0,1.3,0.5,1.3,1.2c0,0.1,0,0.2,0,0.3l-4.1,23.4C198,226.8,197.3,227.4,196.4,227.5z"/>
<path class="st2" d="M254.1,227.7h-49.8c-0.7,0-1.3-0.5-1.3-1.2c0-0.1,0-0.2,0-0.3l4.1-23.4c0.2-0.9,1-1.5,1.9-1.6h49.8
	c0.7,0,1.3,0.5,1.3,1.2c0,0.1,0,0.2,0,0.4l-4.1,23.5C255.8,227,255,227.7,254.1,227.7z"/>
<path class="st2" d="M311,227.7h-49.8c-0.7,0-1.3-0.5-1.3-1.2c0-0.1,0-0.2,0-0.3l4.1-23.4c0.2-0.9,1-1.5,1.9-1.6h49.8
	c0.7,0,1.3,0.5,1.3,1.2c0,0.1,0,0.2,0,0.3l-4.1,23.4C312.7,227,311.9,227.6,311,227.7z"/>
<path class="st2" d="M367.9,227.7h-49.8c-0.7,0-1.3-0.5-1.3-1.3c0-0.1,0-0.2,0-0.3l4.1-23.4c0.2-0.9,1-1.5,1.9-1.6h49.8
	c0.7,0,1.3,0.5,1.3,1.2c0,0.1,0,0.2,0,0.3l-4.1,23.4C369.6,227,368.8,227.6,367.9,227.7z"/>
<path class="st2" d="M133.4,259.1H83.6c-0.7,0-1.3-0.5-1.3-1.2c0-0.1,0-0.2,0-0.3l4.1-23.5c0.2-0.9,0.9-1.5,1.8-1.6H138
	c0.7,0,1.3,0.5,1.3,1.2c0,0.1,0,0.2,0,0.3l-4.1,23.5C135,258.4,134.3,259,133.4,259.1z"/>
<path class="st2" d="M190.8,258.9h-49.8c-0.7,0-1.3-0.5-1.3-1.2c0-0.1,0-0.2,0-0.4l4.1-23.4c0.2-0.9,1-1.5,1.9-1.6h49.8
	c0.7,0,1.3,0.5,1.3,1.2c0,0.1,0,0.2,0,0.4l-4.1,23.4C192.5,258.2,191.7,258.8,190.8,258.9z"/>
<path class="st2" d="M248.6,259.1h-49.8c-0.7,0-1.3-0.5-1.3-1.2c0-0.1,0-0.2,0-0.3l4.1-23.5c0.2-0.9,0.9-1.5,1.8-1.6h49.8
	c0.7,0,1.3,0.5,1.3,1.2c0,0.1,0,0.2,0,0.3l-4.1,23.5C250.3,258.3,249.5,259,248.6,259.1z"/>
<path class="st2" d="M305.5,259.1h-49.8c-0.7,0-1.3-0.5-1.3-1.2c0-0.1,0-0.2,0-0.3l4.1-23.5c0.2-0.9,1-1.5,1.9-1.6h49.8
	c0.7,0,1.3,0.5,1.3,1.2c0,0.1,0,0.2,0,0.4l-4.1,23.5C307.2,258.3,306.4,259,305.5,259.1z"/>
<path class="st2" d="M362.4,259.1h-49.8c-0.7,0-1.3-0.5-1.3-1.2c0-0.1,0-0.2,0-0.4l4.1-23.5c0.2-0.9,1-1.5,1.9-1.6h49.8
	c0.7,0,1.3,0.5,1.3,1.2c0,0.1,0,0.2,0,0.4l-4.1,23.5C364.1,258.3,363.3,259,362.4,259.1z"/>
<path class="st2" d="M127.9,290.2H78.1c-0.7,0-1.3-0.5-1.3-1.2c0-0.1,0-0.2,0-0.4l4.1-23.5c0.2-0.9,1-1.5,1.8-1.6h49.8
	c0.7,0,1.3,0.5,1.3,1.2c0,0.1,0,0.2,0,0.3l-4.1,23.5C129.5,289.5,128.8,290.2,127.9,290.2z"/>
<path class="st2" d="M185.3,290h-49.8c-0.7,0-1.3-0.5-1.3-1.2c0-0.1,0-0.2,0-0.3l4.1-23.4c0.2-0.9,0.9-1.5,1.8-1.6H190
	c0.7,0,1.3,0.5,1.3,1.2c0,0.1,0,0.2,0,0.3l-4.1,23.5C187,289.3,186.2,290,185.3,290z"/>
<path class="st2" d="M243.1,290.2h-49.8c-0.7,0-1.3-0.5-1.3-1.2c0-0.1,0-0.2,0-0.3l4.1-23.5c0.2-0.9,1-1.5,1.9-1.6h49.8
	c0.7,0,1.3,0.5,1.3,1.2c0,0.1,0,0.2,0,0.3l-4.1,23.5C244.7,289.5,244,290.2,243.1,290.2z"/>
<path class="st2" d="M300,290.2h-49.8c-0.7,0-1.3-0.5-1.3-1.2c0-0.1,0-0.2,0-0.3l4.1-23.5c0.2-0.9,1-1.5,1.9-1.6h49.8
	c0.7,0,1.3,0.5,1.3,1.2c0,0.1,0,0.2,0,0.3l-4.1,23.5C301.7,289.5,300.9,290.2,300,290.2z"/>
<path class="st2" d="M356.9,290.2h-49.8c-0.7,0-1.3-0.5-1.3-1.2c0-0.1,0-0.2,0-0.3l4.2-23.4c0.2-0.9,0.9-1.5,1.8-1.6h49.8
	c0.7,0,1.3,0.5,1.3,1.3c0,0.1,0,0.2,0,0.3l-4.1,23.5C358.6,289.6,357.8,290.2,356.9,290.2z"/>
<path class="st2" d="M122.3,321.6H72.6c-0.7,0-1.3-0.5-1.3-1.2c0-0.1,0-0.2,0-0.3l4.1-23.5c0.2-0.9,0.9-1.5,1.8-1.6H127
	c0.7,0,1.3,0.5,1.3,1.2c0,0.1,0,0.2,0,0.3l-4.1,23.4C124,320.9,123.2,321.5,122.3,321.6z"/>
<path class="st2" d="M179.8,321.4H130c-0.7,0-1.3-0.5-1.3-1.2c0-0.1,0-0.2,0-0.3l4.1-23.5c0.2-0.9,1-1.5,1.9-1.6h49.8
	c0.7,0,1.3,0.5,1.3,1.2c0,0.1,0,0.2,0,0.3l-4.1,23.5C181.4,320.7,180.7,321.4,179.8,321.4z"/>
<path class="st2" d="M237.6,321.6h-49.8c-0.7,0-1.3-0.5-1.3-1.2c0-0.1,0-0.2,0-0.3l4.1-23.5c0.2-0.9,1-1.5,1.9-1.6h49.8
	c0.7,0,1.3,0.5,1.3,1.2c0,0.1,0,0.2,0,0.3l-4.1,23.4C239.2,320.9,238.5,321.5,237.6,321.6z"/>
<path class="st2" d="M294.5,321.6h-49.8c-0.7,0-1.3-0.5-1.3-1.2c0-0.1,0-0.2,0-0.3l4.1-23.5c0.2-0.9,1-1.5,1.9-1.6h49.8
	c0.7,0,1.3,0.5,1.3,1.2c0,0.1,0,0.2,0,0.3l-4.1,23.4C296.1,320.9,295.4,321.5,294.5,321.6z"/>
<path class="st2" d="M351.4,321.6h-49.8c-0.7,0-1.3-0.5-1.3-1.2c0-0.1,0-0.2,0-0.3l4.1-23.5c0.2-0.9,1-1.5,1.9-1.6H356
	c0.7,0,1.3,0.5,1.3,1.2c0,0.1,0,0.2,0,0.3l-4.1,23.4C353,320.9,352.3,321.5,351.4,321.6z"/>
<path class="st2" d="M122.6,348H72.8c-0.7,0-1.3-0.5-1.3-1.2c0-0.1,0-0.2,0-0.3l4.1-23.4c0.2-0.9,1-1.5,1.8-1.6h49.8
	c0.7,0,1.3,0.5,1.3,1.2c0,0.1,0,0.2,0,0.3l-4.1,23.5C124.2,347.3,123.5,348,122.6,348z"/>
<path class="st2" d="M180.1,347.9h-49.8c-0.7,0-1.3-0.5-1.3-1.2c0-0.1,0-0.2,0-0.3l4.1-23.5c0.2-0.9,0.9-1.5,1.8-1.6h49.8
	c0.7,0,1.3,0.5,1.3,1.2c0,0.1,0,0.2,0,0.3l-4.1,23.5C181.7,347.2,180.9,347.8,180.1,347.9z"/>
<path class="st2" d="M237.8,348H188c-0.7,0-1.3-0.5-1.3-1.2c0-0.1,0-0.2,0-0.3l4.2-23.4c0.2-0.9,0.9-1.5,1.8-1.6h49.8
	c0.7,0,1.3,0.5,1.3,1.2c0,0.1,0,0.2,0,0.3l-4.1,23.5C239.5,347.3,238.7,348,237.8,348z"/>
<path class="st2" d="M294.7,348h-49.8c-0.7,0-1.3-0.5-1.3-1.2c0-0.1,0-0.2,0-0.3l4.1-23.4c0.2-0.9,0.9-1.5,1.8-1.6h49.8
	c0.7,0,1.3,0.5,1.3,1.2c0,0.1,0,0.2,0,0.3l-4.1,23.5C296.4,347.3,295.6,348,294.7,348z"/>
<path class="st2" d="M351.6,348h-49.8c-0.7,0-1.3-0.5-1.3-1.2c0-0.1,0-0.2,0-0.3l4.1-23.4c0.2-0.9,0.9-1.5,1.8-1.6h49.8
	c0.7,0,1.3,0.5,1.3,1.2c0,0.1,0,0.2,0,0.3l-4.1,23.5C353.3,347.3,352.5,348,351.6,348z"/>
<path class="st6" d="M137.2,209.5h-32.4c-0.7,0-1.3-0.5-1.4-1.3c0-0.1,0-0.2,0-0.3l0,0c0.2-0.9,1-1.6,1.9-1.6h32.4
	c0.7,0,1.3,0.5,1.4,1.3c0,0.1,0,0.2,0,0.3l0,0C138.9,208.8,138.1,209.5,137.2,209.5z"/>
<path class="st6" d="M136.1,215.7h-32.4c-0.7,0-1.3-0.5-1.4-1.2c0-0.1,0-0.2,0-0.4l0,0c0.2-0.9,1-1.6,1.9-1.6h32.4
	c0.7,0,1.3,0.5,1.4,1.3c0,0.1,0,0.2,0,0.3l0,0C137.8,215,137,215.6,136.1,215.7z"/>
<path class="st6" d="M117.2,221.9h-14.6c-0.7,0-1.3-0.5-1.4-1.3c0-0.1,0-0.2,0-0.3l0,0c0.2-0.9,1-1.6,1.9-1.6h14.6
	c0.7,0,1.3,0.5,1.4,1.3c0,0.1,0,0.2,0,0.3l0,0C118.9,221.2,118.1,221.9,117.2,221.9z"/>
<path class="st6" d="M232.9,330h-33.5c-0.7,0-1.4-0.5-1.4-1.3c0-0.1,0-0.2,0-0.4l0,0c0.2-1,1-1.6,2-1.7h33.5c0.7,0,1.4,0.5,1.4,1.3
	c0,0.1,0,0.2,0,0.4l0,0C234.7,329.3,233.8,330,232.9,330z"/>
<path class="st6" d="M231.7,336.4h-33.5c-0.7,0-1.4-0.5-1.4-1.3c0-0.1,0-0.2,0-0.4l0,0c0.2-0.9,1-1.6,1.9-1.7h33.5
	c0.8,0,1.4,0.6,1.4,1.3c0,0.1,0,0.2,0,0.3l0,0C233.5,335.6,232.7,336.3,231.7,336.4z"/>
<path class="st6" d="M212.2,342.8h-15.1c-0.7,0-1.4-0.5-1.4-1.3c0-0.1,0-0.2,0-0.4l0,0c0.2-0.9,1-1.6,1.9-1.7h15.1
	c0.7,0,1.4,0.5,1.4,1.3c0,0.1,0,0.2,0,0.4l0,0C213.9,342.1,213.1,342.8,212.2,342.8z"/>
<path class="st6" d="M346.3,304h-33.5c-0.8,0-1.4-0.6-1.4-1.3c0-0.1,0-0.2,0-0.4l0,0c0.2-1,1-1.6,2-1.7H347c0.8,0,1.4,0.6,1.4,1.3
	c0,0.1,0,0.2,0,0.3l0,0C348.1,303.3,347.3,304,346.3,304z"/>
<path class="st6" d="M345.2,310.4h-33.5c-0.7,0-1.4-0.5-1.4-1.3c0-0.1,0-0.2,0-0.4l0,0c0.2-0.9,1-1.6,2-1.7h33.5
	c0.7,0,1.4,0.5,1.4,1.3c0,0.1,0,0.2,0,0.4l0,0C347,309.6,346.2,310.3,345.2,310.4z"/>
<path class="st6" d="M325.6,316.8h-15.1c-0.7,0-1.4-0.5-1.4-1.3c0-0.1,0-0.2,0-0.4l0,0c0.2-0.9,1-1.6,2-1.7h15.1
	c0.7,0,1.4,0.5,1.4,1.3c0,0.1,0,0.2,0,0.4l0,0C327.4,316.1,326.6,316.8,325.6,316.8z"/>
<path class="st7" d="M270.8,315.3l5.5,3.2c0.2,0.1,0.5,0,0.6-0.2c0-0.1,0-0.1,0-0.2v-6.8c0-0.1,0.1-0.2,0.2-0.3l5.8-4.8
	c0.3-0.2,0.2-0.6-0.1-0.6l-6.6-1c-0.1,0-0.2-0.1-0.2-0.2l-1.9-6.1c-0.1-0.3-0.5-0.3-0.7,0l-4.1,6.2c-0.1,0.1-0.2,0.2-0.3,0.2l-7,1
	c-0.3,0-0.5,0.4-0.3,0.6l4.1,4.7c0.1,0.1,0.1,0.2,0,0.3l-2.4,6.8c-0.1,0.2,0,0.3,0.2,0.4c0.1,0,0.2,0,0.3,0l6.6-3.2
	C270.6,315.2,270.7,315.2,270.8,315.3z"/>
<path class="st7" d="M235.6,237.6c-0.7-0.7-1.8-0.7-2.5-0.1l-6.6,5.6l-4.6-5.5c-0.8-0.7-1.9-0.6-2.6,0.2c-0.5,0.6-0.6,1.5-0.2,2.2
	l4.6,5.5l-6.6,5.6c-0.8,0.5-0.9,1.6-0.4,2.3c0.5,0.8,1.6,0.9,2.3,0.4c0.1,0,0.1-0.1,0.2-0.1l6.6-5.6l4.6,5.5
	c0.3,0.4,0.8,0.6,1.2,0.6c0.5,0,0.9-0.2,1.3-0.5c0.8-0.6,0.9-1.7,0.3-2.5l-4.6-5.5l6.6-5.6C236,239.5,236.1,238.4,235.6,237.6z"/>
<path class="st7" d="M172.9,276.8c-1.1,5.7-6.1,9.9-11.9,10.1c-5.6,0-9.4-4.5-8.4-10.1c1.2-5.8,6.1-10,12-10.1
	C170.2,266.6,173.9,271.1,172.9,276.8z"/>
<path class="st2" d="M160.7,282.3c-0.3,0-0.5-0.1-0.7-0.3l-4-5.4c-0.3-0.5-0.2-1.2,0.3-1.6c0.4-0.4,1.1-0.4,1.5,0c0,0,0,0,0,0
	l3.3,4.4l6.6-7.4c0.4-0.5,1.1-0.6,1.6-0.3c0.4,0.4,0.4,1.1,0,1.5c0,0,0,0,0,0l-7.6,8.5c-0.2,0.3-0.6,0.4-0.9,0.5L160.7,282.3z"/>
<path class="st7" d="M336.9,334.6c-1.1,5.7-6.1,9.9-11.9,10.1c-5.6,0-9.4-4.5-8.4-10.1c1.1-5.7,6.1-9.9,11.9-10.2
	C334.1,324.4,337.9,329,336.9,334.6z"/>
<path class="st2" d="M324.7,340.1c-0.3,0-0.6-0.1-0.8-0.4l-4-5.4c-0.3-0.5-0.2-1.2,0.3-1.6c0.4-0.4,1.1-0.4,1.6,0.1c0,0,0,0,0,0
	l3.3,4.4l6.6-7.4c0.4-0.5,1.1-0.6,1.6-0.3c0.4,0.4,0.4,1.1,0,1.5c0,0,0,0,0,0l-7.6,8.5c-0.2,0.3-0.6,0.4-0.9,0.5L324.7,340.1z"/>
<path class="st6" d="M176.1,222.6c-3.9,0.1-7.2-3-7.4-6.9c0-0.6,0-1.2,0.2-1.8c1-4.9,5.2-8.6,10.3-8.8c3.9-0.1,7.3,3,7.4,6.9
	c0,0.6,0,1.2-0.2,1.8C185.4,218.9,181.2,222.5,176.1,222.6z M178.7,207.8c-3.5,0.1-6.5,2.6-7.1,6.1c-0.6,2.7,1.1,5.4,3.8,5.9
	c0.4,0.1,0.8,0.1,1.2,0.1c3.5-0.1,6.4-2.6,7.1-6.1c0.6-2.7-1.1-5.4-3.8-6C179.5,207.9,179.1,207.8,178.7,207.8z"/>
<path class="st6" d="M276.3,283.3c-3.9,0.1-7.2-3-7.4-6.9c0-0.6,0-1.2,0.2-1.8c1-4.9,5.2-8.6,10.3-8.8c3.9-0.1,7.3,3,7.4,6.9
	c0,0.6,0,1.2-0.2,1.8C285.6,279.5,281.4,283.2,276.3,283.3z M278.9,268.5c-3.5,0.1-6.4,2.6-7.1,6.1c-0.6,2.7,1.1,5.4,3.8,5.9
	c0.4,0.1,0.8,0.1,1.2,0.1c3.5-0.1,6.4-2.6,7.1-6.1c0.6-2.7-1.1-5.4-3.8-6C279.7,268.6,279.3,268.5,278.9,268.5z"/>
<path class="st6" d="M284.8,220.3h-46.2c-2.1,0.1-3.8-1.6-3.9-3.6c0-0.3,0-0.7,0.1-1l0,0c0.5-2.6,2.8-4.5,5.5-4.6h46.2
	c2.1-0.1,3.8,1.6,3.9,3.6c0,0.3,0,0.7-0.1,1l0,0C289.7,218.3,287.5,220.2,284.8,220.3z"/>
<path class="st8" d="M102.8,177.5L102.8,177.5c-1.1,0-1.9-0.8-2-1.8c0-0.2,0-0.3,0-0.5l8.5-48.1c0.3-1.3,1.4-2.2,2.7-2.3h0.1
	c1,0,1.9,0.8,1.9,1.8c0,0.2,0,0.3,0,0.5l-8.5,48.1C105.2,176.5,104.1,177.5,102.8,177.5z"/>
<path class="st8" d="M372.8,177.5L372.8,177.5c-1.1,0-2-0.7-2-1.8c0-0.2,0-0.3,0-0.5l8.5-48.1c0.3-1.3,1.4-2.2,2.7-2.3l0,0
	c1,0,1.9,0.8,1.9,1.8c0,0.2,0,0.3,0,0.5l-8.5,48.1C375.1,176.5,374.1,177.5,372.8,177.5z"/>
<path class="st2" d="M169.6,235.4c-5.9,0.2-10.8,4.4-12,10.2c-1,5.6,2.8,10.1,8.4,10.1c5.9-0.2,10.8-4.4,11.9-10.1
	C178.9,240,175.2,235.4,169.6,235.4z M173.7,241.8l-4.5,3.8l3.1,3.7c0.4,0.5,0.3,1.3-0.2,1.7c-0.2,0.2-0.5,0.3-0.9,0.3
	c-0.3,0-0.6-0.1-0.8-0.4l-3.1-3.8l-4.5,3.8c-0.4,0.5-1.2,0.5-1.6,0.1c-0.5-0.4-0.5-1.2-0.1-1.6c0.1-0.1,0.1-0.1,0.2-0.2l4.5-3.8
	l-3.1-3.7c-0.4-0.6-0.2-1.4,0.3-1.8c0.5-0.3,1.2-0.3,1.6,0.1l3.1,3.8l4.5-3.8c0.4-0.5,1.2-0.5,1.6-0.1c0.5,0.4,0.5,1.2,0.1,1.6
	C173.9,241.7,173.8,241.8,173.7,241.8L173.7,241.8z"/>
<path class="st9" d="M243.1,290.2h-49.8c-0.7,0-1.3-0.5-1.3-1.2c0-0.1,0-0.2,0-0.4l4.1-23.5c0.2-0.9,1-1.5,1.9-1.6h49.8
	c0.7,0,1.3,0.5,1.3,1.2c0,0.1,0,0.2,0,0.3l-4.1,23.5C244.8,289.5,244,290.2,243.1,290.2z"/>
<path class="st2" d="M221.9,266.8c-5.9,0.2-10.8,4.4-12,10.2c-1,5.6,2.8,10.1,8.4,10.1c5.9-0.2,10.8-4.4,11.9-10.1
	C231.3,271.3,227.5,266.8,221.9,266.8z M226,273.2l-4.5,3.8l3.1,3.7c0.4,0.5,0.3,1.3-0.2,1.7c-0.2,0.2-0.5,0.3-0.9,0.3
	c-0.3,0-0.6-0.1-0.8-0.4l-3.1-3.8l-4.5,3.8c-0.4,0.5-1.2,0.5-1.6,0c-0.5-0.4-0.5-1.2,0-1.6c0.1-0.1,0.1-0.1,0.2-0.1l4.5-3.8
	l-3.1-3.7c-0.4-0.6-0.2-1.4,0.3-1.8c0.5-0.3,1.2-0.3,1.6,0.1l3.1,3.8l4.5-3.8c0.4-0.5,1.2-0.5,1.6-0.1s0.5,1.2,0.1,1.6
	C226.2,273.1,226.1,273.1,226,273.2z"/>
<path class="st10" d="M42.3,40.5c0,0,2.5-13.3,1.7-22S41.2,5.2,40.2,7.2s1,13.6,0,13.9s-6.5-1.1-8.3,2s0.4,16.2,0.4,16.2L42.3,40.5z
	"/>
<path class="st11" d="M11.9,136.5c-1.1,15,14.9,23.4,24.6,16.8s6.3-13.6,24.6-12s27-16,27.3-21.1S102,98.3,102,98.3
	s11.1-7.8-3.5-16.5s-33.3,1.9-38.2,14.8S13.3,116.8,11.9,136.5z"/>
<path class="st9" d="M136.9,421.4v34.5h5.8v-9.4c0,0,4.4,9,7.2,9.4c1.8,0.3,8.8,0.2,14.6,0.1c0.8,0,1.4-0.7,1.4-1.4
	c0-0.5-0.3-1-0.7-1.3c-5.3-3-12.9-6-14.6-14.8c-1-5.8-1.7-11.7-2.1-17.6L136.9,421.4z"/>
<path class="st9" d="M68.4,420.5L65,454.4c-0.1,0.8,0.5,1.5,1.3,1.6c0.1,0,0.1,0,0.2,0h16.4c0.8,0,1.5-0.7,1.5-1.5
	c0-0.1,0-0.1,0-0.2c-0.3-2-3.7-5.7-4.7-9.5c-2.1-8.3-0.8-25.6-0.8-25.6L68.4,420.5z"/>
<path class="st11" d="M70.3,216.9c0,0-14.7,14.5-11.1,62.4s3.5,50.3,3.5,50.3l3,94.2c0,0,8.5,2,13.4,0l16.6-150.6
	c0,0,20.7,49.6,25.2,60.5s0,40,15,91c0,0,8.9,2.1,14.6,0c0,0,0.8-90-3.3-104.9s-30.4-94.7-34.5-103.6S70.3,216.9,70.3,216.9z"/>
<path class="st12" d="M161.1,130.6c-5.8,5.2-20,14.9-37.4,22.8c-3.9,1.8-5.5,3.4-5.6,7.7c-0.1,3.3,2.1,13.3,1.4,17.3
	c-1.8,9.1-7.5,15.9-7.2,37c0,2.5-5.9,4.8-12.2,5.6c-12.7,1.6-29.8-4.1-29.8-4.1s-8.8-43.3-13.3-52.7v-0.1c-0.1-0.1-0.1-0.2-0.2-0.3
	v-0.1c-3.8-7.1-16.8-47.8-23.1-60.5c-1-2-1.3-4.2-1-6.3l0-60.8l10,1.3l5,55.2c0,1.6,0.3,3.2,1,4.7c3.1,6.8,10,25.8,17.6,36.5
	c2.9,4.1,10.6,5,15.6,4.9c9.1-0.1,17.6,0.3,27.1-0.9c8.5-1,25.3-9.3,34.1-14.5c3.1-1.8,4.6-5.4,3.9-8.8l-5-43.3l8.1-3.2
	c0,0,10.4,35.7,13.8,55.3C164.3,125.9,163.3,128.8,161.1,130.6z"/>
<linearGradient id="SVGID_1_" gradientUnits="userSpaceOnUse" x1="-976.9943" y1="274.1652" x2="-1009.8943" y2="246.8052" gradientTransform="matrix(1 0 0 -1 1057.46 466)">
	<stop  offset="0" style="stop-color:#FFFFFF"/>
	<stop  offset="1" style="stop-color:#000000"/>
</linearGradient>
<path class="st13" d="M100.7,222.2c-12.7,1.6-30.3-5.3-30.3-5.3s-8.8-43.4-13.3-52.7c1.9,3.8,12.7,30.8,22.1,35.1
	c16.7,7.6,13.8,20.4,23.9,16.4C104.7,215,103.6,217.6,100.7,222.2z"/>
<path class="st10" d="M141.7,71.1c0,0-1.9-6.3-0.7-11.2s9.3-8.3,11-5.3c3.4,6.3-2.1,13.2-2.1,13.2L141.7,71.1z"/>
<polygon class="st7" points="132.6,55.3 129.6,57.2 123,41.7 126,39.8 "/>
<path class="st7" d="M154.6,69.4l-3.8,1.6c-0.7,0.3-1.5,0-1.8-0.7c0,0,0,0,0,0l-9.3-23.5l5-2.1l10.6,22.9
	C155.6,68.3,155.3,69,154.6,69.4C154.6,69.4,154.6,69.4,154.6,69.4z"/>
<path class="st14" d="M195.6,42.7c0,0-19.4,1.9-32.4,5.3c-10.3,2.7-30.6,9.5-30.6,9.5l-7.8-18.3c0,0,10.5-4.4,28.6-14.2
	C167.8,17.1,179,4,179,4L195.6,42.7z"/>
<path class="st10" d="M83.6,138.4c4.2,7.4,17.8,7.8,17.8,1.1c-0.1-4-0.4-8-1-12c-0.6-4-1.1-7.3-1.1-7.3s-15.3-11.6-14.9-5.5
	S83.6,138.4,83.6,138.4z"/>
<linearGradient id="SVGID_2_" gradientUnits="userSpaceOnUse" x1="-666.12" y1="341.6497" x2="-650.1111" y2="341.6497" gradientTransform="matrix(-1 0 0 -1 -565.17 466)">
	<stop  offset="0" style="stop-color:#FFFFFF"/>
	<stop  offset="1" style="stop-color:#000000"/>
</linearGradient>
<path class="st15" d="M85,118.8c2.7,8.5,12.2,11.8,16,12.8c-0.6-4-1.1-7.3-1.1-7.3S84.6,112.7,85,118.8z"/>
<path class="st10" d="M105.2,94.8c0,0,7.2,26.7,0.8,31.2c-9.3,6.6-15-4.1-17.5-6.6c-1.6-1.6-7.3-0.2-8.6-3.6s1.7-4.3,3.3-4
	s4.6,0.7,1.9-4.4s7-4.8,11.3-7C99.6,98.7,102.5,96.8,105.2,94.8z"/>
<path class="st16" d="M354.6,454.2c-1.8,0.7-25.1,0.3-34.9,0.1c-1.2,0-2.2-1-2.2-2.3c0-0.6,0.3-1.2,0.7-1.6c2.4-2.3,6.7-5,14-5.7
	c3.2-0.3,5.1-1.3,6.3-3c2.1-3.2,3.2-7,2.9-10.8c-0.1-1-0.1-2.1-0.2-3.2c-0.8-10,14.2-0.2,14.2-0.2s0,1.4,0,3.4
	c0.1,2.9-1.2,7.2-0.4,10.6c0.1,0.5,0.3,1,0.4,1.4C357.2,448.7,356.9,453.4,354.6,454.2z"/>
<path class="st11" d="M354.6,454.2c-2,0.8-29.2,0.2-37,0c-1,0-1.4-1.1-1-2c1.5-3.1,6-8.1,15.3-9c3.2-0.3,6.2-1.6,7.3-3.3
	c3.3,0.2,5.9,1.6,5.8,4.6c0,1.8,5.5,2.3,9.9-3.2c0.1,0.5,0.3,1,0.4,1.4C357.2,448.7,356.9,453.4,354.6,454.2z"/>
<path class="st16" d="M529.1,431.2c-0.6,1.8-15.9,19.5-22.3,26.8c-0.8,0.9-2.2,1-3.1,0.2c-0.4-0.4-0.7-0.9-0.7-1.5
	c-0.2-3.3,0.5-8.3,4.6-14.4c1.8-2.6,2.3-4.8,1.7-6.8c-1.1-3.7-3.3-6.9-6.5-9.2c-0.8-0.6-1.7-1.2-2.6-1.9c-8.2-5.8,8.9-11,8.9-11
	s1,0.9,2.6,2.2c2.3,1.8,4.8,5.5,7.9,7.1c0.5,0.2,0.9,0.4,1.3,0.6C526.5,425.6,529.9,428.8,529.1,431.2z"/>
<path class="st11" d="M529.1,431.2c-0.7,2-18.5,22.5-23.6,28.4c-0.7,0.8-1.7,0.4-2.1-0.5c-1.4-3.2-2.4-9.8,2.9-17.5
	c1.8-2.6,2.8-5.8,2.2-7.7c2.3-2.4,5-3.5,7.3-1.5c1.3,1.2,5.3-2.8,3.9-9.6c0.5,0.2,0.9,0.4,1.3,0.6
	C526.5,425.6,529.9,428.8,529.1,431.2z"/>
<path class="st17" d="M435.7,286.4c0,0-56.7,53.7-62.5,74.4s-17.9,78.1-17.9,78.1l-15.1-1.5c0,0-1.4-77.5,6.9-99.6s50-87.1,50-87.1
	L435.7,286.4z"/>
<path class="st11" d="M435.7,286.4c0,0-56.7,53.7-62.5,74.4s-17.9,78.1-17.9,78.1l-15.1-1.5c0,0-1.4-77.5,6.9-99.6s50-87.1,50-87.1
	L435.7,286.4z"/>
<path class="st11" d="M435.8,90.1c0,0-3.5-3.8,0.3-12.4c4.1-9.3,16.3-7.1,20.8,1.2c5.8,10.8,5.9,12.8,10.7,15.7
	c5.3,3.1,8.5,16.3-2.8,21.9s-15.2,10.3-15.2,10.3L435.8,90.1z"/>
<path class="st18" d="M422.9,141.4c0,0-29.5-1.2-35.2,54.3l-1.8,7.1h18.5L422.9,141.4z"/>
<path class="st11" d="M453.7,259.7c0,0,2.8,76.9,14.7,95s47.6,65.4,47.6,65.4l-11.4,9.9c0,0-59.9-51.1-71.3-72s-32.8-94.5-32.8-94.5
	L453.7,259.7z"/>
<path class="st19" d="M454.3,270.7c0,0-28.5-1.4-38-3.4c-9.1-1.9-28.5-10-28.5-10s-5-110.8,37-116.1l24.2,2.5
	c0,0,15.9,6.9,12.3,32.7c-0.1,0.9-0.3,1.8-0.4,2.7C455.9,207,454.3,270.7,454.3,270.7z"/>
<linearGradient id="SVGID_3_" gradientUnits="userSpaceOnUse" x1="433.2648" y1="174.6303" x2="424.2048" y2="323.3903" gradientTransform="matrix(1 0 0 -1 0 466)">
	<stop  offset="0" style="stop-color:#FFFFFF"/>
	<stop  offset="1" style="stop-color:#000000"/>
</linearGradient>
<path class="st20" d="M413.2,265.7c0,0,36-20.6,44.1-61l-55.1,59.2L413.2,265.7z"/>
<path class="st16" d="M451.2,119.5c0,0-0.1,0.3-0.2,0.8l0,0c-0.9,3.9-3.9,17-3,22.9l-17.6,4.3c-2.4,0.6-4.8-0.9-5.3-3.2
	c-0.2-0.7-0.2-1.3,0-2c1-4.6,1.9-7.8,3.5-14.1c0.7-2.9,1.5-5.8,2.2-8.6c1.1-4,3.3-5.7,5.9-6.1c1.6-0.2,3.2,0,4.7,0.5l0,0
	C444.9,115.2,448.2,117.1,451.2,119.5z"/>
<linearGradient id="SVGID_4_" gradientUnits="userSpaceOnUse" x1="489.5656" y1="311.5587" x2="313.4556" y2="424.4388" gradientTransform="matrix(1 0 0 -1 0 466)">
	<stop  offset="0" style="stop-color:#FFFFFF"/>
	<stop  offset="1" style="stop-color:#000000"/>
</linearGradient>
<path class="st21" d="M451,120.3L451,120.3c-5.1,6.8-16.5,7.8-22.5,7.8c0.7-2.9,1.5-5.8,2.2-8.6c1.1-4,3.3-5.7,5.9-6.1
	c1.6,0.1,3.2,0.3,4.7,0.5l0,0C448.6,114.9,453.6,116.8,451,120.3z"/>
<path class="st16" d="M435.8,90.1c0,0-16,16.1-12.8,27.9s28,2.4,28,2.4s3,1.2,7-1.8s0.9-6.5-2.8-5.7s0.4-3.7,0.9-8.2
	S440.9,98,435.8,90.1z"/>
<path class="st16" d="M392.3,269.1c0,0-13.6,3.6-21-4.4c-4.3-4.7,16.3-2.7,16.3-2.7L392.3,269.1z"/>
<rect x="347.4" y="249.7" class="st22" width="61" height="15"/>
<ellipse class="st2" cx="357.3" cy="257.2" rx="3.9" ry="3.8"/>
<rect x="348.9" y="234.7" class="st6" width="61" height="15"/>
<path class="st2" d="M355,242.2c-0.1,2.1,1.6,3.9,3.7,4c2.1,0.1,3.9-1.6,4-3.7c0.1-2.1-1.6-3.9-3.7-4c0,0-0.1,0-0.1,0
	C356.8,238.4,355,240.1,355,242.2z"/>
<rect x="345.6" y="219.7" class="st9" width="61" height="15"/>
<path class="st2" d="M351.6,227.2c-0.1,2.1,1.6,3.9,3.7,4c2.1,0.1,3.9-1.6,4-3.7c0.1-2.1-1.6-3.9-3.7-4c0,0-0.1,0-0.1,0
	C353.4,223.4,351.7,225.1,351.6,227.2C351.7,227.2,351.7,227.2,351.6,227.2z"/>
<rect x="346.6" y="204.7" class="st6" width="61" height="15"/>
<path class="st2" d="M352.7,212.2c-0.1,2.1,1.6,3.9,3.7,4c2.1,0.1,3.9-1.6,4-3.7c0.1-2.1-1.6-3.9-3.7-4c0,0-0.1,0-0.1,0
	C354.5,208.5,352.7,210.1,352.7,212.2z"/>
<rect x="346.6" y="189.8" class="st22" width="61" height="15"/>
<path class="st2" d="M352.7,197.3c-0.1,2.1,1.6,3.9,3.7,4c2.1,0.1,3.9-1.6,4-3.7c0.1-2.1-1.6-3.9-3.7-4c0,0-0.1,0-0.1,0
	C354.5,193.5,352.7,195.1,352.7,197.3C352.7,197.2,352.7,197.2,352.7,197.3z"/>
<path class="st19" d="M432.8,192.5c-0.9,5.5-4.2,25.3-17,40.6S387,264.7,387,264.7l6.5,6c0,0,34.5-17,55.4-49.7s15.6-65.2,5.1-67.9
	C443.3,150.4,436.8,166.6,432.8,192.5z"/>
</svg>
